<svg width="154" height="32" viewBox="0 0 154 32" fill="none" xmlns="http://www.w3.org/2000/svg">
<g clip-path="url(#clip0_772_4524)">
<path d="M38.6291 14.3521L28.2453 3.96837C28.0779 3.81093 27.8567 3.72327 27.6268 3.72327C27.397 3.72327 27.1758 3.81093 27.0083 3.96837L24.9677 6.00901L33.3108 14.3521C33.3924 14.4331 33.4572 14.5295 33.5014 14.6356C33.5456 14.7418 33.5684 14.8556 33.5684 14.9706C33.5684 15.0856 33.5456 15.1995 33.5014 15.3056C33.4572 15.4118 33.3924 15.5081 33.3108 15.5891L24.7329 24.167L26.7735 26.2077C26.941 26.3651 27.1622 26.4528 27.3921 26.4528C27.6219 26.4528 27.8431 26.3651 28.0106 26.2077L38.6291 15.5891C38.7865 15.4217 38.8742 15.2005 38.8742 14.9706C38.8742 14.7408 38.7865 14.5196 38.6291 14.3521" fill="#009C9C"/>
<path d="M20.9391 4.72232L20.1851 3.96837C20.0177 3.81093 19.7965 3.72327 19.5666 3.72327C19.3368 3.72327 19.1156 3.81093 18.9481 3.96837L16.9075 6.00901L18.2619 7.36341L20.921 10.0226L23.5756 7.36341L20.9391 4.72232Z" fill="#40E3E3"/>
<path d="M20.6863 20.149L18.0316 22.8081L16.6772 24.1625L18.7179 26.2032C18.8853 26.3606 19.1065 26.4483 19.3364 26.4483C19.5662 26.4483 19.7874 26.3606 19.9549 26.2032L20.7043 25.4492L23.3635 22.7901L20.6863 20.149Z" fill="#40E3E3"/>
<path d="M25.2518 14.3521C25.4093 14.5196 25.4969 14.7408 25.4969 14.9706C25.4969 15.2005 25.4093 15.4217 25.2518 15.5891L20.6875 20.149L23.3466 22.8081L30.5701 15.5846C30.6517 15.5036 30.7165 15.4073 30.7607 15.3011C30.805 15.195 30.8277 15.0811 30.8277 14.9661C30.8277 14.8511 30.805 14.7373 30.7607 14.6311C30.7165 14.525 30.6517 14.4286 30.5701 14.3476L23.5995 7.38147L20.9403 10.0406L25.2518 14.3521Z" fill="#1ABAB8"/>
<path d="M8.31605 14.6004L15.5395 7.37695L12.8804 4.71781L12.1219 3.96837C11.9545 3.81093 11.7333 3.72327 11.5034 3.72327C11.2736 3.72327 11.0524 3.81093 10.8849 3.96837L0.257358 14.6004C0.17573 14.6814 0.110943 14.7778 0.0667303 14.8839C0.0225181 14.9901 -0.000244141 15.1039 -0.000244141 15.2189C-0.000244141 15.3339 0.0225181 15.4478 0.0667303 15.5539C0.110943 15.6601 0.17573 15.7565 0.257358 15.8375L10.6411 26.2212C10.8086 26.3786 11.0298 26.4663 11.2596 26.4663C11.4895 26.4663 11.7107 26.3786 11.8781 26.2212L12.6411 25.4672L15.3002 22.8081L8.31605 15.8375C8.23442 15.7565 8.16963 15.6601 8.12542 15.5539C8.08121 15.4478 8.05845 15.3339 8.05845 15.2189C8.05845 15.1039 8.08121 14.9901 8.12542 14.8839C8.16963 14.7778 8.23442 14.6814 8.31605 14.6004" fill="#87F0F0"/>
<path d="M16.3748 14.6004L19.5666 11.4131L16.9075 8.75394L15.5531 7.39954L8.32962 14.623C8.248 14.704 8.18321 14.8004 8.139 14.9065C8.09478 15.0127 8.07202 15.1265 8.07202 15.2415C8.07202 15.3565 8.09478 15.4704 8.139 15.5765C8.18321 15.6827 8.248 15.779 8.32962 15.86L15.2867 22.8081L16.6411 21.4537L19.3003 18.7946L16.3567 15.8555C16.1993 15.6881 16.1116 15.4669 16.1116 15.237C16.1116 15.0072 16.1993 14.786 16.3567 14.6185" fill="#40E3E3"/>
<path d="M16.3747 15.8375L19.3183 18.7765L22.5057 15.5892C22.5873 15.5082 22.6521 15.4118 22.6963 15.3057C22.7405 15.1995 22.7633 15.0856 22.7633 14.9706C22.7633 14.8557 22.7405 14.7418 22.6963 14.6356C22.6521 14.5295 22.5873 14.4331 22.5057 14.3521L19.5666 11.4131L16.3747 14.6004C16.2173 14.7679 16.1296 14.9891 16.1296 15.219C16.1296 15.4488 16.2173 15.67 16.3747 15.8375" fill="#17CFCF"/>
<path d="M46.9554 12.149C46.9849 10.9739 47.2186 9.81282 47.6462 8.71784C48.0464 7.70871 48.6628 6.79951 49.4522 6.05418C50.2965 5.284 51.2911 4.69682 52.3733 4.32958C53.6839 3.89942 55.0577 3.69337 56.4368 3.7201C57.9726 3.67045 59.504 3.90935 60.9517 4.42439C61.9898 4.80763 62.9469 5.38186 63.7735 6.11739C64.4065 6.68093 64.9088 7.37581 65.2454 8.15351C65.489 8.72055 65.6502 9.31956 65.724 9.93229C65.737 10.0453 65.7224 10.1597 65.6815 10.2659C65.6407 10.372 65.5747 10.4667 65.4892 10.5418C65.3213 10.6944 65.1021 10.7782 64.8752 10.7765H62.3378C62.1397 10.7858 61.9447 10.7251 61.787 10.605C61.6648 10.5066 61.5648 10.3835 61.4935 10.2438C61.4484 10.1625 61.34 9.97743 61.1639 9.69301C60.9313 9.3562 60.6445 9.06024 60.3151 8.81716C59.8521 8.47322 59.3409 8.1994 58.7981 8.00452C58.0426 7.74163 57.2454 7.61923 56.4458 7.64335C55.0768 7.57528 53.7329 8.02861 52.6849 8.91197C52.2126 9.34374 51.8352 9.86882 51.5764 10.454C51.3176 11.0392 51.1831 11.6717 51.1814 12.3115C51.1362 13.1061 51.1182 13.9594 51.1182 14.8668C51.1182 15.7743 51.1182 16.6275 51.1814 17.4221C51.2401 19.1558 51.7458 20.4154 52.6849 21.1964C53.7557 22.0221 55.0862 22.4384 56.4368 22.3702C57.1549 22.3759 57.8709 22.291 58.5678 22.1174C59.1774 21.9682 59.7484 21.6912 60.2429 21.3047C60.7278 20.908 61.1051 20.3957 61.34 19.8149C61.6191 19.0959 61.7526 18.3286 61.7328 17.5576V17.2912H57.9086C57.7972 17.293 57.6866 17.2714 57.5839 17.2278C57.4813 17.1843 57.3889 17.1198 57.3127 17.0384C57.2331 16.962 57.17 16.8701 57.1273 16.7684C57.0846 16.6666 57.0632 16.5573 57.0644 16.447V14.2212C57.0667 13.9976 57.1562 13.7838 57.3139 13.6252C57.4717 13.4667 57.685 13.376 57.9086 13.3725H65.1325C65.3561 13.376 65.5695 13.4667 65.7272 13.6252C65.885 13.7838 65.9745 13.9976 65.9768 14.2212V17.6659C65.9899 18.8468 65.7879 20.0201 65.3809 21.1287C64.9898 22.1557 64.3725 23.0815 63.5749 23.8375C62.7209 24.644 61.7052 25.2595 60.595 25.6434C57.892 26.4891 54.9951 26.4891 52.2921 25.6434C51.2138 25.2865 50.2251 24.7013 49.3935 23.9278C48.6135 23.1643 48.0095 22.2399 47.6236 21.219C47.2041 20.1112 46.9751 18.9404 46.9464 17.7562C46.9464 17.3589 46.9103 16.921 46.9012 16.4424C46.8922 15.9639 46.9012 15.4673 46.9012 14.9661C46.9012 14.465 46.9012 13.9774 46.9012 13.4944C46.9012 13.0113 46.9283 12.5914 46.9464 12.1761" fill="white"/>
<path d="M75.6293 13.1241C75.0991 13.1092 74.5712 13.1997 74.0762 13.3905C73.6761 13.5484 73.3099 13.7814 72.9972 14.0767C72.7138 14.3456 72.484 14.6658 72.32 15.0203C72.1751 15.3324 72.0763 15.664 72.0266 16.0045H79.1056C79.0603 15.6694 78.9817 15.3397 78.8708 15.0203C78.7538 14.6684 78.5612 14.3463 78.3065 14.0767C78.0155 13.7759 77.6628 13.5418 77.2726 13.3905C76.7476 13.1948 76.1892 13.1043 75.6293 13.1241V13.1241ZM67.9543 17.8239C67.9462 16.7003 68.1262 15.5833 68.4871 14.5192C68.8153 13.5239 69.337 12.6034 70.0221 11.8104C70.6962 11.0448 71.5237 10.4296 72.4509 10.0045C73.4447 9.56046 74.5229 9.33712 75.6112 9.34987C76.6983 9.33597 77.7758 9.55455 78.7715 9.99095C79.7046 10.3975 80.5438 10.9923 81.2365 11.7381C81.9155 12.4739 82.4432 13.336 82.7895 14.2754C83.157 15.2523 83.3436 16.288 83.3403 17.3318V18.7404C83.3368 18.9644 83.2463 19.1783 83.0879 19.3367C82.9295 19.4951 82.7156 19.5857 82.4916 19.5891H72.0266C72.016 20.03 72.1169 20.4663 72.32 20.8578C72.5195 21.2133 72.7937 21.5213 73.1236 21.7607C73.4712 22.0178 73.8629 22.2091 74.2794 22.325C74.7204 22.4479 75.176 22.5101 75.6338 22.5101C76.1842 22.5256 76.7338 22.4571 77.2636 22.307C77.6347 22.1947 77.9842 22.0207 78.2974 21.7923C78.4729 21.657 78.662 21.5404 78.8618 21.4447C79.0521 21.3736 79.2547 21.3414 79.4577 21.3499H81.9634C82.1927 21.3531 82.4122 21.4435 82.5774 21.6027C82.6605 21.6766 82.7251 21.7691 82.7659 21.8726C82.8067 21.9762 82.8225 22.0878 82.8121 22.1986C82.7418 22.6083 82.5746 22.9953 82.3245 23.3273C81.958 23.8564 81.4992 24.3152 80.9701 24.6817C80.2759 25.1645 79.5156 25.5447 78.7128 25.8104C77.7166 26.1353 76.6723 26.288 75.6248 26.2618C74.541 26.2739 73.466 26.0665 72.4645 25.6523C71.5311 25.266 70.6952 24.6769 70.0175 23.9277C69.3332 23.1444 68.8114 22.2328 68.4825 21.246C68.1151 20.14 67.935 18.9803 67.9498 17.8149" fill="white"/>
<path d="M90.8446 20.0813C90.8147 20.6446 91.0003 21.1983 91.3638 21.6298C91.7069 22.0181 92.348 22.2122 93.2915 22.2122H95.2012C95.4248 22.2145 95.6387 22.3041 95.7972 22.4618C95.9558 22.6195 96.0465 22.8328 96.05 23.0564V25.1242C96.0465 25.3482 95.956 25.562 95.7975 25.7205C95.6391 25.8789 95.4253 25.9694 95.2012 25.9729H92.8807C90.9153 25.9729 89.4104 25.4974 88.366 24.5463C87.3216 23.5952 86.7949 22.1385 86.7859 20.1761V13.4357H84.7001C84.5894 13.4371 84.4795 13.4153 84.3777 13.3718C84.2758 13.3282 84.1842 13.2639 84.1087 13.1828C84.027 13.1079 83.9622 13.0163 83.9186 12.9144C83.875 12.8124 83.8536 12.7023 83.8559 12.5914V10.5192C83.8545 10.4084 83.8762 10.2986 83.9198 10.1968C83.9633 10.0949 84.0277 10.0033 84.1087 9.92777C84.1849 9.8476 84.2766 9.78383 84.3783 9.74035C84.48 9.69688 84.5895 9.67462 84.7001 9.67495H86.7724V4.56434C86.7758 4.34152 86.8659 4.1288 87.0235 3.97123C87.1811 3.81365 87.3938 3.72358 87.6166 3.72009H90.0003C90.2232 3.72358 90.4359 3.81365 90.5934 3.97123C90.751 4.1288 90.8411 4.34152 90.8446 4.56434V9.67495H94.9078C95.1243 9.68748 95.3279 9.78152 95.4779 9.93815C95.6278 10.0948 95.7129 10.3024 95.7159 10.5192V12.5914C95.7124 12.8142 95.6224 13.027 95.4648 13.1845C95.3072 13.3421 95.0945 13.4322 94.8717 13.4357H90.8085L90.8446 20.0813Z" fill="white"/>
<path d="M111.438 17.7923L107.988 8.85781L104.543 17.7923H111.438ZM109.713 4.03163C109.85 4.02163 109.988 4.04014 110.118 4.08598C110.248 4.13182 110.366 4.204 110.467 4.29799C110.669 4.53192 110.822 4.80352 110.918 5.09709L118.594 24.9075C118.615 24.9779 118.625 25.0508 118.625 25.1242C118.622 25.3482 118.531 25.5621 118.373 25.7205C118.215 25.8789 118.001 25.9694 117.777 25.9729H115.519C115.362 25.9893 115.203 25.9742 115.052 25.9285C114.901 25.8827 114.76 25.8073 114.639 25.7066C114.491 25.5578 114.375 25.3814 114.296 25.1874L112.941 21.7111H103.04L101.685 25.1874C101.606 25.3814 101.49 25.5578 101.342 25.7066C101.221 25.8073 101.08 25.8827 100.929 25.9285C100.778 25.9742 100.619 25.9893 100.462 25.9729H98.2044C97.9811 25.9683 97.7684 25.8772 97.6109 25.7189C97.4535 25.5606 97.3635 25.3474 97.3601 25.1242C97.3582 25.0507 97.3689 24.9774 97.3917 24.9075L105.067 5.09709C105.163 4.80352 105.317 4.53192 105.519 4.29799C105.619 4.204 105.738 4.13182 105.868 4.08598C105.997 4.04014 106.135 4.02163 106.273 4.03163H109.713Z" fill="white"/>
<path d="M132.03 18.6998C132.093 18.1176 132.093 17.5303 132.03 16.9481C131.908 15.5937 131.488 14.6095 130.779 14.018C130.05 13.4129 129.126 13.0921 128.179 13.1151C127.234 13.0854 126.312 13.4071 125.592 14.018C125.229 14.3506 124.936 14.7515 124.729 15.1978C124.522 15.6441 124.406 16.127 124.386 16.6185C124.338 17.0139 124.317 17.4121 124.323 17.8104C124.317 18.2086 124.338 18.6069 124.386 19.0022C124.44 19.9823 124.873 20.9031 125.592 21.5711C126.303 22.2021 127.228 22.5379 128.179 22.5101C129.126 22.5331 130.05 22.2124 130.779 21.6072C131.488 21.0158 131.908 20.0361 132.03 18.6772V18.6998ZM129.127 26.2844C128.542 26.2908 127.959 26.2286 127.388 26.0993C126.923 25.9952 126.469 25.844 126.034 25.6478C125.688 25.4738 125.363 25.2618 125.063 25.0158C124.829 24.8305 124.61 24.6267 124.409 24.4063V31.079C124.405 31.303 124.315 31.5169 124.156 31.6753C123.998 31.8337 123.784 31.9243 123.56 31.9278H121.181C120.957 31.9243 120.743 31.8337 120.584 31.6753C120.426 31.5169 120.336 31.303 120.332 31.079V10.5192C120.337 10.2959 120.428 10.0832 120.586 9.92576C120.744 9.7683 120.958 9.67839 121.181 9.67493H123.56C123.783 9.67839 123.996 9.7683 124.155 9.92576C124.313 10.0832 124.404 10.2959 124.409 10.5192V11.2415C124.61 11.0211 124.829 10.8173 125.063 10.632C125.369 10.3912 125.701 10.1853 126.052 10.018C126.487 9.82192 126.941 9.67065 127.407 9.56658C127.977 9.43725 128.56 9.37512 129.145 9.38147C130.124 9.36732 131.093 9.57572 131.98 9.99095C132.804 10.3814 133.54 10.936 134.142 11.6208C134.748 12.3158 135.226 13.112 135.556 13.9729C135.899 14.8588 136.095 15.7954 136.133 16.7449C136.156 17.0564 136.165 17.4221 136.165 17.842C136.165 18.2618 136.165 18.6275 136.133 18.939C136.095 19.8885 135.899 20.8252 135.556 21.711C135.226 22.572 134.748 23.3682 134.142 24.0632C133.54 24.748 132.804 25.3026 131.98 25.693C131.086 26.1047 130.11 26.307 129.127 26.2844" fill="white"/>
<path d="M149.746 18.6998C149.809 18.1176 149.809 17.5303 149.746 16.9481C149.62 15.5937 149.205 14.6095 148.491 14.018C147.763 13.4114 146.838 13.0905 145.891 13.1151C144.946 13.0854 144.025 13.4071 143.304 14.018C142.941 14.3506 142.648 14.7515 142.441 15.1978C142.234 15.6441 142.118 16.127 142.098 16.6185C142.053 17.0141 142.032 17.4122 142.035 17.8104C142.031 18.2086 142.052 18.6067 142.098 19.0022C142.153 19.9823 142.585 20.9031 143.304 21.5711C144.015 22.2021 144.94 22.5379 145.891 22.5101C146.838 22.5348 147.763 22.2139 148.491 21.6072C149.205 21.0158 149.62 20.0361 149.746 18.6772V18.6998ZM146.83 26.2618C146.245 26.2679 145.662 26.2058 145.092 26.0767C144.626 25.9719 144.173 25.8207 143.737 25.6253C143.387 25.4581 143.057 25.2521 142.753 25.0113C142.518 24.8259 142.297 24.6221 142.094 24.4018V31.079C142.095 31.1903 142.073 31.3006 142.029 31.4031C141.986 31.5055 141.922 31.5981 141.841 31.6749C141.765 31.7553 141.673 31.8192 141.572 31.8627C141.47 31.9062 141.36 31.9283 141.25 31.9278H138.866C138.642 31.9242 138.429 31.8335 138.271 31.675C138.114 31.5165 138.024 31.3026 138.022 31.079V10.5192C138.025 10.2964 138.115 10.0836 138.273 9.92607C138.43 9.76849 138.643 9.67842 138.866 9.67493H141.25C141.472 9.67955 141.684 9.76997 141.842 9.92731C141.999 10.0846 142.089 10.2967 142.094 10.5192V11.2415C142.297 11.0212 142.518 10.8174 142.753 10.632C143.057 10.3912 143.387 10.1852 143.737 10.018C144.173 9.82265 144.626 9.6714 145.092 9.56658C145.662 9.4375 146.245 9.37538 146.83 9.38148C147.81 9.36727 148.781 9.57565 149.67 9.99096C150.493 10.3831 151.228 10.9374 151.832 11.6208C152.436 12.316 152.913 13.1122 153.241 13.9729C153.585 14.8588 153.78 15.7954 153.819 16.7449C153.841 17.0564 153.85 17.4221 153.85 17.842C153.85 18.2618 153.85 18.6275 153.819 18.939C153.78 19.8886 153.585 20.8252 153.241 21.7111C152.913 22.5718 152.436 23.368 151.832 24.0632C151.228 24.7465 150.493 25.3009 149.67 25.693C148.781 26.1083 147.81 26.3167 146.83 26.3025" fill="white"/>
</g>
<defs>
<clipPath id="clip0_772_4524">
<rect width="154" height="32" fill="white"/>
</clipPath>
</defs>
</svg>
