<svg xmlns="http://www.w3.org/2000/svg" width="48" height="48" viewBox="0 0 48 48" fill="none"><path fill-rule="evenodd" clip-rule="evenodd" d="M0 18C0 9.51472 0 5.27208 2.63604 2.63604C5.27208 0 9.51472 0 18 0H30C38.4853 0 42.7279 0 45.364 2.63604C48 5.27208 48 9.51472 48 18V30C48 38.4853 48 42.7279 45.364 45.364C42.7279 48 38.4853 48 30 48H18C9.51472 48 5.27208 48 2.63604 45.364C0 42.7279 0 38.4853 0 30V18ZM10.875 9H37.125C37.4734 9 37.6476 9 37.7933 9.02308C38.5956 9.15016 39.2248 9.77939 39.3519 10.5817C39.375 10.7274 39.375 10.9016 39.375 11.25C39.375 11.5984 39.375 11.7726 39.3519 11.9183C39.2248 12.7206 38.5956 13.3498 37.7933 13.4769C37.6476 13.5 37.4734 13.5 37.125 13.5H10.875C10.5266 13.5 10.3524 13.5 10.2067 13.4769C9.40439 13.3498 8.77516 12.7206 8.64808 11.9183C8.625 11.7726 8.625 11.5984 8.625 11.25C8.625 10.9016 8.625 10.7274 8.64808 10.5817C8.77516 9.77939 9.40439 9.15016 10.2067 9.02308C10.3524 9 10.5266 9 10.875 9ZM24.6785 27.8279L15.5187 16.9118C15.2948 16.6449 15.1828 16.5115 15.0715 16.4146C14.4584 15.8817 13.5719 15.8042 12.8757 16.2225C12.7492 16.2985 12.6157 16.4105 12.3489 16.6344C12.082 16.8584 11.9486 16.9703 11.8517 17.0817C11.3188 17.6948 11.2413 18.5812 11.6596 19.2775C11.7356 19.404 11.8476 19.5374 12.0715 19.8043L21.2313 30.7204C21.4552 30.9873 21.5672 31.1208 21.6785 31.2176C22.2916 31.7505 23.1781 31.828 23.8743 31.4097C24.0008 31.3337 24.1343 31.2217 24.4011 30.9978C24.668 30.7738 24.8014 30.6619 24.8983 30.5505C25.4312 29.9375 25.5087 29.051 25.0904 28.3547C25.0144 28.2282 24.9024 28.0948 24.6785 27.8279ZM26.7687 16.9118L35.9285 27.8279C36.1524 28.0948 36.2644 28.2282 36.3404 28.3547C36.7587 29.051 36.6812 29.9375 36.1483 30.5505C36.0514 30.6619 35.918 30.7738 35.6511 30.9978C35.3843 31.2217 35.2508 31.3337 35.1243 31.4097C34.4281 31.828 33.5416 31.7505 32.9285 31.2176C32.8172 31.1208 32.7052 30.9873 32.4813 30.7204L23.3215 19.8043C23.0976 19.5374 22.9856 19.404 22.9096 19.2775C22.4913 18.5812 22.5688 17.6948 23.1017 17.0817C23.1986 16.9703 23.332 16.8584 23.5988 16.6345L23.5989 16.6344C23.8657 16.4105 23.9992 16.2985 24.1257 16.2225C24.8219 15.8042 25.7084 15.8817 26.3215 16.4146C26.4328 16.5115 26.5448 16.6449 26.7687 16.9118ZM37.125 34.5H10.875C10.5266 34.5 10.3524 34.5 10.2067 34.5231C9.40439 34.6502 8.77516 35.2794 8.64808 36.0817C8.625 36.2274 8.625 36.4016 8.625 36.75C8.625 37.0984 8.625 37.2726 8.64808 37.4183C8.77516 38.2206 9.40439 38.8498 10.2067 38.9769C10.3524 39 10.5266 39 10.875 39H37.125C37.4734 39 37.6476 39 37.7933 38.9769C38.5956 38.8498 39.2248 38.2206 39.3519 37.4183C39.375 37.2726 39.375 37.0984 39.375 36.75C39.375 36.4016 39.375 36.2274 39.3519 36.0817C39.2248 35.2794 38.5956 34.6502 37.7933 34.5231C37.6476 34.5 37.4734 34.5 37.125 34.5Z" fill="#FF6644"></path></svg>