<svg width="43" height="52" viewBox="0 0 43 52" fill="none" xmlns="http://www.w3.org/2000/svg">
<g clip-path="url(#clip0_18_140)">
<path d="M21.504 24.9784C28.3604 24.9784 33.9186 19.5641 33.9186 12.8852C33.9186 6.20631 28.3604 0.791992 21.504 0.791992C14.6476 0.791992 9.08936 6.20631 9.08936 12.8852C9.08936 19.5641 14.6476 24.9784 21.504 24.9784Z" stroke="#06F3A3" stroke-width="2" stroke-miterlimit="10"/>
<path d="M0.870064 51.4298C0.829414 50.9387 0.813147 50.4477 0.813147 49.9567C0.758605 47.2768 1.25337 44.6132 2.26849 42.1218C3.28361 39.6304 4.79869 37.3612 6.72506 35.4472C8.65143 33.5331 10.9504 32.0126 13.4874 30.9745C16.0244 29.9365 18.7484 29.4019 21.5001 29.4019C24.2518 29.4019 26.9759 29.9365 29.5129 30.9745C32.0499 32.0126 34.3489 33.5331 36.2752 35.4472C38.2016 37.3612 39.7167 39.6304 40.7318 42.1218C41.7469 44.6132 42.2417 47.2768 42.1871 49.9567C42.1871 50.4715 42.1871 50.9862 42.1302 51.4931" stroke="#7929FB" stroke-width="2" stroke-miterlimit="10"/>
<path d="M19.9918 32.1219C19.9918 32.1219 22.065 31.6625 23 32.1219L22.374 33.0801L23.6179 48.9193L21.8049 51.9684L19.9756 48.9668L20.691 33.1277L19.9918 32.1219Z" fill="#7829FA"/>
</g>
<defs>
<clipPath id="clip0_18_140">
<rect width="43" height="52" fill="white"/>
</clipPath>
</defs>
</svg>
