<svg width="351" height="351" viewBox="0 0 351 351" fill="none" xmlns="http://www.w3.org/2000/svg">
<path fill-rule="evenodd" clip-rule="evenodd" d="M60.9845 294.081L60.9845 351H62.9845L62.9845 294.081H84.0232V351H86.0232V294.081H107.062V351H109.062V294.081H130.1V351H132.1V294.081H153.139V351H155.139V294.081H176.178V351H178.178V294.081H199.216V351H201.216V294.081H222.255V351H224.255V294.081H245.293V351H247.293V294.081H268.332V351H270.332V294.081H291.371V351H293.371V294.081H351V292.081H293.371V271.042H351V269.042H293.371V248.004H351V246.004H293.371V224.965H351V222.965H293.371V201.927H351V199.927H293.371V178.888H351V176.888H293.371L293.371 155.849H351V153.849H293.371V132.811H351V130.811H293.371V109.772H351V107.772H293.371V86.7336H351V84.7336H293.371V63.695H351V61.695H293.371V0H291.371V61.695H270.332V0H268.332V61.695H247.293V0H245.293V61.695H224.255V0H222.255V61.695H201.216L201.216 0H199.216L199.216 61.695H178.178L178.178 0H176.178L176.178 61.695H155.139L155.139 0H153.139L153.139 61.695H132.1L132.1 0H130.1L130.1 61.695H109.062L109.062 0H107.062L107.062 61.695H86.0232L86.0232 0H84.0232L84.0232 61.695H62.9846L62.9846 0H60.9846L60.9846 61.695H0V63.695H60.9846V84.7336H0V86.7336H60.9846V107.772H0V109.772H60.9845V130.811H0V132.811H60.9845V153.849H0V155.849H60.9845V176.888H0V178.888H60.9845V199.927H0V201.927H60.9845V222.965H0V224.965H60.9845V246.004H0V248.004H60.9845V269.042H0V271.042H60.9845V292.081H0V294.081H60.9845ZM62.9846 63.695V84.7336H84.0232V63.695H62.9846ZM86.0232 63.695V84.7336H107.062V63.695H86.0232ZM109.062 63.695V84.7336H130.1V63.695H109.062ZM132.1 63.695V84.7336H153.139V63.695H132.1ZM155.139 63.695V84.7336H176.178V63.695H155.139ZM178.178 63.695V84.7336H199.216V63.695H178.178ZM201.216 63.695V84.7336H222.255V63.695H201.216ZM224.255 63.695V84.7336H245.293V63.695H224.255ZM247.293 63.695V84.7336H268.332V63.695H247.293ZM270.332 63.695V84.7336H291.371V63.695H270.332ZM291.371 271.042V292.081H270.332V271.042H291.371ZM291.371 248.004V269.042H270.332V248.004H291.371ZM291.371 224.965V246.004H270.332V224.965H291.371ZM291.371 201.927V222.965H270.332V201.927H291.371ZM291.371 178.888V199.927H270.332V178.888H291.371ZM291.371 155.849L291.371 176.888H270.332L270.332 155.849H291.371ZM291.371 132.811V153.849H270.332V132.811H291.371ZM291.371 109.772V130.811H270.332V109.772H291.371ZM291.371 86.7336V107.772H270.332V86.7336H291.371ZM62.9846 86.7336V107.772H84.0232V86.7336H62.9846ZM86.0232 86.7336V107.772H107.062V86.7336H86.0232ZM109.062 86.7336V107.772H130.1V86.7336H109.062ZM132.1 86.7336V107.772H153.139V86.7336H132.1ZM155.139 86.7336V107.772H176.178V86.7336H155.139ZM178.178 86.7336V107.772H199.216V86.7336H178.178ZM201.216 86.7336V107.772H222.255V86.7336H201.216ZM224.255 86.7336V107.772H245.293V86.7336H224.255ZM247.293 86.7336V107.772H268.332V86.7336H247.293ZM268.332 271.042V292.081H247.293V271.042H268.332ZM268.332 248.004V269.042H247.293V248.004H268.332ZM268.332 224.965V246.004H247.293V224.965H268.332ZM268.332 201.927V222.965H247.293V201.927H268.332ZM268.332 178.888V199.927H247.293V178.888H268.332ZM268.332 155.849L268.332 176.888H247.293L247.293 155.849H268.332ZM268.332 132.811V153.849H247.293V132.811H268.332ZM268.332 109.772V130.811H247.293V109.772H268.332ZM62.9845 109.772V130.811H84.0232V109.772H62.9845ZM86.0232 109.772V130.811H107.062V109.772H86.0232ZM109.062 109.772V130.811H130.1V109.772H109.062ZM132.1 109.772V130.811H153.139V109.772H132.1ZM155.139 109.772V130.811H176.178V109.772H155.139ZM178.178 109.772V130.811H199.216V109.772H178.178ZM201.216 109.772V130.811H222.255V109.772H201.216ZM224.255 109.772V130.811H245.293V109.772H224.255ZM245.293 271.042V292.081H224.255V271.042H245.293ZM245.293 248.004V269.042H224.255V248.004H245.293ZM245.293 224.965V246.004H224.255V224.965H245.293ZM245.293 201.927V222.965H224.255V201.927H245.293ZM245.293 178.888V199.927H224.255V178.888H245.293ZM245.293 155.849L245.293 176.888H224.255L224.255 155.849H245.293ZM245.293 132.811V153.849H224.255V132.811H245.293ZM62.9845 132.811V153.849H84.0232V132.811H62.9845ZM86.0232 132.811V153.849H107.062V132.811H86.0232ZM109.062 132.811V153.849H130.1V132.811H109.062ZM132.1 132.811V153.849H153.139V132.811H132.1ZM155.139 132.811V153.849H176.178V132.811H155.139ZM178.178 132.811V153.849H199.216V132.811H178.178ZM201.216 132.811V153.849H222.255V132.811H201.216ZM222.255 271.042V292.081H201.216V271.042H222.255ZM222.255 248.004V269.042H201.216V248.004H222.255ZM222.255 224.965V246.004H201.216V224.965H222.255ZM222.255 201.927V222.965H201.216V201.927H222.255ZM222.255 178.888V199.927H201.216V178.888H222.255ZM222.255 155.849L222.255 176.888H201.216V155.849H222.255ZM62.9845 155.849V176.888H84.0232V155.849H62.9845ZM86.0232 155.849V176.888H107.062V155.849H86.0232ZM109.062 155.849V176.888H130.1V155.849H109.062ZM132.1 155.849V176.888H153.139V155.849H132.1ZM155.139 155.849V176.888H176.178V155.849H155.139ZM178.178 155.849V176.888H199.216V155.849H178.178ZM199.216 271.042V292.081H178.178V271.042H199.216ZM199.216 248.004V269.042H178.178V248.004H199.216ZM199.216 224.965V246.004H178.178V224.965H199.216ZM199.216 201.927V222.965H178.178V201.927H199.216ZM199.216 178.888V199.927H178.178V178.888H199.216ZM62.9845 178.888V199.927H84.0232V178.888H62.9845ZM86.0232 178.888V199.927H107.062V178.888H86.0232ZM109.062 178.888V199.927H130.1V178.888H109.062ZM132.1 178.888V199.927H153.139V178.888H132.1ZM155.139 178.888V199.927H176.178V178.888H155.139ZM176.178 271.042V292.081H155.139V271.042H176.178ZM176.178 248.004V269.042H155.139V248.004H176.178ZM176.178 224.965V246.004H155.139V224.965H176.178ZM176.178 201.927V222.965H155.139V201.927H176.178ZM62.9845 201.927V222.965H84.0232V201.927H62.9845ZM86.0232 201.927V222.965H107.062V201.927H86.0232ZM109.062 201.927V222.965H130.1V201.927H109.062ZM132.1 201.927V222.965H153.139V201.927H132.1ZM153.139 271.042V292.081H132.1V271.042H153.139ZM153.139 248.004V269.042H132.1V248.004H153.139ZM153.139 224.965V246.004H132.1V224.965H153.139ZM62.9845 224.965V246.004H84.0232V224.965H62.9845ZM86.0232 224.965V246.004H107.062V224.965H86.0232ZM109.062 224.965V246.004H130.1V224.965H109.062ZM130.1 271.042V292.081H109.062V271.042H130.1ZM130.1 248.004V269.042H109.062V248.004H130.1ZM62.9845 248.004V269.042H84.0232V248.004H62.9845ZM86.0232 248.004V269.042H107.062V248.004H86.0232ZM107.062 271.042V292.081H86.0232V271.042H107.062ZM62.9845 271.042V292.081H84.0232V271.042H62.9845Z" fill="url(#paint0_radial_4_62)"/>
<defs>
<radialGradient id="paint0_radial_4_62" cx="0" cy="0" r="1" gradientUnits="userSpaceOnUse" gradientTransform="translate(175.5 175.5) rotate(89.8368) scale(175.501)">
<stop stop-color="#D2D5DE"/>
<stop offset="0.776045" stop-color="#D2D5DE" stop-opacity="0"/>
</radialGradient>
</defs>
</svg>
