<svg width="44" height="41" viewBox="0 0 44 41" fill="none" xmlns="http://www.w3.org/2000/svg">
<g clip-path="url(#clip0_8_1219)">
<path d="M37.9399 31.0999L37.3199 30.0999C36.7799 29.2299 36.2599 28.3399 35.6799 27.4999C35.3957 27.0848 35.2148 26.6077 35.1522 26.1085C35.0896 25.6093 35.1471 25.1024 35.3199 24.6299C35.3799 24.4099 35.4699 24.19 35.5499 23.97C35.5777 23.9064 35.5925 23.8379 35.5934 23.7685C35.5944 23.6991 35.5815 23.6302 35.5554 23.5659C35.5293 23.5016 35.4906 23.4432 35.4415 23.394C35.3925 23.3449 35.3342 23.3062 35.2699 23.28C35.2091 23.25 35.1429 23.2327 35.0752 23.2291C35.0075 23.2255 34.9399 23.2357 34.8763 23.2591C34.8127 23.2825 34.7545 23.3186 34.7053 23.3651C34.656 23.4117 34.6167 23.4678 34.5898 23.53C34.2908 24.0982 34.1142 24.7228 34.0711 25.3635C34.028 26.0042 34.1196 26.6468 34.3398 27.2499C34.383 27.3309 34.4005 27.4232 34.3898 27.5143C34.379 27.6055 34.3407 27.6912 34.2798 27.7599C33.7751 28.4909 33.0848 29.0743 32.2798 29.45C32.1498 29.03 32.0399 28.61 31.8899 28.22C31.6551 27.4665 31.2482 26.7779 30.7015 26.2086C30.1548 25.6394 29.4833 25.205 28.7399 24.9399C27.8091 24.6521 26.8184 24.6176 25.8699 24.84C25.8009 24.8498 25.7346 24.873 25.6746 24.9085C25.6147 24.944 25.5623 24.9909 25.5205 25.0466C25.4787 25.1024 25.4483 25.1658 25.431 25.2333C25.4138 25.3008 25.41 25.371 25.4199 25.4399C25.4314 25.5146 25.4585 25.586 25.4993 25.6495C25.5402 25.7131 25.594 25.7673 25.6571 25.8088C25.7203 25.8502 25.7914 25.878 25.866 25.8903C25.9405 25.9025 26.0167 25.899 26.0898 25.8799C26.7497 25.7452 27.43 25.7452 28.0898 25.8799C28.576 25.9833 29.0349 26.1882 29.4364 26.4811C29.8379 26.7741 30.1731 27.1485 30.4199 27.58C31.0223 28.5385 31.3412 29.6479 31.3398 30.78C31.3398 31.96 31.3398 33.1399 31.3398 34.3199C31.3398 34.7699 31.4399 34.91 31.8799 35.02C32.7299 35.24 33.5799 35.4399 34.4299 35.6699C34.7586 35.7506 35.0506 35.9394 35.2592 36.206C35.4677 36.4726 35.5807 36.8015 35.5799 37.14H30.9499C30.4499 37.14 30.2699 36.96 30.2699 36.45C30.2699 35.32 30.2699 34.1799 30.2699 33.0499C30.2699 32.7599 30.2699 32.5099 29.9399 32.3799C29.6099 32.2499 29.4299 32.3799 29.2299 32.6099C28.7189 33.2126 28.0097 33.6132 27.2299 33.7399C26.8096 33.7638 26.3899 33.6852 26.0067 33.511C25.6234 33.3369 25.2882 33.0723 25.0298 32.7399C24.9477 32.6363 24.8574 32.5393 24.7599 32.45C24.7052 32.3973 24.6393 32.3577 24.5671 32.3343C24.4949 32.3109 24.4183 32.3042 24.3431 32.3148C24.2679 32.3254 24.1961 32.353 24.1332 32.3955C24.0703 32.438 24.0178 32.4942 23.9799 32.5599C23.027 34.0728 21.5664 35.1966 19.8599 35.7299C18.258 36.3545 16.5736 36.7419 14.8599 36.8799L15.1699 36.6599C17.0295 35.459 18.7977 34.122 20.4599 32.6599C20.6699 32.4699 20.8699 32.2499 21.0599 32.0399C21.2892 31.8068 21.4693 31.5301 21.5896 31.226C21.7098 30.922 21.7678 30.5968 21.7599 30.27C21.7287 28.3256 22.1319 26.3988 22.9399 24.6299C23.4417 23.4917 24.2496 22.5151 25.2736 21.8089C26.2976 21.1027 27.4976 20.6945 28.7399 20.6299C29.7399 20.5399 30.7399 20.5399 31.7399 20.4199C33.2192 20.3016 34.6068 19.6557 35.6498 18.5999C36.1224 18.0707 36.4837 17.4518 36.7122 16.7801C36.9407 16.1084 37.0317 15.3976 36.9799 14.6899C36.955 14.1682 36.8847 13.6495 36.7699 13.14C36.7038 12.9106 36.5674 12.7077 36.3799 12.5599C35.4069 11.8791 34.6668 10.9156 34.2599 9.79993L34.1999 9.60992C34.1999 9.52992 34.1999 9.45994 34.1399 9.30994C34.4299 9.30994 34.6899 9.37994 34.9299 9.43994C35.5435 9.61352 36.1102 9.92296 36.588 10.3453C37.0658 10.7677 37.4424 11.2922 37.6899 11.8799C37.7643 12.0691 37.8802 12.2391 38.0291 12.3776C38.1779 12.516 38.3558 12.6193 38.5499 12.6799C38.9899 12.8199 39.3999 13.0099 39.8299 13.1799C40.071 13.2636 40.288 13.4047 40.4623 13.5912C40.6365 13.7776 40.7627 14.0037 40.8299 14.2499C40.9688 14.7681 41.2617 15.2319 41.6699 15.58C42.0099 15.87 42.3099 16.2 42.6699 16.52C42.7305 16.5649 42.7813 16.6219 42.819 16.6873C42.8567 16.7528 42.8805 16.8253 42.889 16.9003C42.8974 16.9754 42.8903 17.0514 42.8681 17.1236C42.8459 17.1958 42.8091 17.2626 42.7599 17.3199C42.4599 17.8099 42.4599 17.8099 41.9099 17.6599L39.1899 16.8799C38.6399 16.7299 38.3199 17.03 38.4399 17.59C38.9676 19.7911 38.6084 22.1114 37.4399 24.0499C37.1858 24.503 37.0328 25.0058 36.9913 25.5237C36.9499 26.0415 37.0211 26.5622 37.1999 27.0499C37.4141 27.6319 37.6577 28.2027 37.9299 28.7599C38.1263 29.1803 38.2999 29.6109 38.4499 30.0499C38.5057 30.257 38.4848 30.4773 38.3911 30.6702C38.2973 30.8631 38.1371 31.0157 37.9399 31.0999ZM39.3299 14.1599C39.2599 14.1599 39.1906 14.174 39.1262 14.2014C39.0617 14.2287 39.0035 14.2689 38.9549 14.3193C38.9063 14.3697 38.8685 14.4294 38.8436 14.4948C38.8186 14.5602 38.8072 14.63 38.8099 14.7C38.8151 14.8414 38.8756 14.9752 38.9785 15.0724C39.0814 15.1697 39.2183 15.2227 39.3599 15.22C39.5004 15.22 39.6352 15.1641 39.7346 15.0647C39.834 14.9653 39.8899 14.8305 39.8899 14.6899C39.8899 14.5494 39.834 14.4146 39.7346 14.3152C39.6352 14.2158 39.5004 14.1599 39.3599 14.1599H39.3299Z" stroke="#7829FA" stroke-width="0.56" stroke-miterlimit="10"/>
<path d="M31.1698 17.29V3.35999C31.1698 2.54312 30.8453 1.75974 30.2677 1.18213C29.6901 0.604517 28.9066 0.280029 28.0898 0.280029H3.3598C2.54294 0.280029 1.75956 0.604517 1.18195 1.18213C0.604334 1.75974 0.279785 2.54312 0.279785 3.35999V37.05C0.279785 37.8669 0.604334 38.6503 1.18195 39.2279C1.75956 39.8055 2.54294 40.13 3.3598 40.13H28.0898" stroke="#02F3A2" stroke-width="0.56" stroke-miterlimit="10" stroke-linecap="round"/>
<path d="M3.70996 5.21005H27.6V4.68005H3.70996" fill="#7829FA"/>
<path d="M3.70996 14H27.6V13.47H3.70996" fill="#7829FA"/>
<path d="M3.70996 17.56H27.6V17.02H3.70996" fill="#7829FA"/>
<path d="M3.70996 21.18H21.78V20.64H3.70996" fill="#7829FA"/>
<path d="M3.70996 27.8H14.82V27.26H3.70996" fill="#7829FA"/>
<path d="M3.70996 31.65H14.82V31.12H3.70996" fill="#7829FA"/>
</g>
<defs>
<clipPath id="clip0_8_1219">
<rect width="43.06" height="40.41" fill="white"/>
</clipPath>
</defs>
</svg>
