<svg width="57" height="71" viewBox="0 0 57 71" fill="none" xmlns="http://www.w3.org/2000/svg">
<g clip-path="url(#clip0_12_26)">
<path d="M50.2633 0.956299H6.73657C3.54253 0.956299 0.953247 3.554 0.953247 6.75843V64.2485C0.953247 67.4529 3.54253 70.0506 6.73657 70.0506H50.2633C53.4574 70.0506 56.0467 67.4529 56.0467 64.2485V6.75843C56.0467 3.554 53.4574 0.956299 50.2633 0.956299Z" stroke="#7829FA" stroke-width="2.69" stroke-miterlimit="10" stroke-linecap="round"/>
<path d="M28.4999 51.5108C37.3021 51.5108 44.4376 44.352 44.4376 35.5213C44.4376 26.6905 37.3021 19.5317 28.4999 19.5317C19.6978 19.5317 12.5623 26.6905 12.5623 35.5213C12.5623 44.352 19.6978 51.5108 28.4999 51.5108Z" stroke="#02F3A2" stroke-width="2.69" stroke-miterlimit="10" stroke-linecap="round"/>
<path d="M13.1979 31.044C13.1979 31.044 27.921 21.1825 43.7951 31.044" stroke="#02F3A2" stroke-width="2.69" stroke-miterlimit="10" stroke-linecap="round"/>
<path d="M13.1979 39.9065C13.1979 39.9065 27.921 49.768 43.7951 39.9065" stroke="#02F3A2" stroke-width="2.69" stroke-miterlimit="10" stroke-linecap="round"/>
<path d="M12.5623 35.5212H44.4306" stroke="#02F3A2" stroke-width="2.69" stroke-miterlimit="10" stroke-linecap="round"/>
<path d="M24.1078 50.8235C24.1078 50.8235 14.2783 36.0525 24.1078 20.1267" stroke="#02F3A2" stroke-width="2.69" stroke-miterlimit="10" stroke-linecap="round"/>
<path d="M32.9133 50.8235C32.9133 50.8235 42.7429 36.0525 32.9133 20.1267" stroke="#02F3A2" stroke-width="2.69" stroke-miterlimit="10" stroke-linecap="round"/>
<path d="M28.5424 51.4612V19.4893" stroke="#02F3A2" stroke-width="2.69" stroke-miterlimit="10" stroke-linecap="round"/>
</g>
<defs>
<clipPath id="clip0_12_26">
<rect width="57" height="71" fill="white"/>
</clipPath>
</defs>
</svg>
