<svg width="36" height="36" viewBox="0 0 36 36" fill="none" xmlns="http://www.w3.org/2000/svg">
<g clip-path="url(#clip0_12_22)">
<path d="M0 28.7208V27.3809C0.0242775 27.2802 0.0520168 27.1796 0.0693578 27.0789C0.238742 25.7377 0.912123 24.5114 1.95259 23.6494C6.01271 20.435 10.0751 17.2253 14.1399 14.0202C15.1708 13.2244 16.087 12.2899 16.8624 11.2432C19.0405 8.23714 21.2462 5.24843 23.4139 2.23541C24.1032 1.27722 25.0975 0.581987 26.2335 0.263759C26.6011 0.15268 26.9792 0.0901984 27.3538 0.00341797H28.689L29.4069 0.145734C33.3815 0.947585 36.4266 4.93949 35.8613 8.85155C35.781 9.58167 35.5485 10.2868 35.1787 10.9212C34.8088 11.5557 34.31 12.1053 33.7144 12.5345C31.5017 14.1313 29.3029 15.7489 27.1006 17.3595C27 17.4324 26.9064 17.5122 26.7884 17.606L36 25.3398L31.6543 27.1379L34.9699 30.4981L34.9179 30.5779H30.5861V34.9378L30.5064 34.9759L27.1457 31.654L25.3595 36.0104C22.8694 32.9696 20.4104 29.9635 17.9306 26.9401C17.8474 27.0373 17.785 27.1067 17.7295 27.1761C15.9711 29.4012 14.1988 31.6158 12.4578 33.8547C11.9624 34.5062 11.3242 35.0352 10.5925 35.401C9.86078 35.7669 9.05494 35.9599 8.23699 35.9652C4.6474 36.0937 1.26589 33.5354 0.284385 30.026C0.166466 29.5886 0.0936416 29.1512 0 28.7208ZM17.7121 13.6488C18.5202 14.2875 19.3387 14.9435 20.1676 15.5892C20.2607 15.6507 20.3724 15.6777 20.4832 15.6656C21.7346 15.5235 22.9946 15.8458 24.0243 16.5715C24.0636 16.6111 24.1103 16.6425 24.1618 16.6639C24.2133 16.6854 24.2685 16.6964 24.3243 16.6964C24.38 16.6964 24.4352 16.6854 24.4867 16.6639C24.5382 16.6425 24.585 16.6111 24.6243 16.5715C27.2116 14.6693 29.7954 12.7532 32.4 10.8961C32.8428 10.5855 33.2046 10.1731 33.455 9.69349C33.7055 9.21388 33.8373 8.68111 33.8393 8.13995C33.867 7.43405 33.7551 6.72962 33.5099 6.06718C33.2646 5.40473 32.891 4.79735 32.4104 4.27996C31.0647 2.73526 29.4035 1.87093 27.2913 2.19723C26.9042 2.2331 26.5283 2.34692 26.1862 2.53184C25.8441 2.71675 25.5428 2.96896 25.3006 3.2733C22.741 6.73411 20.2092 10.2123 17.7121 13.6453V13.6488ZM7.03699 22.3268C10.585 23.2293 12.7595 25.4231 13.6578 28.9464L17.1433 24.5241C17.0948 24.4581 17.0636 24.4096 17.0254 24.3679C16.5584 23.8238 16.2056 23.1912 15.9881 22.5078C15.7707 21.8243 15.6929 21.104 15.7595 20.3899C15.756 20.2355 15.6926 20.0886 15.5827 19.9803C14.756 19.1976 13.7949 18.5708 12.7457 18.1301C12.6663 18.0854 12.5745 18.068 12.4842 18.0805C12.394 18.0931 12.3104 18.1349 12.2462 18.1995C11.4555 18.8417 10.6543 19.4665 9.85318 20.0983L7.03699 22.3268ZM4.60231 29.8594L9.02427 25.4544C8.03399 24.6891 6.80618 24.2971 5.55607 24.3471C4.65116 24.3749 3.79086 24.7469 3.15037 25.3873C2.50988 26.0277 2.13736 26.8883 2.10867 27.794C2.01156 30.571 4.25202 33.3132 7.01272 33.7749C7.50998 33.8357 8.01008 33.8705 8.51097 33.879V33.7784L4.60231 29.8594ZM17.8717 20.9071C17.8731 21.5321 18.0597 22.1427 18.4079 22.6616C18.7562 23.1804 19.2504 23.5842 19.828 23.8218C20.4056 24.0594 21.0407 24.1201 21.6528 23.9964C22.265 23.8726 22.8266 23.5698 23.2668 23.1264C23.7069 22.6829 24.0057 22.1188 24.1253 21.5053C24.245 20.8918 24.1801 20.2566 23.9389 19.6801C23.6977 19.1035 23.291 18.6116 22.7703 18.2665C22.2496 17.9213 21.6384 17.7386 21.0139 17.7413C20.5987 17.7409 20.1875 17.8225 19.8039 17.9815C19.4204 18.1405 19.072 18.3738 18.7787 18.668C18.4855 18.9621 18.2532 19.3113 18.0951 19.6956C17.9371 20.0798 17.8564 20.4916 17.8578 20.9071H17.8717ZM7.67861 29.8385L10.6058 32.7787C12.2636 31.2027 11.6913 28.3737 10.5364 26.9783L7.67861 29.8385ZM25.4636 24.0659L24.1144 25.4266L28.5052 29.7622V28.4535H29.9826L25.4636 24.0659ZM20.0116 26.1278L24.7665 31.9352C25.0197 31.3207 25.2416 30.7584 25.4844 30.1995C25.5221 30.1292 25.5344 30.0479 25.5193 29.9695C25.5041 29.8911 25.4624 29.8203 25.4011 29.7691C24.2393 28.6097 23.0879 27.4434 21.9329 26.2979C21.868 26.2184 21.7771 26.1643 21.6763 26.1452C21.1249 26.1209 20.5942 26.1278 19.9977 26.1278H20.0116ZM26.2543 19.8796C26.2543 20.4211 26.2543 20.921 26.2543 21.4451C26.2533 21.5569 26.2899 21.6657 26.3584 21.7541C27.5353 22.962 28.7179 24.1619 29.9064 25.3537C29.9408 25.3886 29.9828 25.4152 30.0291 25.4315C30.0753 25.4477 30.1247 25.4532 30.1734 25.4474C30.7665 25.2183 31.3526 24.9684 31.9942 24.7011L26.2543 19.8796ZM18 16.4084C17.4243 16.0613 16.7827 15.6864 16.1376 15.3184C16.0986 15.2997 16.0559 15.2899 16.0127 15.2899C15.9695 15.2899 15.9268 15.2997 15.8879 15.3184C15.3919 15.7003 14.8994 16.0925 14.4069 16.4848L16.4324 17.8385L18 16.4084Z" fill="#7829FA"/>
<path d="M17.8578 20.9072C17.8578 20.282 18.0432 19.6709 18.3904 19.1512C18.7377 18.6315 19.2312 18.2266 19.8085 17.9879C20.3858 17.7491 21.0209 17.6871 21.6334 17.8099C22.2459 17.9326 22.8083 18.2345 23.2492 18.6773C23.6902 19.1201 23.9899 19.6839 24.1105 20.2974C24.2311 20.9108 24.1672 21.5463 23.9267 22.1233C23.6862 22.7003 23.2801 23.1929 22.7597 23.5387C22.2393 23.8846 21.6281 24.0681 21.0035 24.066C20.1685 24.0623 19.3689 23.728 18.7795 23.1361C18.1901 22.5442 17.8587 21.7429 17.8578 20.9072ZM19.5919 20.869L21.0139 22.2957L22.4011 20.9072L20.9757 19.4805L19.5919 20.869Z" fill="#01F3A2"/>
<path d="M19.6093 20.869L20.9965 19.4805L22.422 20.9071L21.0347 22.2956L19.6093 20.869Z" fill="#7829FA"/>
</g>
<defs>
<clipPath id="clip0_12_22">
<rect width="36" height="36" fill="white"/>
</clipPath>
</defs>
</svg>
