<svg width="38" height="72" viewBox="0 0 38 72" fill="none" xmlns="http://www.w3.org/2000/svg">
<g clip-path="url(#clip0_42_31)">
<path d="M35.0518 0C35.331 0.188354 35.5437 0.46095 35.6594 0.778651C35.775 1.09635 35.7876 1.4428 35.6955 1.76819C34.9962 6.96877 34.3367 12.1693 33.6612 17.3699C32.9858 22.5705 32.3103 27.7711 31.6428 32.9717C31.2852 35.684 30.9356 38.4043 30.5859 41.1166C30.5859 41.3006 30.5382 41.4926 30.4984 41.6766C30.49 41.8319 30.4496 41.9837 30.3797 42.1224C30.3098 42.2611 30.212 42.3836 30.0925 42.4821C29.973 42.5807 29.8344 42.6531 29.6856 42.6947C29.5367 42.7364 29.381 42.7464 29.2281 42.7241C29.0752 42.7018 28.9286 42.6476 28.7977 42.5652C28.6667 42.4827 28.5542 42.3737 28.4674 42.245C28.3806 42.1164 28.3214 41.971 28.2935 41.818C28.2656 41.665 28.2696 41.5079 28.3053 41.3566C28.4722 39.9644 28.6549 38.5723 28.8377 37.1801L31.007 20.4583L33.0334 4.79252C33.1049 4.25646 33.1685 3.7284 33.248 3.08833C28.7984 5.28059 24.1284 6.98653 19.3178 8.17691C14.5122 9.34207 9.59794 9.99374 4.65657 10.1211C6.77563 24.016 8.89473 37.8842 11.0138 51.7257H26.9623C27.2007 49.8775 27.4312 48.0533 27.6696 46.2211C27.7729 45.421 28.2497 44.981 28.8774 45.029C29.0226 45.0382 29.1645 45.0761 29.295 45.1406C29.4256 45.2051 29.5422 45.295 29.6382 45.405C29.7342 45.515 29.8076 45.643 29.8543 45.7817C29.9011 45.9204 29.9201 46.067 29.9104 46.2131C29.9222 46.3783 29.9222 46.5441 29.9104 46.7092L29.2907 51.4457C29.2907 51.5097 29.2907 51.5817 29.2907 51.7657C29.8821 51.6701 30.4874 51.7105 31.0613 51.8836C31.6351 52.0568 32.1626 52.3584 32.6043 52.7658C33.0115 53.2386 33.3075 53.7979 33.4698 54.402C33.6322 55.006 33.6569 55.6392 33.542 56.2542C33.987 56.2542 34.3367 56.2542 34.7578 56.2542C35.6181 56.2645 36.4405 56.6121 37.0503 57.2231C37.6601 57.8342 38.0094 58.6605 38.0238 59.5266C38.0238 63.255 38.0238 66.9834 38.0238 70.7279C38.0238 71.656 37.5788 72.024 36.514 72.024H1.39059C0.43701 72.024 0.0396766 71.6159 0.0396766 70.6478C0.0396766 67.0634 0.0396766 63.447 0.0396766 59.8946C0.0056932 59.4123 0.0747535 58.9282 0.242218 58.4751C0.409683 58.0219 0.671688 57.6101 1.01053 57.2674C1.34937 56.9247 1.7572 56.6591 2.20657 56.4885C2.65594 56.3179 3.13639 56.2462 3.61559 56.2782H4.49763C4.49763 54.9981 4.49767 53.79 5.43536 52.8299C5.87705 52.4107 6.40821 52.0991 6.98813 51.9188C7.56805 51.7385 8.18129 51.6943 8.78079 51.7897C8.54239 50.1896 8.31194 48.6294 8.0815 47.0932C7.12262 40.8419 6.16641 34.5958 5.21283 28.3552L2.35213 9.60905C2.16141 8.39292 2.55079 7.91288 3.79043 7.90488C14.2745 7.82021 24.5867 5.21422 33.8678 0.304038C34.0038 0.222631 34.1339 0.13171 34.2572 0.031986L35.0518 0ZM35.7511 69.7197V60.1187C35.7511 58.8305 35.4253 58.5185 34.1618 58.5185H15.0903C14.8603 58.5387 14.629 58.5387 14.399 58.5185C14.1264 58.498 13.8724 58.3711 13.6914 58.1648C13.5103 57.9586 13.4163 57.6893 13.4295 57.4144C13.4141 57.1402 13.5063 56.8709 13.6861 56.6644C13.8659 56.4579 14.1191 56.3308 14.391 56.3103C14.6209 56.2862 14.8526 56.2862 15.0824 56.3103H31.2455C31.4044 54.342 31.158 54.062 29.3224 54.062H8.02586C7.8813 54.038 7.73345 54.043 7.59081 54.0767C7.44816 54.1104 7.31357 54.1722 7.1947 54.2584C7.07582 54.3447 6.97502 54.4537 6.89811 54.5793C6.8212 54.7048 6.76966 54.8444 6.7465 54.9901C6.70635 55.4292 6.70635 55.8711 6.7465 56.3103H9.76614C10.68 56.3103 11.2124 56.7503 11.1886 57.4704C11.1648 58.1905 10.6561 58.5585 9.76614 58.5585H3.68713C2.63819 58.5585 2.25677 58.9345 2.25677 59.9907V69.2717C2.25677 69.4317 2.25677 69.5837 2.25677 69.7757L35.7511 69.7197Z" fill="#7829FA"/>
<path d="M14.0891 26.1389C14.2719 25.0828 14.4943 23.9226 14.6533 22.7625C14.6646 22.6183 14.6472 22.4733 14.6021 22.3359C14.5571 22.1985 14.4854 22.0715 14.3911 21.9624C13.66 21.1623 12.8892 20.4423 12.1104 19.7062C11.9345 19.5713 11.8032 19.3861 11.7337 19.1748C11.6642 18.9635 11.6598 18.7359 11.721 18.522C11.7913 18.3111 11.926 18.128 12.1058 17.9987C12.2856 17.8694 12.5013 17.8005 12.7222 17.802C13.7712 17.658 14.828 17.5219 15.9008 17.3299C16.1865 17.2565 16.4337 17.0762 16.5922 16.8259C17.0848 15.9298 17.522 14.9936 17.959 14.0655C18.0254 13.8361 18.1639 13.6345 18.3537 13.491C18.5436 13.3476 18.7745 13.27 19.0119 13.27C19.2493 13.27 19.4802 13.3476 19.6701 13.491C19.8599 13.6345 19.9984 13.8361 20.0648 14.0655C20.5018 14.9936 20.931 15.9298 21.4316 16.8259C21.5993 17.093 21.8648 17.2827 22.1706 17.3539C23.2354 17.5539 24.3241 17.6499 25.3492 17.874C25.5322 17.9137 25.7041 17.9939 25.8525 18.1088C26.0009 18.2236 26.1222 18.3702 26.2075 18.538C26.2373 18.7349 26.2251 18.936 26.1717 19.1278C26.1182 19.3196 26.0248 19.4977 25.8975 19.6502C25.1665 20.4503 24.3082 21.2503 23.5136 22.0504C23.426 22.1534 23.3599 22.273 23.3189 22.4022C23.278 22.5314 23.2631 22.6675 23.2752 22.8025C23.4261 23.8666 23.6328 24.9148 23.8076 26.0029C23.8754 26.2145 23.879 26.4416 23.8182 26.6553C23.7573 26.869 23.6347 27.0597 23.4659 27.203C23.2792 27.3408 23.0538 27.4151 22.8223 27.4151C22.5908 27.4151 22.3652 27.3408 22.1785 27.203C21.2568 26.707 20.327 26.2429 19.4132 25.7309C19.2762 25.6407 19.116 25.5926 18.9523 25.5926C18.7886 25.5926 18.6284 25.6407 18.4914 25.7309C17.5299 26.2749 16.5445 26.787 15.5592 27.283C15.3864 27.3807 15.1889 27.4249 14.9913 27.4103C14.7937 27.3957 14.6048 27.3229 14.448 27.2009C14.2912 27.0789 14.1736 26.9131 14.1098 26.7243C14.0459 26.5354 14.0388 26.3318 14.0891 26.1389ZM18.992 16.4898C18.6503 17.1699 18.3563 17.698 18.1259 18.258C18.0227 18.5452 17.8351 18.7939 17.5881 18.9711C17.3411 19.1483 17.0464 19.2456 16.7432 19.2501C16.1393 19.2981 15.5432 19.4262 14.8996 19.5302C15.424 20.0742 15.8691 20.5703 16.3538 21.0343C16.5367 21.1896 16.673 21.3932 16.7474 21.6221C16.8218 21.8511 16.8314 22.0964 16.775 22.3305C16.632 22.9945 16.5525 23.6746 16.4333 24.4507C17.1405 24.0827 17.7285 23.7866 18.3086 23.4586C18.5141 23.3312 18.7507 23.2637 18.992 23.2637C19.2333 23.2637 19.4699 23.3312 19.6754 23.4586C20.2555 23.7786 20.8516 24.0827 21.5508 24.4507C21.483 23.8778 21.3847 23.3089 21.2567 22.7465C21.1341 22.3872 21.1314 21.9973 21.2491 21.6363C21.3667 21.2752 21.5982 20.9627 21.9084 20.7463C22.3469 20.3624 22.7659 19.9565 23.1639 19.5302C22.3693 19.4102 21.7335 19.3141 21.0899 19.2341C20.8415 19.2236 20.6011 19.143 20.3959 19.0015C20.1908 18.8601 20.0293 18.6634 19.9297 18.434C19.6596 17.802 19.3496 17.2099 18.992 16.4898Z" fill="#05F2A3"/>
<path d="M18.9921 33.7478H24.2844C25.1665 33.7478 25.6751 34.1719 25.6751 34.8759C25.6751 35.58 25.1586 35.9961 24.2844 35.9961H13.668C12.7859 35.9961 12.2773 35.572 12.2773 34.8759C12.2773 34.1799 12.7859 33.7558 13.668 33.7478H18.9921Z" fill="#7829FA"/>
<path d="M19.0636 38.2522H22.1309C22.9256 38.2522 23.4579 38.6922 23.4579 39.3723C23.4579 40.0524 22.9494 40.4924 22.1309 40.4924H15.8532C15.0586 40.4924 14.5261 40.0524 14.5261 39.3723C14.5261 38.6922 15.0268 38.2602 15.8532 38.2522H19.0636Z" fill="#7829FA"/>
</g>
<defs>
<clipPath id="clip0_42_31">
<rect width="38" height="72" fill="white"/>
</clipPath>
</defs>
</svg>
