<svg width="49" height="52" viewBox="0 0 49 52" fill="none" xmlns="http://www.w3.org/2000/svg">
<g clip-path="url(#clip0_12_35)">
<path d="M43.8626 9.7284V8.20702C45.0587 8.20702 46.3027 8.1161 47.5048 8.23732C47.9217 8.31605 48.2976 8.54188 48.5658 8.87474C48.8341 9.20761 48.9773 9.62601 48.9701 10.0557C48.985 10.3505 48.985 10.6459 48.9701 10.9407V35.1374C48.9701 36.9195 48.9701 38.7075 48.9701 40.4896C48.9701 42.0534 48.1507 42.8535 46.6077 42.8535H27.8522C28.1452 44.0657 28.4144 45.2053 28.7254 46.3448C28.7254 46.4418 29.0484 46.5145 29.2218 46.5266C29.9988 46.5273 30.7753 46.5677 31.5483 46.6479C32.5117 46.8188 33.3949 47.3006 34.0663 48.0215C34.7377 48.7423 35.1614 49.6637 35.2743 50.6483C35.3999 51.6848 35.1188 52.0121 34.0781 52.0121H16.4231C15.825 52.0121 15.2628 52.0121 14.6886 52.0121C13.9351 52.0121 13.6899 51.7091 13.7198 50.9514C13.7829 49.7774 14.2814 48.671 15.1155 47.8538C15.9495 47.0366 17.0574 46.5691 18.2173 46.5448C18.8811 46.5448 19.551 46.5448 20.2627 46.5448L21.1538 42.8656H2.488C0.777513 42.8656 0 42.0837 0 40.3441V10.6437C0 8.9465 0.771522 8.15853 2.44014 8.15247C3.19969 8.15247 3.95924 8.15247 4.71281 8.15247C5.3647 8.15247 5.20323 8.61312 5.20323 8.95255C5.20323 9.29199 5.38266 9.7769 4.72478 9.76478C3.92336 9.76478 3.12195 9.76478 2.33249 9.76478C1.83609 9.76478 1.59089 9.94661 1.59089 10.48C1.59089 18.8163 1.59089 27.1527 1.59089 35.489C1.60159 35.5489 1.61758 35.6077 1.63871 35.6648H47.4091C47.4091 35.4284 47.4091 35.192 47.4091 34.9495V10.777C47.4091 9.78902 47.3493 9.7284 46.3924 9.7284H43.8626ZM1.5849 37.3074V40.0774C1.5849 41.229 1.58488 41.229 2.68534 41.229H46.3446C46.5423 41.2657 46.7449 41.2657 46.9426 41.229C47.122 41.1563 47.3852 40.9745 47.3912 40.829C47.4271 39.6713 47.3912 38.5075 47.3912 37.3316L1.5849 37.3074ZM33.5399 50.3574C33.402 49.7391 33.065 49.1849 32.5821 48.7821C32.0991 48.3794 31.4976 48.1509 30.8724 48.1329C26.6182 48.1086 22.3659 48.1086 18.1156 48.1329C17.4937 48.1484 16.8952 48.3766 16.4174 48.7805C15.9397 49.1843 15.6107 49.7401 15.4841 50.3574H33.5399ZM27.0747 46.4903C26.7996 45.3204 26.5484 44.2233 26.2554 43.1384C26.2044 43.0533 26.1335 42.9822 26.049 42.9315C25.9645 42.8808 25.869 42.8519 25.7709 42.8474C24.9037 42.8171 24.0365 42.8474 23.1693 42.8474C23.0138 42.8474 22.7447 42.9747 22.7148 43.0899C22.4157 44.2052 22.1586 45.3326 21.8775 46.4963L27.0747 46.4903Z" fill="#7829FA"/>
<path d="M8.57056 13.9713V5.43091C8.57056 4.37625 8.57056 3.31552 8.57056 2.25479C8.53155 1.98177 8.59722 1.70398 8.75406 1.47851C8.91091 1.25304 9.14699 1.09703 9.41383 1.04253C14.1415 -0.613401 19.3194 -0.339496 23.8513 1.80625C24.0534 1.91352 24.2781 1.96955 24.5062 1.96955C24.7343 1.96955 24.959 1.91352 25.1611 1.80625C29.6672 -0.31918 34.8085 -0.601423 39.5148 1.01828C39.7864 1.07003 40.0288 1.22345 40.1939 1.44805C40.359 1.67265 40.4347 1.95199 40.4059 2.23054C40.4059 9.17681 40.4059 16.1251 40.4059 23.0754C40.4059 24.0028 39.9932 24.2877 39.1141 24.0028C36.8109 23.2006 34.3706 22.882 31.942 23.0664C29.5133 23.2509 27.1472 23.9345 24.9876 25.0756C24.8327 25.143 24.6658 25.1777 24.4972 25.1777C24.3286 25.1777 24.1617 25.143 24.0068 25.0756C21.8477 23.9335 19.4817 23.2488 17.0531 23.0633C14.6244 22.8779 12.184 23.1954 9.88034 23.9967C8.98323 24.2877 8.57056 23.9967 8.56457 23.0087C8.56457 20.0205 8.57056 16.9959 8.57056 13.9713ZM38.8449 22.2571V21.3722C38.8449 15.2745 38.8449 9.17479 38.8449 3.07306C38.8566 2.98452 38.8501 2.89449 38.8258 2.80861C38.8016 2.72273 38.7601 2.64286 38.7039 2.57401C38.6478 2.50515 38.5782 2.44879 38.4995 2.40846C38.4209 2.36813 38.3349 2.34471 38.2469 2.33965C34.1749 1.15012 29.8199 1.45052 25.9445 3.18823C25.7262 3.2539 25.5378 3.39589 25.413 3.58898C25.2882 3.78208 25.2349 4.01378 25.2627 4.2429C25.2627 10.3042 25.2627 16.3655 25.2627 22.4268V23.1906C29.5382 21.2593 34.3513 20.9285 38.8449 22.2571ZM10.1375 22.2571C14.6063 20.9347 19.3919 21.2501 23.6539 23.1481C23.6539 22.9542 23.6898 22.8633 23.6898 22.7723C23.6898 16.5171 23.6898 10.2537 23.6898 3.98226C23.7024 3.81601 23.6573 3.65051 23.5623 3.51438C23.4673 3.37825 23.3284 3.28004 23.1695 3.23672C19.2819 1.43841 14.8913 1.09479 10.7774 2.26691C10.6764 2.27641 10.5783 2.30683 10.4894 2.35629C10.4004 2.40575 10.3224 2.47318 10.2601 2.55444C10.1979 2.63569 10.1528 2.72902 10.1276 2.82865C10.1024 2.92829 10.0976 3.03211 10.1136 3.13368C10.1136 9.25561 10.1136 15.3775 10.1136 21.4995L10.1375 22.2571Z" fill="#05F2A3"/>
<path d="M23.881 38.3742C24.186 38.3742 24.4791 38.3742 24.808 38.3742C24.9089 38.3684 25.0098 38.3836 25.1047 38.4188C25.1996 38.4539 25.2863 38.5084 25.3597 38.5788C25.4331 38.6491 25.4915 38.734 25.5313 38.828C25.5712 38.9221 25.5917 39.0234 25.5915 39.1258C25.6042 39.2276 25.5954 39.3311 25.5658 39.4292C25.5362 39.5274 25.4865 39.6181 25.4198 39.6954C25.3531 39.7727 25.2711 39.8348 25.1791 39.8777C25.087 39.9205 24.9871 39.9432 24.8858 39.9441C24.2008 39.9926 23.5134 39.9926 22.8284 39.9441C22.7264 39.9465 22.6253 39.925 22.5329 39.881C22.4406 39.837 22.3596 39.7719 22.2964 39.6908C22.2332 39.6097 22.1894 39.5147 22.1686 39.4135C22.1478 39.3123 22.1505 39.2076 22.1765 39.1076C22.3167 38.7864 22.5738 38.5323 22.8942 38.3984C23.2189 38.329 23.5534 38.3208 23.881 38.3742Z" fill="#7829FA"/>
<path d="M20.2031 7.10991L19.4615 6.90989C17.8025 6.37823 16.0472 6.22912 14.324 6.47347C14.1926 6.48252 14.0607 6.48252 13.9293 6.47347C13.8292 6.4879 13.7273 6.48111 13.6299 6.45351C13.5326 6.42591 13.4419 6.37811 13.3638 6.31314C13.2856 6.24818 13.2216 6.16746 13.1759 6.07611C13.1301 5.98476 13.1036 5.88477 13.098 5.78248C13.0773 5.68144 13.0781 5.57709 13.1002 5.47637C13.1224 5.37565 13.1654 5.28087 13.2265 5.19832C13.2876 5.11576 13.3654 5.04732 13.4546 4.99755C13.5438 4.94778 13.6424 4.91782 13.7439 4.90965C15.9514 4.52449 18.2199 4.7335 20.3227 5.51578C20.4683 5.61182 20.5882 5.74288 20.6717 5.8973C20.7551 6.05171 20.7996 6.22467 20.8011 6.40074C20.7712 6.67956 20.3825 6.90989 20.2031 7.10991Z" fill="#05F2A3"/>
<path d="M15.8609 14.3107L14.0667 14.4865C13.5284 14.535 13.1157 14.3714 13.0679 13.7713C13.02 13.1712 13.3669 12.9651 13.8693 12.8924C15.9433 12.5867 18.0589 12.7671 20.0534 13.4197C20.5557 13.5834 20.9026 13.8501 20.771 14.4441C20.6574 14.9411 20.2148 15.0866 19.5749 14.9472C18.3429 14.6805 17.1049 14.4502 15.8669 14.2016L15.8609 14.3107Z" fill="#05F2A3"/>
<path d="M20.1191 19.0871C19.5987 18.9355 19.2638 18.8325 18.9229 18.7416C17.3625 18.3264 15.7366 18.2275 14.1384 18.4506C13.6001 18.5234 13.1157 18.4506 13.0319 17.8021C12.9482 17.1535 13.3788 16.9474 13.9231 16.8747C16.0206 16.583 18.1563 16.7905 20.1609 17.4808C20.6035 17.6263 20.8786 17.9536 20.7231 18.39C20.6454 18.6749 20.3045 18.8871 20.1191 19.0871Z" fill="#05F2A3"/>
<path d="M15.9085 8.60101C17.29 8.87377 18.6836 9.13441 20.0651 9.43142C20.5735 9.54052 20.9203 9.85571 20.8007 10.4376C20.6811 11.0195 20.2027 11.1528 19.6046 10.9528C17.8207 10.3778 15.9327 10.2142 14.0784 10.474C13.576 10.5467 13.1693 10.4134 13.0856 9.86783C13.0019 9.32232 13.3188 8.98894 13.8691 8.92833L15.8606 8.74649L15.9085 8.60101Z" fill="#05F2A3"/>
</g>
<defs>
<clipPath id="clip0_12_35">
<rect width="49" height="52" fill="white"/>
</clipPath>
</defs>
</svg>
