<svg width="36" height="36" viewBox="0 0 36 36" fill="none" xmlns="http://www.w3.org/2000/svg">
<path d="M12.1475 13.2598C11.5745 13.2598 11.1055 13.0915 10.7402 12.7549C10.375 12.4111 10.1924 11.9922 10.1924 11.498C10.1924 10.9896 10.375 10.5742 10.7402 10.252C11.1055 9.92969 11.5745 9.76855 12.1475 9.76855C12.7275 9.76855 13.1966 9.92969 13.5547 10.252C13.9199 10.5742 14.1025 10.9896 14.1025 11.498C14.1025 12.0137 13.9199 12.4362 13.5547 12.7656C13.1966 13.0951 12.7275 13.2598 12.1475 13.2598ZM13.8232 26H10.4287V15H13.8232V26ZM27.3047 26H23.9209V19.8877C23.9209 18.1833 23.3122 17.3311 22.0947 17.3311C21.5075 17.3311 21.0241 17.5566 20.6445 18.0078C20.265 18.459 20.0752 19.0319 20.0752 19.7266V26H16.6807V15H20.0752V16.7402H20.1182C20.9274 15.401 22.1055 14.7314 23.6523 14.7314C26.0872 14.7314 27.3047 16.2425 27.3047 19.2646V26Z" fill="#556072"/>
<circle cx="18" cy="18" r="17.5" stroke="#556072"/>
</svg>
