<svg width="55" height="44" viewBox="0 0 55 44" fill="none" xmlns="http://www.w3.org/2000/svg">
<g clip-path="url(#clip0_6_1139)">
<path d="M22.6948 6.98592L27.2564 4.36548L32.3406 6.98592C32.3406 6.98592 33.2791 14.6448 27.3395 16.36C27.3395 16.36 21.7742 14.4423 22.6948 6.98592Z" fill="#02F3A2"/>
<path d="M45.9245 32.9642L54.3764 22.6193L48.128 10.1185L27.1853 0.577637L6.24843 10.1185L0.611816 22.0357L8.93903 32.9642" stroke="#7829FA" stroke-width="1.77" stroke-miterlimit="10"/>
<path d="M27.506 43.47C38.6328 43.47 47.6529 40.8836 47.6529 37.6931C47.6529 34.5026 38.6328 31.9161 27.506 31.9161C16.3792 31.9161 7.35913 34.5026 7.35913 37.6931C7.35913 40.8836 16.3792 43.47 27.506 43.47Z" stroke="#7829FA" stroke-width="1.77" stroke-miterlimit="10"/>
<path d="M8.97473 35.4239C8.9227 34.4202 9.12714 33.4198 9.56869 32.5176C10.7566 29.9626 14.2312 26.5977 24.1383 26.2701C40.2998 25.7341 47.0352 30.308 46.0255 35.4239" stroke="#7829FA" stroke-width="1.77" stroke-miterlimit="10"/>
<path d="M9.58056 32.5176C9.58056 32.5176 6.91372 27.9974 10.5665 25.3233C14.2193 22.6492 22.9683 20.0942 30.7253 20.8685C38.4823 21.6427 49.1734 23.3758 45.8651 32.8631" stroke="#7829FA" stroke-width="1.77" stroke-miterlimit="10"/>
</g>
<defs>
<clipPath id="clip0_6_1139">
<rect width="55" height="44" fill="white"/>
</clipPath>
</defs>
</svg>
