<svg width="42" height="41" viewBox="0 0 42 41" fill="none" xmlns="http://www.w3.org/2000/svg">
<g clip-path="url(#clip0_54_167)">
<path d="M-0.000221716 27.7951C0.165582 27.0103 0.254011 26.2145 0.486137 25.4408C1.89363 20.7505 6.29665 17.464 11.1934 17.4677C16.6428 17.4714 21.348 21.3621 22.2802 26.7266C23.3524 32.9054 19.3325 38.4946 13.5073 39.6883C8.4521 40.7273 3.43376 38.2625 1.14198 33.6275C0.574566 32.4816 0.213481 31.2695 0.0771535 29.991C0.0624154 29.8584 0.02557 29.7294 -0.00390625 29.5968C-0.00390625 28.9962 -0.00390625 28.392 -0.00390625 27.7914L-0.000221716 27.7951ZM1.10145 26.0892C0.685102 27.3861 0.637203 29.6668 0.968811 30.8826C1.00566 31.0226 1.08303 31.0853 1.18988 31.1516C1.92311 31.6048 2.67843 32.0137 3.48166 32.3269C6.99302 33.7012 10.6075 33.8191 14.281 33.2148C14.5353 33.1743 14.5574 33.0896 14.4763 32.8648C13.9126 31.2916 13.0799 29.8805 11.9708 28.6278C11.7719 28.4067 11.5876 28.3551 11.2966 28.4104C8.96425 28.8525 6.67984 28.672 4.44333 27.8688C3.25322 27.4414 2.15523 26.8445 1.10514 26.0855L1.10145 26.0892ZM1.35569 32.1169C1.35937 32.2127 1.35569 32.2385 1.36306 32.2606C1.38516 32.3269 1.40727 32.3895 1.43306 32.4522C2.40209 34.917 4.0454 36.7924 6.39613 38.0009C9.119 39.4009 11.9487 39.5667 14.8411 38.5499C14.9811 38.502 15.0732 38.4541 15.0916 38.2809C15.2501 36.8698 15.1506 35.4734 14.8374 34.0917C14.8006 33.9296 14.7416 33.8633 14.5574 33.9038C14.2258 33.9738 13.8868 34.0254 13.5478 34.0733C10.9134 34.4233 8.29366 34.3902 5.69238 33.7896C4.18172 33.4433 2.74844 32.898 1.34832 32.1206L1.35569 32.1169ZM17.8771 20.6437C17.855 20.5995 17.8477 20.57 17.8292 20.5552C17.7482 20.4852 17.6634 20.4116 17.575 20.3452C16.2817 19.3652 14.8411 18.7204 13.2494 18.3999C12.9693 18.3446 12.763 18.3814 12.5419 18.5694C11.5803 19.3836 10.696 20.2752 9.89644 21.2479C8.39315 23.0754 7.26199 25.0907 6.85301 27.4598C6.8088 27.7103 6.87512 27.7619 7.09988 27.7914C8.57369 27.9793 10.0401 27.9461 11.4992 27.6403C11.7055 27.5961 11.805 27.5077 11.8713 27.3235C12.5677 25.3671 13.8205 23.8086 15.3569 22.4527C16.138 21.7637 17.0002 21.1926 17.8771 20.6437ZM15.8506 38.023C15.9907 38.0782 16.0533 38.0082 16.1233 37.9714C17.5676 37.2014 18.7725 36.155 19.7452 34.836C19.8926 34.6333 19.9405 34.4381 19.9221 34.1912C19.7747 32.3085 19.3252 30.5068 18.533 28.7936C17.7113 27.0177 16.6244 25.426 15.2537 24.0296C15.1137 23.8859 15.0179 23.7644 14.8079 23.9928C13.8978 24.9913 13.1609 26.0892 12.6267 27.3345C12.424 27.8025 12.4719 28.1267 12.8146 28.5283C14.6311 30.6579 15.6259 33.1375 15.8543 35.9302C15.9133 36.634 15.8949 37.3377 15.8543 38.023H15.8506ZM11.7387 18.2156C10.7549 18.1678 9.82643 18.2378 8.92372 18.4625C5.30182 19.3652 2.78897 21.5537 1.39622 25.0244C1.30779 25.2418 1.34832 25.3523 1.53623 25.4887C2.82213 26.4245 4.22594 27.0987 5.7587 27.5114C6.03873 27.5888 6.1161 27.5114 6.15663 27.2498C6.2598 26.5608 6.4514 25.8903 6.69826 25.2381C7.67835 22.6517 9.3106 20.5221 11.3297 18.6651C11.466 18.5399 11.6392 18.4478 11.7387 18.2156ZM20.6111 33.2959C21.2522 32.069 21.5948 30.7758 21.6796 29.4089C21.8712 26.2882 20.8506 23.617 18.7172 21.3511C18.5588 21.1853 18.4519 21.1521 18.2419 21.2811C17.3981 21.7895 16.6023 22.3643 15.8396 22.9869C15.5632 23.2154 15.589 23.3296 15.8249 23.5728C17.7777 25.5697 19.1667 27.9093 19.9921 30.5805C20.2647 31.4684 20.4379 32.3785 20.6074 33.2922L20.6111 33.2959Z" fill="#02F3A2"/>
<path d="M41.9961 5.89874C41.9961 4.92606 41.3845 4.21497 40.4818 4.10812C39.6233 4.00496 38.8606 4.57604 38.6505 5.50819C38.61 5.6961 38.5474 5.75873 38.3668 5.75505C38.3042 5.75505 38.2416 5.75505 38.1789 5.75505C37.7073 5.75137 37.2357 5.75137 36.7677 5.75505C36.5798 5.75505 36.5098 5.68505 36.473 5.50451C36.2814 4.62762 35.7656 3.94969 35.1097 3.36756C33.9417 2.33224 32.549 1.71326 31.0899 1.22324C28.9123 0.493727 26.6648 0.154762 24.3767 0.0405456C20.9095 -0.132621 17.4976 0.173184 14.1926 1.29693C12.6967 1.80537 11.2818 2.47593 10.1286 3.59968C8.80582 4.88553 8.57001 6.48825 9.52799 7.93253C10.0365 8.6952 10.7402 9.2626 11.5213 9.73052C13.8315 11.1085 16.3886 11.7127 19.0194 12.0333C21.8675 12.3833 24.7193 12.3391 27.5564 11.8785C29.7119 11.5285 31.8047 10.9758 33.7133 9.87421C35.0065 9.12996 36.1377 8.22728 36.4951 6.6651C36.5393 6.46614 36.6756 6.49193 36.8083 6.49193C37.2467 6.49193 37.6852 6.5214 38.12 6.48088C38.1421 6.48088 38.1605 6.48088 38.1826 6.47719C38.5474 6.45877 38.6395 6.60246 38.6395 6.99669C38.6248 14.9255 38.6284 22.8543 38.6284 30.7795C38.6284 33.9776 38.6284 37.1756 38.6284 40.3737C38.6284 40.9153 38.7058 40.9926 39.2401 40.9963C39.9254 40.9963 40.607 40.9963 41.2924 40.9963C41.9371 40.9963 41.9998 40.9337 41.9998 40.3V23.1602C41.9998 17.4051 41.9998 11.6501 41.9998 5.89506L41.9961 5.89874ZM34.7228 8.24202C33.6175 9.24786 32.2947 9.84842 30.902 10.3163C28.2602 11.2006 25.5262 11.5027 22.6412 11.5285C19.6347 11.4917 16.5691 11.1343 13.6473 9.96632C12.4351 9.47998 11.2892 8.87574 10.416 7.86621C9.42114 6.72036 9.43219 5.50819 10.4307 4.36603C11.3003 3.37493 12.4351 2.77805 13.6289 2.28803C15.7475 1.4222 17.9729 1.01323 20.2389 0.825323C23.1534 0.585837 26.0531 0.733213 28.916 1.38167C30.7767 1.80169 32.5711 2.39488 34.1444 3.52599C34.7486 3.96443 35.2792 4.47656 35.5961 5.16555C36.0714 6.20086 35.7435 7.30987 34.7302 8.23833L34.7228 8.24202ZM40.7728 40.2668C40.4633 40.2337 40.1428 40.2373 39.8333 40.2668C39.4722 40.3 39.3432 40.2005 39.3543 39.81C39.3801 38.5131 39.3653 37.2125 39.3653 35.9155V6.0977C39.3653 5.79558 39.358 5.49714 39.5533 5.23555C39.7706 4.95185 40.058 4.81184 40.4081 4.85237C40.7876 4.89658 41.0639 5.10291 41.2002 5.47504C41.2776 5.68505 41.2703 5.90611 41.2703 6.12349C41.2703 17.3462 41.2703 28.5689 41.2813 39.7915C41.2813 40.2042 41.1634 40.3074 40.7802 40.2705L40.7728 40.2668Z" fill="#7829FA"/>
<path d="M14.5137 25.1497C14.6647 25.1424 14.7679 25.2271 14.86 25.334C15.8843 26.5093 16.7465 27.7988 17.4466 29.1915C17.5645 29.4273 17.5903 29.6484 17.3176 29.781C17.0597 29.9063 16.9049 29.7405 16.7944 29.5342C16.3375 28.6499 15.8438 27.7878 15.2395 26.9956C14.9263 26.583 14.5947 26.1851 14.2742 25.7798C14.1636 25.6398 14.1268 25.485 14.2079 25.3229C14.2668 25.205 14.3773 25.1497 14.51 25.1497H14.5137Z" fill="#02F3A2"/>
<path d="M4.73047 26.3066C4.82627 25.9566 4.92575 25.5476 5.05102 25.146C5.40105 24.0407 5.85425 22.9759 6.40325 21.9554C6.52852 21.7196 6.67959 21.5095 6.97067 21.6569C7.26911 21.808 7.18068 22.0585 7.05909 22.2906C6.35903 23.5912 5.82109 24.9581 5.47106 26.3914C5.41211 26.6272 5.27946 26.793 5.01418 26.7561C4.80047 26.7267 4.72678 26.5719 4.73415 26.3103L4.73047 26.3066Z" fill="#02F3A2"/>
<path d="M22.7225 1.8606C25.3127 1.8827 27.8772 2.11482 30.3532 2.94749C31.3148 3.27172 32.236 3.68069 33.0244 4.3402C34.3325 5.43815 34.3214 6.87506 32.995 7.95091C31.9633 8.78358 30.7511 9.23676 29.4947 9.57941C26.9413 10.2758 24.3326 10.4674 21.7019 10.3789C19.4838 10.3016 17.2915 10.0436 15.1766 9.33256C14.2039 9.00465 13.268 8.59568 12.4684 7.9288C11.1494 6.82717 11.1641 5.4013 12.4979 4.31809C13.5075 3.50015 14.6902 3.04697 15.9172 2.71169C18.0395 2.12956 20.1949 1.87533 22.7262 1.86796L22.7225 1.8606ZM22.5972 9.67152C24.0195 9.66047 25.3164 9.5831 26.6023 9.41362C28.2603 9.19255 29.8815 8.82411 31.3996 8.0946C32.0075 7.80353 32.5786 7.4572 32.9876 6.90085C33.3561 6.39978 33.3561 5.89501 33.006 5.38288C32.8402 5.1434 32.6339 4.94812 32.4018 4.77496C31.7385 4.27388 30.9906 3.94597 30.2132 3.677C27.7777 2.84433 25.2538 2.59748 22.7041 2.60116C20.1802 2.60116 17.6821 2.84801 15.2761 3.677C14.3291 4.00492 13.4117 4.39546 12.6932 5.12497C12.0595 5.76974 12.0558 6.45873 12.6711 7.11823C12.8111 7.26561 12.9695 7.39825 13.1317 7.52352C13.7949 8.02091 14.5465 8.34146 15.3276 8.60673C17.7226 9.42467 20.2096 9.62363 22.5935 9.67521L22.5972 9.67152Z" fill="#7829FA"/>
<path d="M41.9998 23.1638V40.3036C41.9998 40.9374 41.9372 41 41.2924 41C40.6107 41 39.9254 41 39.2401 41C38.7058 41 38.6284 40.9226 38.6284 40.3773C38.6284 37.1793 38.6284 33.9812 38.6284 30.7831C38.6284 22.858 38.6284 14.9292 38.6395 7.00034C38.6395 6.60611 38.5511 6.46242 38.1826 6.48084V5.7587C38.2453 5.7587 38.3079 5.7587 38.3705 5.7587C38.5511 5.7587 38.6137 5.69975 38.6542 5.51185C38.8643 4.57969 39.627 4.00861 40.4855 4.11177C41.3845 4.21862 41.9961 4.92971 41.9998 5.90239C41.9998 11.6574 41.9998 17.4125 41.9998 23.1675V23.1638Z" fill="#7829FA"/>
</g>
<defs>
<clipPath id="clip0_54_167">
<rect width="42" height="41" fill="white"/>
</clipPath>
</defs>
</svg>
