<svg width="46" height="46" viewBox="0 0 46 46" fill="none" xmlns="http://www.w3.org/2000/svg">
<g clip-path="url(#clip0_20_230)">
<path d="M46 45.9889H45.4167H0V44.7101H5.30433C5.88764 44.7101 5.87674 44.7101 5.88764 44.1089C5.88764 42.6005 5.88766 41.0976 5.18987 39.7095C4.9391 39.2012 4.6011 38.7312 4.33397 38.2339C4.2032 38.006 4.12323 37.7525 4.09956 37.4907C4.0723 36.6654 4.09956 35.8511 4.09956 35.015C4.11394 34.8762 4.08558 34.7364 4.01834 34.6142C3.95109 34.4921 3.84818 34.3936 3.7234 34.3318C2.55823 33.6075 1.60339 32.5889 0.954583 31.3781C0.305772 30.1673 -0.0142392 28.8069 0.0266188 27.4331C0.0674768 26.0592 0.467785 24.7203 1.1874 23.5504C1.90701 22.3806 2.92066 21.4208 4.12681 20.7674C4.50467 20.5712 4.80603 20.2537 4.98271 19.8656C5.98034 17.7561 7.74663 16.7614 9.98721 16.5865C12.7947 16.3898 15.4387 17.1057 18.0555 18.0621C21.745 19.5181 25.2942 21.309 28.6587 23.4125C29.8526 24.1229 31.0574 24.8279 32.2731 25.5002C33.4887 26.1724 34.1757 25.8827 34.6009 24.6531C35.0588 23.325 35.3804 21.9478 35.7511 20.587C36.1764 19.0131 36.5852 17.4282 37.005 15.8487C37.005 15.7777 37.0486 15.7121 37.0813 15.6083L38.1444 15.7504C38.4006 14.6573 38.6568 13.5643 38.9021 12.5041C39.8398 8.47446 40.772 4.44484 41.6987 0.415214C41.7696 0.125562 41.8678 -0.00560653 42.2003 -0.000141403C43.4105 -0.000141403 44.6262 -0.000141403 45.9019 -0.000141403C44.6262 5.50871 43.356 10.9738 42.0858 16.4827L43.1761 16.7286C42.9744 17.4937 42.7836 18.2425 42.5819 18.9912C41.835 21.7238 41.1373 24.5 40.325 27.2271C39.7631 29.3651 38.5651 31.2809 36.8905 32.7196C35.4933 33.7618 33.8917 34.4957 32.1913 34.8729C29.1467 35.6656 26.024 36.1184 22.8801 36.2227C21.2592 36.2993 19.64 36.3302 18.0228 36.3157C15.9762 36.298 13.9478 35.9283 12.0261 35.2226C11.9443 35.1898 11.8625 35.1734 11.6935 35.1242C11.6935 35.8128 11.6608 36.4523 11.6935 37.0862C11.7329 37.6074 11.5753 38.1244 11.252 38.5345C10.3444 39.809 9.86688 41.3409 9.88908 42.9066C9.88908 43.3547 9.88908 43.8083 9.88908 44.2565C9.88908 44.7046 10.0254 44.7702 10.3852 44.732C10.5195 44.7238 10.6542 44.7238 10.7886 44.732H46.0382L46 45.9889ZM12.5658 34.0531C12.8165 34.1405 13.0237 34.217 13.2363 34.2826C15.3111 34.8901 17.4717 35.1504 19.631 35.0532C21.619 34.9986 23.6069 34.8874 25.5949 34.7198C28.1139 34.5104 30.6032 34.0303 33.0199 33.288C34.2578 32.9384 35.3985 32.3073 36.3535 31.4438C37.3084 30.5803 38.0518 29.5077 38.5259 28.3092C38.7748 27.747 38.9896 27.1704 39.1693 26.5823C39.9434 23.7623 40.6957 20.9368 41.4534 18.1168C41.4534 18.0075 41.4916 17.8927 41.5243 17.7342L38.0135 17.0839C37.512 19.0021 37.0431 20.8439 36.5307 22.6747C36.2775 23.6911 35.9477 24.6868 35.544 25.6532C35.3534 26.1352 35.0085 26.54 34.5635 26.8042C34.1185 27.0683 33.5985 27.1767 33.0853 27.1124C32.5673 27.0431 32.0676 26.8742 31.6134 26.6151C30.3214 25.9155 29.0621 25.1613 27.7973 24.429C24.3084 22.3741 20.7758 20.4121 16.9324 19.0841C15.1021 18.4172 13.1851 18.0196 11.2411 17.9036C9.63285 17.8326 8.12822 18.1004 6.93979 19.3082C6.77169 19.4952 6.61513 19.6923 6.47096 19.8984C6.52779 19.9155 6.58627 19.9265 6.64542 19.9312C8.48393 19.6492 10.3629 20.0224 11.9552 20.986C12.1364 21.0821 12.3389 21.131 12.544 21.1281C14.0868 21.1281 15.6295 21.1281 17.1778 21.1281H18.2681V22.467H13.8251C14.1849 23.0135 14.5447 23.56 14.8282 24.0738C14.8788 24.2023 14.9704 24.3106 15.0887 24.3817C15.2069 24.4529 15.3453 24.4829 15.4824 24.4672C18.1373 24.4672 20.7921 24.4672 23.4416 24.4672H23.9322V25.8062H15.5314L15.7604 27.8228H28.2444V29.1181H20.8576C19.2221 29.1181 17.6194 29.1181 16.0003 29.1181C15.8476 29.1181 15.6023 29.1946 15.5696 29.293C15.3515 29.8777 15.188 30.4844 14.9917 31.1347H30.8393V32.4463H14.5392C14.3466 32.4293 14.154 32.4795 13.9941 32.5884C13.5307 33.042 13.0837 33.523 12.5658 34.0531ZM7.87201 34.2553C9.16586 34.2553 10.4307 33.8707 11.5065 33.15C12.5823 32.4294 13.4207 31.4052 13.9159 30.2068C14.411 29.0085 14.5406 27.6899 14.2881 26.4177C14.0357 25.1456 13.4127 23.977 12.4978 23.0598C11.5829 22.1427 10.4172 21.518 9.14825 21.265C7.87926 21.012 6.56391 21.1418 5.36854 21.6382C4.17318 22.1346 3.15152 22.9751 2.43269 24.0536C1.71387 25.1321 1.33017 26.4001 1.33017 27.6971C1.3416 29.4329 2.03451 31.0944 3.25887 32.3218C4.48324 33.5492 6.14054 34.2438 7.87201 34.2553ZM44.2828 1.28417C43.8957 1.28417 43.6013 1.28417 43.3069 1.28417C43.0126 1.28417 42.8163 1.37708 42.7618 1.73231C41.8568 5.68907 40.9301 9.64582 40.0088 13.6026C39.8234 14.395 39.649 15.1929 39.4636 16.0236L40.832 16.275C41.9659 11.2744 43.1107 6.32302 44.2828 1.28417ZM5.95852 38.3651C6.87103 40.0012 7.29317 41.8666 7.17423 43.7373C7.14152 44.874 6.96159 44.6992 8.16638 44.7265C8.47167 44.7265 8.60797 44.639 8.59162 44.3166C8.57526 43.9942 8.59162 43.5679 8.59162 43.1908C8.53587 41.5918 8.91261 40.0074 9.68192 38.6055C9.71187 38.5278 9.73379 38.4473 9.74734 38.3651H5.95852ZM10.3797 35.1516C8.74822 35.66 7.00126 35.66 5.36978 35.1516C5.36978 35.7473 5.36978 36.2829 5.36978 36.7911C5.36978 36.8786 5.56056 37.0261 5.65869 37.0261C7.11243 37.0261 8.5789 37.0261 10.0581 37.0261C10.1617 37.0261 10.347 36.884 10.3524 36.802C10.3906 36.2883 10.3797 35.7527 10.3797 35.1516Z" fill="#7829FA"/>
<path d="M7.87191 34.2554C6.57806 34.2554 5.31328 33.8708 4.23748 33.1502C3.16168 32.4295 2.32318 31.4053 1.82805 30.2069C1.33291 29.0086 1.20336 27.69 1.45578 26.4178C1.7082 25.1457 2.33124 23.9771 3.24613 23.0599C4.16102 22.1428 5.32668 21.5182 6.59567 21.2651C7.86466 21.0121 9.18001 21.1419 10.3754 21.6383C11.5707 22.1347 12.5924 22.9753 13.3113 24.0537C14.0301 25.1322 14.4137 26.4002 14.4137 27.6973C14.4023 29.433 13.7094 31.0945 12.485 32.3219C11.2607 33.5493 9.60338 34.244 7.87191 34.2554ZM5.94208 28.0689V29.2821H7.19047V28.0689H5.94208ZM4.30662 28.5334H3.03641V29.7412H4.30116L4.30662 28.5334ZM6.81431 32.2716V31.0583H5.56592V32.2716H6.81431Z" fill="#05F2A3"/>
<path d="M5.94238 28.0689H7.19077V29.2822H5.94238V28.0689Z" fill="#7829FA"/>
<path d="M4.32269 28.5334V29.7413H3.03613V28.5334H4.32269Z" fill="#7829FA"/>
<path d="M6.85288 32.2716H5.60449V31.0583H6.85288V32.2716Z" fill="#7829FA"/>
</g>
<defs>
<clipPath id="clip0_20_230">
<rect width="46" height="46" fill="white"/>
</clipPath>
</defs>
</svg>
