<svg width="46" height="56" viewBox="0 0 46 56" fill="none" xmlns="http://www.w3.org/2000/svg">
<g clip-path="url(#clip0_16_51)">
<path d="M45.9729 30.0492C45.9729 37.76 45.9729 45.4707 45.9729 53.1814C46.002 53.557 45.9505 53.9344 45.822 54.2884C45.6934 54.6423 45.4907 54.9644 45.2275 55.2331C44.9643 55.5017 44.6468 55.7107 44.2963 55.8458C43.9458 55.9809 43.5705 56.039 43.1957 56.0162C31.2692 55.973 19.3427 56.0162 7.41619 56.0162C5.63475 56.0162 4.72519 55.1145 4.72519 53.3164C4.72519 51.9017 4.72519 51.9017 3.30972 51.9017C3.00294 51.9017 2.69077 51.9017 2.384 51.9017C1.76617 51.9008 1.17259 51.6604 0.727283 51.2308C0.281971 50.8011 0.0193753 50.2154 -0.00561487 49.596C-0.00561487 49.4232 -0.00561487 49.2451 -0.00561487 49.0561C-0.00561487 35.5713 -0.00561487 22.0901 -0.00561487 8.61253C-0.0241096 8.05338 0.168054 7.50777 0.532586 7.08442C2.30506 4.95695 4.06497 2.81507 5.81233 0.658802C5.97105 0.441946 6.18113 0.268171 6.42356 0.15316C6.66598 0.0381484 6.93313 -0.0144787 7.2009 4.17288e-05C17.6528 4.17288e-05 28.1064 4.17288e-05 38.5618 4.17288e-05C40.2949 4.17288e-05 41.2044 0.912585 41.2044 2.65668C41.2044 4.09299 41.2044 4.16859 42.6575 4.0768C45.144 3.92561 45.9836 5.22693 45.9675 7.3706C45.9298 14.9355 45.9729 22.4897 45.9729 30.0492ZM39.5145 25.9347V2.71608C39.5145 1.85753 39.4014 1.71174 38.6856 1.71174H8.37417C7.97052 1.71174 7.83597 1.81973 7.83597 2.2517C7.8575 3.61242 7.8575 4.97134 7.83597 6.32846C7.83597 7.94836 6.86183 8.8879 5.25261 8.8933C4.30538 8.8933 3.35278 8.9257 2.40555 8.8933C1.86735 8.8933 1.70586 9.0283 1.70586 9.59526C1.70586 22.7633 1.70586 35.9349 1.70586 49.1101C1.70586 50.0496 1.82964 50.19 2.78226 50.19H38.3035C39.4122 50.19 39.4714 50.1252 39.4714 48.9859L39.5145 25.9347ZM44.2452 30.06V7.04122C44.2452 6.86303 44.2452 6.69024 44.2452 6.50125C44.2503 6.40824 44.2353 6.31523 44.2013 6.22856C44.1672 6.14189 44.115 6.0636 44.0481 5.99903C43.9811 5.93446 43.9012 5.88512 43.8135 5.85438C43.7259 5.82364 43.6326 5.81221 43.5402 5.82089H41.9686C41.129 5.82089 41.2367 5.72369 41.2313 6.57144V49.1155C41.2538 49.4447 41.2302 49.7755 41.1613 50.0982C40.8438 51.2375 39.9504 51.8693 38.6103 51.8693H7.82523C6.44744 51.8693 6.44741 51.8693 6.45279 53.2732C6.45279 54.1318 6.56582 54.2398 7.43771 54.2398H43.2173C44.1161 54.2398 44.2506 54.1048 44.2506 53.1598L44.2452 30.06ZM2.6531 7.22481C3.68106 7.22481 4.53142 7.22481 5.37639 7.22481C5.47891 7.23445 5.58228 7.22092 5.6789 7.1852C5.77551 7.14948 5.86293 7.09248 5.93469 7.0184C6.00646 6.94433 6.06077 6.85505 6.09362 6.75715C6.12647 6.65924 6.13701 6.5552 6.1245 6.45266C6.1245 5.7021 6.1245 4.94615 6.1245 4.19019V2.99146L2.6531 7.22481Z" fill="#7829FA"/>
<path d="M37.136 32.8462C37.0737 33.1579 36.9892 33.4647 36.8831 33.7642C36.7726 34.0122 36.7156 34.2809 36.7156 34.5525C36.7156 34.8242 36.7726 35.0928 36.8831 35.3409C37.1175 35.8065 37.1795 36.3405 37.0583 36.8477C36.9371 37.3549 36.6404 37.8026 36.2211 38.1109C36.0319 38.2595 35.8782 38.4486 35.7711 38.6644C35.6641 38.8802 35.6063 39.1172 35.6022 39.3582C35.6212 39.7514 35.5305 40.1422 35.3404 40.4865C35.1502 40.8309 34.8681 41.1152 34.5258 41.3075C34.1921 41.4857 34.3858 41.6855 34.5258 41.8799C35.2577 43.1812 36.0004 44.4771 36.727 45.7839C37.093 46.4372 36.8508 47.096 36.1888 47.1824C35.9581 47.1923 35.7273 47.165 35.5053 47.1014C35.1016 47.0554 34.7033 46.9704 34.3159 46.8476C33.7777 46.6316 33.5624 46.8908 33.4278 47.3876C33.2933 47.8843 33.1264 48.3055 32.9704 48.7645C32.9305 48.9399 32.8368 49.0984 32.7024 49.2174C32.5679 49.3365 32.3996 49.4102 32.2211 49.4281C32.0427 49.446 31.8631 49.4072 31.7078 49.3172C31.5526 49.2272 31.4294 49.0905 31.3558 48.9265C30.5646 47.5226 29.7411 46.1294 28.9769 44.7201C28.767 44.3314 28.6055 44.1262 28.1104 44.4069C27.8426 44.5501 27.5419 44.6201 27.2386 44.6096C26.9354 44.5992 26.6402 44.5088 26.3828 44.3475C26.0814 44.1802 25.9307 44.2234 25.7531 44.5365C24.9888 45.9297 24.1923 47.3066 23.4119 48.6943C23.1859 49.0993 22.9437 49.4826 22.4109 49.4394C21.878 49.3962 21.7058 48.9697 21.5659 48.5269C21.426 48.0841 21.2429 47.6144 21.1138 47.1446C21.1078 47.0776 21.0859 47.013 21.0499 46.9562C21.0138 46.8994 20.9648 46.8521 20.9068 46.8183C20.8489 46.7845 20.7836 46.765 20.7166 46.7617C20.6496 46.7583 20.5828 46.7711 20.5218 46.799C19.9836 46.9286 19.4184 47.015 18.8802 47.1608C18.705 47.2234 18.5143 47.2277 18.3365 47.1732C18.1586 47.1186 18.0029 47.0081 17.8925 46.8579C17.782 46.7078 17.7226 46.5259 17.7232 46.3393C17.7237 46.1527 17.7841 45.9712 17.8954 45.8217C18.6327 44.5203 19.3593 43.219 20.1181 41.9339C20.3119 41.5991 20.3119 41.4263 19.9513 41.2103C19.6582 41.0163 19.4205 40.7488 19.2619 40.4344C19.1034 40.12 19.0293 39.7696 19.0471 39.4176C19.0488 39.1857 18.999 38.9564 18.9013 38.7462C18.8035 38.536 18.6602 38.3504 18.482 38.2027C18.0334 37.8839 17.7156 37.4124 17.5879 36.8759C17.4602 36.3395 17.5312 35.7747 17.7877 35.2869C17.894 35.0587 17.949 34.8098 17.949 34.5579C17.949 34.306 17.894 34.0572 17.7877 33.829C17.539 33.3485 17.4712 32.7941 17.5968 32.2675C17.7223 31.741 18.0328 31.2774 18.4713 30.9618C18.6539 30.8181 18.8012 30.6344 18.9019 30.4247C19.0027 30.2151 19.0542 29.985 19.0525 29.7522C19.0296 29.2315 19.1951 28.7201 19.5186 28.3122C19.842 27.9043 20.3015 27.6276 20.8124 27.533C21.0541 27.4686 21.2791 27.3528 21.4723 27.1935C21.6654 27.0342 21.8222 26.8351 21.9319 26.6096C22.5723 25.5297 23.202 25.2219 24.4399 25.4109C24.6761 25.4607 24.9202 25.4595 25.1559 25.4074C25.3916 25.3552 25.6134 25.2534 25.8069 25.1085C26.2301 24.7418 26.7708 24.54 27.33 24.54C27.8893 24.54 28.4298 24.7418 28.8531 25.1085C29.0433 25.2595 29.265 25.3656 29.5016 25.4189C29.7383 25.4722 29.9839 25.4713 30.2202 25.4163C30.712 25.2799 31.2364 25.326 31.6971 25.5462C32.1577 25.7664 32.5239 26.1459 32.7282 26.615C32.8285 26.8369 32.9773 27.0331 33.1637 27.1893C33.3501 27.3454 33.5691 27.4573 33.8046 27.5168C34.3301 27.6001 34.8063 27.8758 35.1412 28.2906C35.4762 28.7054 35.6461 29.2299 35.6183 29.763C35.6231 30.0045 35.6816 30.2418 35.7897 30.4576C35.8977 30.6734 36.0524 30.8623 36.2426 31.0104C36.5165 31.232 36.7386 31.5113 36.893 31.8285C37.0474 32.1458 37.1303 32.4932 37.136 32.8462ZM24.6282 42.0257C24.9902 41.9549 25.3634 41.9667 25.7202 42.0601C26.077 42.1536 26.4083 42.3264 26.6895 42.5657C26.8655 42.7328 27.0985 42.8259 27.3408 42.8259C27.5831 42.8259 27.8161 42.7328 27.992 42.5657C28.3462 42.2909 28.7575 42.0997 29.1954 42.0062C29.6333 41.9127 30.0865 41.9194 30.5215 42.0257C30.6588 42.0762 30.8103 42.0718 30.9445 42.0135C31.0787 41.9553 31.1855 41.8475 31.2428 41.7125C31.4366 41.2676 31.7327 40.8752 32.1069 40.5673C32.4812 40.2595 32.9228 40.045 33.3956 39.9414C33.5546 39.9224 33.6999 39.8417 33.8005 39.7166C33.9011 39.5915 33.9489 39.4319 33.9338 39.2719C33.9199 38.825 34.0099 38.3811 34.1967 37.9753C34.3836 37.5695 34.6621 37.2129 35.0102 36.9338C35.0999 36.882 35.1784 36.8127 35.241 36.7299C35.3036 36.6471 35.349 36.5526 35.3746 36.452C35.4002 36.3513 35.4054 36.2465 35.39 36.1438C35.3745 36.041 35.3387 35.9425 35.2846 35.8539C35.0882 35.4407 34.9862 34.9887 34.9862 34.5309C34.9862 34.0732 35.0882 33.6212 35.2846 33.208C35.3909 33.0299 35.4233 32.8171 35.375 32.6152C35.3268 32.4133 35.2015 32.2384 35.0262 32.1281C34.6746 31.8515 34.3915 31.497 34.1992 31.0923C34.0068 30.6876 33.9104 30.2437 33.9176 29.7954C33.9375 29.631 33.8922 29.4653 33.7916 29.334C33.6909 29.2027 33.5429 29.1163 33.3794 29.0935C32.9222 28.998 32.4938 28.7956 32.1292 28.5029C31.7645 28.2102 31.4736 27.8354 31.2804 27.4088C31.222 27.2531 31.1062 27.1259 30.9569 27.0535C30.8076 26.9811 30.6363 26.9692 30.4785 27.02C30.004 27.1217 29.5127 27.1148 29.0413 26.9998C28.5698 26.8848 28.1303 26.6647 27.7552 26.3558C27.6366 26.2522 27.4846 26.195 27.3273 26.195C27.17 26.195 27.018 26.2522 26.8994 26.3558C26.5299 26.6631 26.0958 26.8824 25.6298 26.9974C25.1638 27.1124 24.6779 27.1201 24.2084 27.02C24.0499 26.9661 23.8767 26.9766 23.7258 27.0493C23.5749 27.122 23.4584 27.251 23.4011 27.4088C23.2106 27.8362 22.9213 28.212 22.5572 28.5049C22.1932 28.7979 21.7648 28.9996 21.3075 29.0935C21.2297 29.1003 21.154 29.1224 21.0847 29.1587C21.0154 29.195 20.954 29.2447 20.9039 29.305C20.8539 29.3652 20.8162 29.4348 20.7931 29.5097C20.77 29.5846 20.7619 29.6634 20.7693 29.7414C20.7712 30.209 20.6676 30.671 20.4663 31.0927C20.265 31.5145 19.9712 31.8851 19.6069 32.1767C19.4538 32.2813 19.3451 32.4395 19.3023 32.6204C19.2595 32.8012 19.2856 32.9915 19.3754 33.154C19.5689 33.5776 19.6691 34.038 19.6691 34.5039C19.6691 34.9699 19.5689 35.4303 19.3754 35.8539C19.2791 36.0124 19.2478 36.2021 19.2879 36.3833C19.328 36.5645 19.4366 36.7231 19.5907 36.8258C19.9547 37.1044 20.2491 37.464 20.4509 37.8763C20.6526 38.2887 20.7562 38.7424 20.7532 39.2017C20.7412 39.3844 20.8009 39.5647 20.9196 39.7039C21.0382 39.8431 21.2064 39.9303 21.3883 39.9468C21.7062 39.9951 22.0107 40.1094 22.2822 40.2823C22.5537 40.4552 22.7864 40.683 22.9652 40.9512C23.4012 41.8367 23.9124 42.3659 24.6282 42.0419V42.0257ZM34.3912 45.0603L33.0349 42.6736C32.9542 42.5279 32.8573 42.3011 32.6851 42.5927C32.4713 43.0037 32.1314 43.3348 31.7156 43.5371C31.2999 43.7393 30.8303 43.802 30.3763 43.7158L31.9263 46.4426C32.7497 44.8713 32.7497 44.8713 34.3912 45.0765V45.0603ZM24.3053 43.6996C23.8507 43.7967 23.3768 43.7396 22.9579 43.5373C22.5391 43.335 22.199 42.999 21.9911 42.5819C21.9265 42.4685 21.8188 42.3821 21.7273 42.5387C21.2483 43.3594 20.7855 44.1856 20.2796 45.0765C21.948 44.8065 21.948 44.8065 22.7392 46.448L24.3053 43.6996Z" fill="#05F2A3"/>
<path d="M27.3676 28.1971C28.6237 28.2025 29.85 28.5818 30.8911 29.287C31.9322 29.9922 32.7412 30.9915 33.2157 32.1584C33.6902 33.3253 33.8089 34.6072 33.5566 35.8418C33.3043 37.0763 32.6925 38.208 31.7986 39.0935C30.9048 39.9789 29.7691 40.5782 28.5355 40.8156C27.3018 41.0529 26.0257 40.9175 24.8688 40.4266C23.7119 39.9357 22.7262 39.1114 22.0367 38.058C21.3471 37.0046 20.9847 35.7695 20.9953 34.5093C20.996 33.6737 21.1619 32.8466 21.4834 32.0758C21.8048 31.3049 22.2755 30.6057 22.8681 30.0187C23.4608 29.4316 24.1636 28.9683 24.936 28.6556C25.7083 28.343 26.5348 28.1871 27.3676 28.1971ZM27.3676 39.2178C28.6005 39.2178 29.783 38.7272 30.6558 37.8536C31.5285 36.98 32.0202 35.7948 32.0231 34.5579C31.9819 33.3403 31.4709 32.1863 30.5977 31.3395C29.7246 30.4928 28.5578 30.0195 27.3434 30.0195C26.1291 30.0195 24.9622 30.4928 24.0891 31.3395C23.216 32.1863 22.7049 33.3403 22.6638 34.5579C22.6651 35.174 22.788 35.7838 23.0253 36.352C23.2626 36.9203 23.6096 37.4358 24.0463 37.869C24.483 38.3021 25.0009 38.6443 25.57 38.8758C26.1391 39.1073 26.7482 39.2235 27.3622 39.2178H27.3676Z" fill="#05F2A3"/>
<path d="M30.1447 33.2512C30.1044 33.4814 30.002 33.6962 29.8486 33.8722C29.1382 34.6929 28.4332 35.4921 27.6958 36.3398C27.6258 36.4527 27.5311 36.5481 27.4188 36.6187C27.3065 36.6894 27.1796 36.7334 27.0478 36.7474C26.916 36.7615 26.7828 36.7452 26.6582 36.6999C26.5336 36.6545 26.421 36.5812 26.3289 36.4856C25.8499 36.1293 25.3762 35.7513 24.9188 35.3679C24.4613 34.9845 24.3806 34.5147 24.6981 34.1044C24.7733 34.0152 24.8657 33.9422 24.9698 33.8898C25.0738 33.8375 25.1874 33.8069 25.3036 33.7998C25.4198 33.7927 25.5362 33.8094 25.6459 33.8487C25.7555 33.8881 25.856 33.9493 25.9413 34.0288C26.9101 34.7037 26.9101 34.7037 27.6851 33.7696C27.9919 33.4024 28.2986 33.0244 28.6323 32.6897C28.7492 32.5439 28.9124 32.4429 29.0947 32.4036C29.277 32.3643 29.4672 32.389 29.6334 32.4737C29.7842 32.5402 29.9126 32.6489 30.0033 32.7868C30.094 32.9248 30.1431 33.086 30.1447 33.2512Z" fill="#7829FA"/>
</g>
<defs>
<clipPath id="clip0_16_51">
<rect width="46" height="56" fill="white"/>
</clipPath>
</defs>
</svg>
