<svg width="39" height="38" viewBox="0 0 39 38" fill="none" xmlns="http://www.w3.org/2000/svg">
<g clip-path="url(#clip0_54_184)">
<path d="M0 34.1384C0.273768 34.5438 0.657234 34.6221 1.12464 34.6115C2.41908 34.5824 3.71351 34.6018 5.0089 34.6018C5.61463 34.6018 6.22035 34.6018 6.83943 34.6018V38.0001H6.45215C5.1062 38.0001 3.76121 38.0001 2.41526 38.0001M24.2394 6.93395C24.3014 7.13322 24.3176 7.27639 24.3863 7.3857C24.6687 7.83744 25.2277 7.88194 25.6579 7.45728C26.6022 6.5238 27.5389 5.58064 28.4499 4.6133C28.6216 4.43144 28.7514 4.10835 28.7332 3.86265C28.6779 3.12747 27.7984 3.05588 27.3692 3.49022C26.4248 4.44305 25.4785 5.39298 24.5494 6.36032C24.3987 6.51702 24.332 6.75789 24.2404 6.93395H24.2394ZM14.6337 6.8643C14.586 6.75983 14.5431 6.54218 14.4153 6.40965C13.4862 5.44521 12.5485 4.48755 11.5936 3.54923C11.2712 3.23291 10.739 3.25999 10.4881 3.54342C10.1933 3.87522 10.2286 4.31149 10.5911 4.68005C11.5126 5.6174 12.4417 6.54701 13.3564 7.49017C13.6035 7.74458 13.8706 7.79391 14.1596 7.63817C14.4172 7.49887 14.6242 7.29283 14.6337 6.86527V6.8643ZM19.4385 7.49307C19.9269 7.54144 20.1921 7.21544 20.2378 6.76466C20.276 6.38063 19.8878 6.03045 19.4757 6.02465C19.0483 6.01884 18.7421 6.31775 18.7374 6.74532C18.7326 7.19513 19.0121 7.49404 19.4385 7.49404V7.49307Z" fill="white"/>
<path d="M6.45215 38.0001H6.83943V34.6018C6.22035 34.6018 5.61463 34.6018 5.0089 34.6018C3.71447 34.6018 2.41908 34.5834 1.12464 34.6115C0.657234 34.6221 0.274722 34.5437 0 34.1384C0 32.9796 0 31.8217 0 30.6628C0.171701 30.1675 0.307154 29.6538 0.523688 29.1789C1.22766 27.6321 2.45723 26.7093 4.05119 26.2701C4.86773 26.0457 5.69952 25.8783 6.54086 25.681C6.54372 25.6404 6.54563 25.5901 6.55135 25.5407C6.60668 25.0251 6.46741 24.6798 6.01145 24.3161C4.86868 23.4029 4.25628 22.1608 4.26677 20.644C4.27536 19.3314 4.23243 18.0168 4.27822 16.706C4.31351 15.7029 4.73895 14.8197 5.37424 14.0594C6.04674 13.2555 6.88235 12.6538 7.92019 12.4903C8.61272 12.381 9.33291 12.4313 10.0397 12.4381C10.8954 12.4458 11.6452 12.7786 12.3243 13.2845C12.5752 13.4712 12.8127 13.6753 13.0541 13.8707C14.3313 10.665 16.6417 8.93537 20.089 9.21977C22.9622 9.4558 24.8738 11.1457 25.8792 13.9007C26.1882 13.6463 26.4849 13.359 26.8216 13.1346C27.9548 12.3772 29.2054 12.2495 30.5256 12.4226C31.3412 12.53 32.0776 12.7883 32.7339 13.2845C33.8738 14.1474 34.5806 15.2695 34.6483 16.735C34.7018 17.8862 34.7208 19.0402 34.7256 20.1923C34.7323 21.6095 34.3612 22.8989 33.3549 23.9369C33.1221 24.1768 32.8712 24.4167 32.5889 24.5869C32.173 24.8384 32.4238 25.2089 32.3943 25.5175C32.3866 25.5949 32.668 25.7429 32.835 25.7893C34.0121 26.1124 35.2483 26.2411 36.3291 26.8785C37.5758 27.6137 38.399 28.6807 38.7701 30.1046C39.0801 31.2945 38.9876 32.5075 38.9866 33.7128C38.9866 34.2874 38.6242 34.5999 38.0509 34.6008C36.0715 34.6028 34.0922 34.6008 32.1148 34.6008V37.9991M20.9971 15.7561C20.0022 16.4061 18.993 16.9769 17.8636 17.3096C16.7056 17.6501 15.5237 17.7275 14.318 17.683C14.318 18.0158 14.318 18.2982 14.318 18.5797C14.318 19.2869 14.2369 20.0066 14.338 20.6982C14.5202 21.9451 15.0944 23.0131 16.0321 23.8721C16.9564 24.7194 18.0506 25.1954 19.2715 25.2283C19.944 25.2466 20.6595 25.0919 21.2938 24.851C22.6502 24.3354 23.6547 23.3913 24.227 22.0041C24.4693 21.416 24.5943 20.8191 24.6057 20.1836C24.621 19.3836 24.6725 18.5836 24.7097 17.7672C23.0881 17.7488 21.8337 17.1549 20.9971 15.7561ZM14.3218 16.2127C15.1612 16.1343 15.9482 16.0937 16.7256 15.9805C17.7854 15.8267 18.7746 15.4214 19.6312 14.7849C20.3485 14.2519 20.98 13.5999 21.642 12.9914C21.9701 12.6906 22.407 12.6616 22.7075 12.9469C23.007 13.2313 23.0108 13.7421 22.7199 14.07C22.5281 14.2857 22.3421 14.5082 22.1561 14.7239C22.7027 15.7319 23.4773 16.2862 24.6582 16.1188C24.6429 14.1696 23.9056 12.5745 22.2696 11.5452C20.4429 10.3961 18.4884 10.3612 16.676 11.5346C15.083 12.5658 14.2493 14.1261 14.3208 16.2136L14.3218 16.2127ZM5.79014 18.9357C5.79014 19.55 5.77011 20.1526 5.79396 20.7534C5.84261 21.9538 6.41685 22.8554 7.4213 23.4542C8.34086 24.0017 9.34817 23.963 10.3479 23.7424C11.1768 23.5596 11.7892 23.0392 12.2595 22.3379C12.5723 21.8706 12.724 21.3463 12.7383 20.7882C12.7545 20.1681 12.7421 19.5471 12.7421 18.9367C11.5994 18.9115 10.5272 18.6213 9.50652 18.1077C9.38442 18.0458 9.18506 18.0177 9.07345 18.0758C8.04992 18.6136 6.95676 18.8632 5.78919 18.9357H5.79014ZM26.2073 18.9299C26.2073 19.5471 26.192 20.1488 26.2102 20.7495C26.2474 21.9519 26.8235 22.8505 27.8242 23.4474C28.7762 24.0152 29.8149 23.9785 30.849 23.7124C31.8744 23.4484 32.5707 22.748 32.9523 21.7923C33.3129 20.8878 33.2203 19.905 33.1955 18.9309C31.9917 18.9367 30.8976 18.6001 29.8483 18.0748C29.7472 18.0245 29.5774 18.0216 29.4801 18.0748C28.4623 18.6233 27.3653 18.8564 26.2073 18.9309V18.9299ZM37.5052 33.055C37.4671 32.4127 37.4184 31.8062 37.3975 31.1987C37.3479 29.7448 36.351 28.4069 35.0251 27.9658C34.1781 27.6843 33.3024 27.487 32.4362 27.2694C32.2741 27.2287 32.1176 27.2316 32.0537 27.5025C31.801 28.5772 31.5234 29.6471 31.2258 30.7102C31.0531 31.3244 30.9844 31.9029 31.4156 32.4427C31.4909 32.5375 31.5587 32.6594 31.5749 32.7774C31.6111 33.0337 31.7599 33.0608 31.9736 33.0599C33.7879 33.054 35.6013 33.056 37.5043 33.056L37.5052 33.055ZM7.23625 33.0502C7.44038 32.642 7.63307 32.2686 7.81335 31.8894C7.86391 31.782 7.92687 31.6446 7.90111 31.5421C7.54626 30.1133 7.17615 28.6884 6.807 27.25C6.66677 27.2636 6.53895 27.2606 6.41781 27.2897C5.71288 27.458 5.0089 27.6321 4.30493 27.8072C3.42353 28.0258 2.75676 28.5617 2.21113 29.2756C1.33831 30.418 1.52528 31.7443 1.53386 33.0502H7.23529H7.23625ZM17.5679 26.511C17.5955 27.1504 17.5326 27.783 17.6661 28.3702C18.1135 30.3445 18.6296 32.3024 19.1227 34.2661C19.22 34.655 19.3297 35.04 19.4337 35.4269C19.5644 35.2789 19.6207 35.1435 19.656 35.0032C20.1281 33.1382 20.5851 31.2683 21.0744 29.4072C21.3262 28.4495 21.5008 27.4928 21.3711 26.4984C19.263 26.9192 19.2639 26.8186 17.5688 26.511H17.5679ZM5.82448 17.3754C5.86836 17.3754 5.91701 17.3793 5.96375 17.3754C6.92146 17.2912 7.83434 17.0504 8.64992 16.5164C9.00286 16.2862 9.35676 16.2349 9.71447 16.4487C10.4595 16.8956 11.2483 17.1984 12.1049 17.3503C12.6343 17.4441 12.745 17.387 12.7202 16.8656C12.6715 15.8431 12.1727 15.0818 11.3742 14.5043C10.4261 13.8195 9.34913 13.7837 8.26741 13.9887C6.74404 14.278 5.607 15.8934 5.82544 17.3744L5.82448 17.3754ZM26.2216 17.3889C27.2404 17.3154 28.1809 17.0659 29.0432 16.5367C29.3046 16.3761 29.565 16.2011 29.8941 16.3703C30.2308 16.5425 30.5599 16.7505 30.9167 16.8617C31.5692 17.0649 32.2369 17.2206 32.9037 17.3686C33.124 17.418 33.289 17.329 33.1526 17.0426C33.1269 16.9885 33.1316 16.9179 33.1307 16.854C33.1183 16.1101 32.7959 15.5007 32.3161 14.9687C31.2849 13.8253 29.9542 13.7256 28.593 14.0139C27.1107 14.3273 26.0652 15.8441 26.2216 17.3889ZM18.0229 36.1263C17.4238 33.7554 16.8477 31.4744 16.263 29.1595C14.8684 29.502 13.4957 29.8386 12.1488 30.1694C14.0995 32.1476 16.0159 34.091 18.0229 36.1263ZM20.9781 35.9348C22.842 34.0446 24.7679 32.0915 26.6928 30.1395C26.7014 30.1859 26.6156 30.1443 26.525 30.1211C25.3135 29.8164 24.1011 29.5097 22.8859 29.2224C22.8162 29.206 22.655 29.3337 22.6293 29.4227C22.4986 29.8744 22.4032 30.3368 22.2868 30.7934C21.8423 32.5443 21.3959 34.2942 20.9771 35.9348H20.9781ZM16.0703 26.8998C16.0703 26.6445 16.0493 26.4374 16.075 26.2362C16.1141 25.9354 15.9844 25.7651 15.7583 25.5842C15.3043 25.2215 14.8598 24.8384 14.4611 24.4157C14.1243 24.0588 13.8563 23.6341 13.5873 23.2762C13.1084 23.725 12.6658 24.2039 12.1583 24.5966C11.7844 24.8858 12.0219 25.2273 11.9809 25.5378C11.9723 25.6036 12.2442 25.7468 12.4035 25.7893C13.1981 26.0021 14.0041 26.1753 14.7949 26.4007C15.2127 26.5197 15.6095 26.717 16.0712 26.8998H16.0703ZM25.3479 23.2007C24.786 24.2338 24.0334 25.0193 23.1119 25.6452C23.0318 25.6994 22.9383 25.8009 22.9326 25.8861C22.9116 26.2111 22.924 26.538 22.924 26.9143C24.2137 26.1743 25.6226 26.0495 26.9599 25.6578C26.9599 25.3772 26.9599 25.0948 26.9599 24.8133C26.9599 24.7881 26.9599 24.7514 26.9456 24.7398C26.7692 24.6072 26.586 24.4824 26.4124 24.3461C26.3323 24.2841 26.2655 24.2048 26.1959 24.1303C25.924 23.8343 25.6541 23.5364 25.3479 23.1998V23.2007ZM28.5043 25.3714C28.5043 25.622 28.4528 25.9015 28.5129 26.153C28.7657 27.2123 29.0432 28.2647 29.3304 29.3153C29.4181 29.6355 29.4076 30.0263 29.813 30.2043C30.0859 29.1218 30.351 28.0539 30.6238 26.9879C30.7622 26.4461 30.9367 25.9102 30.8165 25.3714H28.5043ZM8.08808 25.3705C7.96693 26.2121 8.36375 26.984 8.54022 27.7946C8.71479 28.5917 8.92941 29.3801 9.13736 30.2159C9.70111 29.7699 9.61622 29.145 9.78792 28.6285C9.96343 28.1013 10.0684 27.5489 10.2086 27.0091C10.3507 26.4626 10.5196 25.9199 10.4079 25.3714H8.08712L8.08808 25.3705ZM27.2175 27.2016C26.2626 27.4309 25.3269 27.6563 24.3911 27.8807C24.3892 27.9155 24.3863 27.9513 24.3844 27.9862C25.4595 28.2618 26.5355 28.5385 27.6362 28.82C27.4951 28.2735 27.3672 27.782 27.2175 27.2007V27.2016ZM14.5393 27.9862C14.5431 27.9571 14.5459 27.9271 14.5498 27.8981C13.6865 27.6863 12.8242 27.4686 11.9571 27.2694C11.8722 27.25 11.6928 27.3206 11.6766 27.3825C11.5507 27.844 11.4544 28.3131 11.3437 28.8007C12.4388 28.5221 13.489 28.2541 14.5393 27.9862Z" fill="#7829FA"/>
<path d="M19.7261 0C20.225 0.332765 20.2793 0.831912 20.265 1.38039C20.244 2.21521 20.265 3.05099 20.2574 3.88677C20.2536 4.26984 20.142 4.59873 19.7623 4.78156C19.2949 5.00598 18.7464 4.67709 18.7436 4.14698C18.7369 3.00262 18.7149 1.85826 18.7607 0.715831C18.7703 0.472062 19.0421 0.238933 19.1938 0C19.3712 0 19.5496 0 19.727 0L19.7261 0Z" fill="#05F2A3"/>
<path d="M24.2392 6.9339C24.3318 6.75784 24.3976 6.51697 24.5483 6.36027C25.4774 5.39293 26.4237 4.44203 27.368 3.49017C27.7973 3.0568 28.6768 3.12742 28.7321 3.86259C28.7502 4.10733 28.6205 4.43139 28.4488 4.61325C27.5388 5.58059 26.6011 6.52375 25.6567 7.45723C25.2265 7.88189 24.6675 7.83739 24.3852 7.38564C24.3165 7.27634 24.3003 7.13317 24.2383 6.9339H24.2392Z" fill="#05F2A3"/>
<path d="M14.635 6.86424C14.6254 7.29181 14.4184 7.49785 14.1609 7.63715C13.8719 7.79289 13.6048 7.74355 13.3577 7.48914C12.4429 6.54502 11.5138 5.61637 10.5924 4.67902C10.2309 4.31143 10.1946 3.8742 10.4894 3.5424C10.7402 3.25993 11.2725 3.23188 11.5949 3.5482C12.5498 4.48652 13.4874 5.44419 14.4165 6.40862C14.5444 6.54115 14.5863 6.75783 14.635 6.86327V6.86424Z" fill="#05F2A3"/>
<path d="M19.4395 7.49303C19.0131 7.49303 18.7336 7.19412 18.7383 6.74431C18.7422 6.31771 19.0493 6.01784 19.4767 6.02364C19.8887 6.02945 20.277 6.37962 20.2388 6.76366C20.194 7.21444 19.9278 7.54043 19.4395 7.49206V7.49303Z" fill="#05F2A3"/>
<path d="M20.9978 15.757C21.8343 17.1557 23.0887 17.7497 24.7103 17.7681C24.6731 18.5845 24.6216 19.3845 24.6063 20.1845C24.5939 20.82 24.4699 21.4159 24.2276 22.005C23.6553 23.3922 22.6518 24.3363 21.2944 24.8519C20.6591 25.0937 19.9447 25.2475 19.2722 25.2291C18.0512 25.1953 16.9571 24.7203 16.0327 23.8729C15.0951 23.0139 14.5208 21.946 14.3386 20.6991C14.2375 20.0074 14.3195 19.2877 14.3186 18.5806C14.3186 18.2991 14.3186 18.0176 14.3186 17.6839C15.5243 17.7284 16.7062 17.651 17.8642 17.3105C18.9936 16.9787 20.0028 16.408 20.9978 15.757Z" fill="white"/>
<path d="M14.3226 16.2146C14.2511 14.127 15.0848 12.5667 16.6778 11.5355C18.4902 10.3622 20.4438 10.3979 22.2714 11.5462C23.9073 12.5745 24.6447 14.1706 24.66 16.1198C23.479 16.2871 22.7045 15.7319 22.1579 14.7249C22.3439 14.5091 22.5299 14.2876 22.7217 14.0709C23.0126 13.744 23.0088 13.2323 22.7093 12.9479C22.4088 12.6625 21.9719 12.6915 21.6438 12.9924C20.9818 13.6008 20.3503 14.2528 19.6329 14.7858C18.7763 15.4223 17.7872 15.8276 16.7274 15.9814C15.95 16.0946 15.163 16.1352 14.3236 16.2136L14.3226 16.2146Z" fill="white"/>
<path d="M26.2082 18.9318C27.3662 18.8573 28.4632 18.6242 29.481 18.0757C29.5783 18.0235 29.749 18.0264 29.8492 18.0757C30.8985 18.601 31.9926 18.9376 33.1964 18.9318C33.2212 19.9069 33.3147 20.8897 32.9531 21.7932C32.5716 22.7489 31.8752 23.4483 30.8498 23.7133C29.8158 23.9803 28.778 24.0161 27.825 23.4483C26.8244 22.8514 26.2482 21.9528 26.211 20.7504C26.1929 20.1497 26.2082 19.548 26.2082 18.9308V18.9318Z" fill="white"/>
<path d="M37.5065 33.0569C35.6034 33.0569 33.7891 33.054 31.9758 33.0608C31.7621 33.0608 31.6133 33.0347 31.577 32.7784C31.5608 32.6613 31.4931 32.5385 31.4177 32.4437C30.9856 31.9048 31.0553 31.3264 31.2279 30.7111C31.5255 29.648 31.8031 28.5782 32.0559 27.5034C32.1198 27.2326 32.2753 27.2297 32.4384 27.2703C33.3055 27.488 34.1802 27.6853 35.0273 27.9668C36.3532 28.4079 37.35 29.7457 37.3996 31.1997C37.4206 31.8071 37.4693 32.4137 37.5074 33.056L37.5065 33.0569Z" fill="white"/>
<path d="M7.23707 33.0521H1.53564C1.5261 31.7462 1.34009 30.42 2.21291 29.2776C2.75854 28.5637 3.42531 28.0287 4.30671 27.8091C5.01068 27.6341 5.71466 27.4599 6.41959 27.2916C6.53978 27.2626 6.6676 27.2655 6.80877 27.252C7.17793 28.6904 7.54804 30.1153 7.90289 31.544C7.92865 31.6466 7.86569 31.7839 7.81513 31.8913C7.63485 32.2705 7.44216 32.6449 7.23803 33.0521H7.23707Z" fill="white"/>
<path d="M17.5693 26.5128C19.2653 26.8204 19.2634 26.9201 21.3715 26.5002C21.5013 27.4947 21.3267 28.4514 21.0749 29.409C20.5855 31.2702 20.1296 33.1391 19.6564 35.0051C19.6211 35.1454 19.5639 35.2808 19.4342 35.4288C19.3302 35.0419 19.2205 34.6568 19.1232 34.268C18.631 32.3043 18.114 30.3464 17.6666 28.372C17.534 27.7849 17.597 27.1522 17.5684 26.5128H17.5693Z" fill="#FEFEFE"/>
<path d="M5.82478 17.3783C5.60634 15.8973 6.74339 14.2808 8.26676 13.9926C9.34943 13.7875 10.4254 13.8223 11.3736 14.5082C12.172 15.0847 12.6709 15.847 12.7195 16.8694C12.7443 17.3908 12.6337 17.4479 12.1043 17.3541C11.2477 17.2022 10.4588 16.8985 9.71381 16.4525C9.3561 16.2387 9.00221 16.289 8.64927 16.5202C7.83369 17.0542 6.92176 17.2951 5.9631 17.3792C5.9154 17.3831 5.86771 17.3792 5.82383 17.3792L5.82478 17.3783Z" fill="#FEFEFE"/>
<path d="M26.2215 17.3908C26.0651 15.8469 27.1106 14.3292 28.5929 14.0157C29.9541 13.7284 31.2848 13.8271 32.316 14.9705C32.7958 15.5025 33.1192 16.112 33.1306 16.8558C33.1316 16.9187 33.1268 16.9903 33.1525 17.0445C33.2889 17.3308 33.1239 17.4188 32.9036 17.3705C32.2368 17.2225 31.5691 17.0667 30.9166 16.8636C30.5599 16.7523 30.2317 16.5444 29.894 16.3722C29.564 16.2039 29.3045 16.378 29.0432 16.5386C28.1808 17.0677 27.2403 17.3173 26.2215 17.3908Z" fill="#FEFEFE"/>
<path d="M18.0225 36.1291C16.0155 34.0938 14.0992 32.1495 12.1484 30.1723C13.4953 29.8414 14.868 29.5048 16.2626 29.1624C16.8473 31.4772 17.4235 33.7582 18.0225 36.1291Z" fill="#FEFEFE"/>
<path d="M20.9795 35.9367C21.3973 34.2961 21.8447 32.5462 22.2892 30.7953C22.4046 30.3387 22.501 29.8763 22.6316 29.4246C22.6574 29.3365 22.8186 29.2079 22.8882 29.2243C24.1045 29.5116 25.3159 29.8183 26.5273 30.123C26.618 30.1452 26.7038 30.1878 26.6952 30.1414C24.7703 32.0935 22.8444 34.0465 20.9804 35.9367H20.9795Z" fill="white"/>
<path d="M16.0707 26.9017C15.6091 26.7179 15.2132 26.5216 14.7944 26.4026C14.0036 26.1772 13.1976 26.004 12.403 25.7912C12.2437 25.7487 11.9719 25.6055 11.9804 25.5397C12.0215 25.2292 11.7839 24.8877 12.1579 24.5985C12.6653 24.2058 13.1079 23.7269 13.5868 23.2781C13.8567 23.635 14.1238 24.0597 14.4606 24.4176C14.8593 24.8403 15.3038 25.2244 15.7579 25.5861C15.9849 25.767 16.1146 25.9373 16.0746 26.2381C16.0478 26.4393 16.0698 26.6473 16.0698 26.9017H16.0707Z" fill="#FEFEFE"/>
<path d="M25.3484 23.2026C25.6546 23.5393 25.9245 23.8362 26.1964 24.1332C26.2651 24.2087 26.3328 24.287 26.4129 24.3489C26.5875 24.4844 26.7697 24.6091 26.9462 24.7426C26.9605 24.7533 26.9605 24.791 26.9605 24.8162C26.9605 25.0986 26.9605 25.3801 26.9605 25.6606C25.6231 26.0524 24.2142 26.1762 22.9245 26.9172C22.9245 26.5409 22.9121 26.214 22.9331 25.8889C22.9388 25.8038 23.0323 25.7022 23.1125 25.6481C24.0339 25.0212 24.7865 24.2367 25.3484 23.2036V23.2026Z" fill="#FEFEFE"/>
<path d="M28.5049 25.3733H30.8172C30.9374 25.9121 30.7628 26.448 30.6245 26.9897C30.3517 28.0557 30.0865 29.1227 29.8137 30.2061C29.4083 30.0281 29.4178 29.6373 29.331 29.3171C29.0439 28.2676 28.7663 27.2141 28.5135 26.1549C28.4534 25.9034 28.5049 25.6238 28.5049 25.3733Z" fill="#FEFEFE"/>
<path d="M8.08908 25.3723H10.4099C10.5215 25.9218 10.3517 26.4644 10.2105 27.01C10.0703 27.5498 9.96635 28.1021 9.78987 28.6293C9.61817 29.1459 9.70307 29.7708 9.13932 30.2167C8.93137 29.381 8.71579 28.5926 8.54218 27.7955C8.36476 26.9858 7.96889 26.2129 8.09003 25.3713L8.08908 25.3723Z" fill="#FEFEFE"/>
<path d="M27.2178 27.2045C27.3685 27.7849 27.4954 28.2763 27.6366 28.8238C26.5358 28.5413 25.4608 28.2656 24.3848 27.9899C24.3867 27.9551 24.3895 27.9193 24.3914 27.8845C25.3272 27.6591 26.263 27.4347 27.2178 27.2054V27.2045Z" fill="#FEFEFE"/>
<path d="M14.5393 27.989C13.4891 28.2569 12.4379 28.5249 11.3438 28.8035C11.4544 28.3159 11.5507 27.8458 11.6767 27.3854C11.6938 27.3234 11.8732 27.2528 11.9571 27.2722C12.8232 27.4714 13.6856 27.6891 14.5498 27.9009C14.546 27.93 14.5431 27.96 14.5393 27.989Z" fill="#FEFEFE"/>
</g>
<defs>
<clipPath id="clip0_54_184">
<rect width="39" height="38" fill="white"/>
</clipPath>
</defs>
</svg>
