<svg width="28" height="37" viewBox="0 0 28 37" fill="none" xmlns="http://www.w3.org/2000/svg">
<g clip-path="url(#clip0_9_1231)">
<path d="M18.8085 0.0241987L19.1984 0.157144C19.8124 0.342762 20.3523 0.724438 20.7392 1.24638C21.126 1.76832 21.3396 2.4032 21.3486 3.05819V5.77789H6.71064V4.67788C6.67523 4.00549 6.67523 3.33166 6.71064 2.65928C6.78618 2.03027 7.05614 1.44242 7.4812 0.98145C7.90625 0.520475 8.46416 0.210493 9.07351 0.0967211L9.2271 0.0241987H10.1486C10.9047 0.350563 11.6727 0.640649 12.4052 0.991188C12.9058 1.24754 13.458 1.38102 14.0178 1.38102C14.5777 1.38102 15.1298 1.24754 15.6305 0.991188C16.3866 0.628562 17.1545 0.326364 17.9224 0L18.8085 0.0241987Z" fill="#7829FA"/>
<path d="M10.8101 28.3091C10.2312 29.0585 9.6287 29.7353 9.12068 30.5089C8.24451 31.8772 7.78029 33.4786 7.78565 35.1144C7.78565 35.6341 7.98653 35.8396 8.48273 35.8396H11.5899C12.0979 35.8396 12.2988 35.6461 12.3106 35.1264C12.3365 33.4132 12.8229 31.7404 13.7165 30.2914C13.9409 29.9287 14.0591 29.9287 14.2835 30.2914C15.1705 31.7257 15.6567 33.3811 15.6895 35.0781C15.6895 35.6945 15.8785 35.8638 16.4811 35.8638H19.4819C20.0017 35.8638 20.2262 35.6462 20.2144 35.1144C20.1992 33.9012 19.942 32.7039 19.4584 31.596C18.9749 30.4882 18.2753 29.4931 17.4025 28.6717L17.1662 28.4541V28.3816L19.7182 26.375C20.2453 25.9769 20.6542 25.4372 20.8996 24.8157C20.9705 24.6103 21.0177 24.4048 21.1004 24.1509C22.3147 24.3672 23.5029 24.7156 24.6447 25.1905C25.4018 25.5895 26.0466 26.1798 26.5181 26.9054C26.9895 27.631 27.2719 28.4678 27.3385 29.3365C27.5747 31.621 27.7874 33.8935 28.0001 36.166C28.0001 36.8308 27.8819 37.0241 27.2321 37.0241H24.184V31.9353C24.2082 31.7834 24.1737 31.6277 24.0877 31.5013C24.0017 31.3749 23.871 31.2878 23.7233 31.2584C23.357 31.1617 23.0617 31.4639 23.0498 31.9232V37H4.9739V31.9837C4.9739 31.5122 4.77302 31.2584 4.41859 31.2463C4.06416 31.2342 3.8397 31.5001 3.8397 31.9837V37.0241H0.803405C0.189059 37.0241 2.33044e-05 36.8186 0.059095 36.1901C0.248125 34.111 0.460794 32.0441 0.661638 29.965C0.687571 29.1851 0.847567 28.4158 1.13424 27.6926C1.43001 26.9862 1.87793 26.3573 2.44461 25.8528C3.01129 25.3484 3.68203 24.9814 4.40677 24.7794C5.24558 24.5498 6.0962 24.3685 6.97046 24.1509C7.08383 24.6868 7.30527 25.1926 7.62059 25.6359C7.93592 26.0792 8.33823 26.4504 8.80174 26.7256C9.46334 27.2212 10.1485 27.8256 10.8101 28.3091Z" fill="#7829FA"/>
<path d="M7.8095 11.0118C11.9263 11.5739 16.0978 11.5739 20.2146 11.0118V15.0007C20.2074 16.6506 19.5736 18.2331 18.4471 19.4138C17.3206 20.5944 15.7896 21.2808 14.1776 21.3279C12.5656 21.375 10.9988 20.7791 9.80829 19.6661C8.61779 18.5531 7.89681 17.0101 7.79767 15.3633C7.79767 13.9732 7.79767 12.5952 7.79767 11.2051C7.79502 11.1404 7.79899 11.0757 7.8095 11.0118ZM14.0002 19.0742C14.6628 19.0767 15.2995 18.8117 15.7724 18.3368C15.8836 18.2375 15.9517 18.0969 15.9616 17.9462C15.9716 17.7954 15.9227 17.6468 15.8256 17.533C15.7284 17.4192 15.5911 17.3495 15.4438 17.3393C15.2964 17.3291 15.1511 17.3792 15.0399 17.4786C14.9047 17.6186 14.7438 17.7297 14.5663 17.8056C14.3889 17.8814 14.1984 17.9204 14.0061 17.9204C13.8138 17.9204 13.6234 17.8814 13.446 17.8056C13.2685 17.7297 13.1075 17.6186 12.9724 17.4786C12.8639 17.3686 12.7175 17.3069 12.5648 17.3069C12.4121 17.3069 12.2656 17.3686 12.1572 17.4786C12.1058 17.5374 12.0671 17.6065 12.0433 17.6816C12.0195 17.7566 12.0112 17.8358 12.019 17.9142C12.0268 17.9927 12.0504 18.0686 12.0884 18.1372C12.1265 18.2058 12.1781 18.2656 12.2399 18.3126C12.4695 18.5523 12.7433 18.7431 13.0455 18.8738C13.3476 19.0045 13.6721 19.0726 14.0002 19.0742ZM11.1766 13.0304V12.7765C11.1766 12.6162 11.1143 12.4625 11.0036 12.3492C10.8928 12.2359 10.7426 12.1721 10.5859 12.1721C10.4292 12.1721 10.279 12.2359 10.1682 12.3492C10.0574 12.4625 9.99519 12.6162 9.99519 12.7765V13.2479C9.98863 13.3265 9.99808 13.4056 10.023 13.4802C10.048 13.5548 10.0878 13.6233 10.1401 13.6813C10.1923 13.7393 10.2558 13.7855 10.3265 13.8171C10.3971 13.8486 10.4734 13.8647 10.5504 13.8644C10.8812 13.8644 11.1057 13.6226 11.1293 13.2358L11.1766 13.0304ZM16.8238 13.0304V13.2842C16.8238 13.4445 16.8861 13.5982 16.9968 13.7116C17.1076 13.8249 17.2579 13.8885 17.4146 13.8885C17.5712 13.8885 17.7215 13.8249 17.8323 13.7116C17.9431 13.5982 18.0053 13.4445 18.0053 13.2842V12.8128C18.0053 12.6525 17.9431 12.4988 17.8323 12.3854C17.7215 12.2721 17.5712 12.2084 17.4146 12.2084C17.2579 12.2084 17.1076 12.2721 16.9968 12.3854C16.8861 12.4988 16.8238 12.6525 16.8238 12.8128V13.0304Z" fill="#7829FA"/>
<path d="M14.0354 6.93824H21.0295C21.2379 6.94458 21.4428 6.99399 21.6321 7.08336C22.2937 7.38555 22.9434 7.71187 23.605 8.02615C23.8886 8.1712 24.1367 8.31623 24.1012 8.69095C24.0658 9.06566 23.7586 9.16238 23.4514 9.2349C20.0914 9.98145 16.658 10.3262 13.2203 10.2623C10.2788 10.2142 7.34971 9.8619 4.47761 9.2107C4.18225 9.13818 3.93416 9.04149 3.89871 8.69095C3.86327 8.34041 4.08776 8.18331 4.35949 8.05035C5.11041 7.61592 5.90199 7.25956 6.72236 6.98664C7.54302 6.89565 8.37085 6.89565 9.19152 6.98664L14.0354 6.93824Z" fill="#7829FA"/>
<path d="M15.6776 28.0552C15.6205 27.7599 15.4937 27.4834 15.3084 27.2495C15.1231 27.0157 14.8848 26.8317 14.6143 26.7135C14.6143 26.5926 14.7206 26.4959 14.7797 26.3992C15.7366 24.8278 16.7054 23.2685 17.6506 21.685C17.7 21.5717 17.7901 21.4822 17.9022 21.4349C18.0144 21.3877 18.14 21.3863 18.2531 21.4312C18.6372 21.5029 18.9938 21.6837 19.2822 21.9531C19.5705 22.2224 19.7789 22.5693 19.8835 22.9542C20.0224 23.3311 20.0435 23.7428 19.9441 24.1325C19.8446 24.5222 19.6294 24.8707 19.3282 25.13C18.1585 26.1333 16.9299 27.064 15.6776 28.0552Z" fill="#7829FA"/>
<path d="M13.3738 26.7014C13.1105 26.8205 12.8788 27.0021 12.6979 27.2313C12.5171 27.4605 12.3924 27.7305 12.3342 28.0189L12.1097 27.886C11.0346 27.0278 9.94767 26.1937 8.87256 25.3234C8.52347 25.0728 8.26027 24.7161 8.12032 24.3039C7.98037 23.8917 7.97075 23.4449 8.09277 23.0268C8.18866 22.6123 8.40464 22.2371 8.71241 21.9502C9.02017 21.6634 9.40541 21.4783 9.81769 21.4192C9.90446 21.3845 10.0007 21.3839 10.0879 21.4173C10.1751 21.4508 10.2472 21.516 10.2903 21.6004C11.2985 23.2685 12.3105 24.9285 13.3265 26.5805C13.3444 26.6199 13.3602 26.6603 13.3738 26.7014Z" fill="#7829FA"/>
<path d="M12.795 29.6024C11.8507 31.125 11.2979 32.8672 11.1881 34.667H8.93164C9.01544 33.483 9.3636 32.3345 9.94939 31.3098C10.5352 30.285 11.3429 29.4115 12.3105 28.7563L12.795 29.6024Z" fill="#7829FA"/>
<path d="M15.6894 28.7563C16.6564 29.4121 17.4637 30.2858 18.0494 31.3104C18.6351 32.335 18.9837 33.4832 19.0684 34.667H16.8118C16.6985 32.8679 16.1461 31.1266 15.2051 29.6024L15.6894 28.7563Z" fill="#7829FA"/>
<path d="M12.0269 22.2653C13.3215 22.6338 14.6899 22.6338 15.9846 22.2653L13.9998 25.5169L12.0269 22.2653Z" fill="#7829FA"/>
<path d="M6.63954 13.8765C6.33414 13.8724 6.0355 13.7837 5.77546 13.6199C5.51541 13.456 5.30369 13.223 5.16275 12.9458C5.00713 12.6797 4.93192 12.3724 4.94664 12.0627C4.96135 11.7529 5.06534 11.4546 5.24546 11.2051C5.6944 10.5645 5.71802 10.6008 6.63954 10.8546V13.8765Z" fill="#7829FA"/>
<path d="M21.3721 10.903C22.3054 10.5645 22.9316 10.9876 23.0379 12.015C23.0609 12.2538 23.035 12.4949 22.9619 12.7228C22.8889 12.9508 22.7703 13.1608 22.6136 13.3393C22.4569 13.5178 22.2656 13.661 22.0518 13.7597C21.8381 13.8584 21.6066 13.9106 21.3721 13.9128V10.903Z" fill="#7829FA"/>
<path d="M14.5672 28.3332C14.5612 28.484 14.4992 28.6267 14.3938 28.7323C14.2884 28.8379 14.1475 28.8984 14.0001 28.9013C13.8874 28.9013 13.7774 28.8669 13.6839 28.8026C13.5904 28.7383 13.5177 28.647 13.4751 28.5403C13.4326 28.4335 13.422 28.3163 13.4449 28.2034C13.4678 28.0905 13.523 27.9872 13.6035 27.9065C13.684 27.8259 13.7861 27.7716 13.8969 27.7506C14.0077 27.7296 14.122 27.7428 14.2254 27.7886C14.3288 27.8344 14.4166 27.9106 14.4774 28.0076C14.5383 28.1046 14.5696 28.2179 14.5672 28.3332Z" fill="#7829FA"/>
</g>
<defs>
<clipPath id="clip0_9_1231">
<rect width="28" height="37" fill="white"/>
</clipPath>
</defs>
</svg>
