<svg width="51" height="41" viewBox="0 0 51 41" fill="none" xmlns="http://www.w3.org/2000/svg">
<g clip-path="url(#clip0_54_514)">
<path d="M14.8123 39.3571C14.5967 39.3571 14.4274 39.3571 14.2618 39.3571C12.2756 39.3571 10.2855 39.3571 8.29919 39.3571C7.69484 39.3571 7.36765 39.7102 7.41769 40.2707C7.46388 40.7774 7.78338 40.9962 8.49166 40.9962C19.8164 40.9962 31.1412 40.9962 42.466 40.9962C42.5699 40.9962 42.6739 41.0077 42.7739 40.9962C43.2012 40.9309 43.5053 40.6737 43.5746 40.2707C43.6439 39.8561 43.3667 39.5797 42.9895 39.4377C42.8394 39.3801 42.6623 39.3648 42.4968 39.3648C40.5452 39.3609 38.5897 39.3648 36.6381 39.3609C36.4918 39.3609 36.3455 39.3456 36.1954 39.3379C36.1954 38.8427 36.1954 38.4013 36.1954 37.956C36.1916 37.2497 35.8451 36.9042 35.133 36.9042C34.2977 36.9042 33.4585 36.9042 32.6155 36.9042C32.2883 36.0828 31.9688 35.2882 31.6339 34.4437C31.8918 34.4437 32.0766 34.4437 32.2652 34.4437C37.4387 34.4437 42.6123 34.4437 47.7896 34.4398C47.986 34.4398 48.1861 34.3976 48.3747 34.3477C50.1724 33.8794 50.9962 32.5704 51 30.7893C51.0038 21.7533 51.0038 12.7173 50.9961 3.68121C50.9961 3.23209 50.9577 2.76379 50.8191 2.34538C50.3148 0.829136 49.1639 0 47.2892 0C32.8965 0 18.5077 0 4.11495 0.00383859C3.64533 0.00383859 3.17571 0.0806104 2.70224 0.0959648C1.28183 0.142028 0 1.76575 0 3.14381C0.0192467 12.5368 0.011548 21.9337 0.00769869 31.3267C0.00769869 32.8622 1.40116 34.4283 3.12567 34.4322C8.33384 34.4398 13.542 34.4322 18.7502 34.4322C18.9272 34.4322 19.1082 34.4322 19.3045 34.4322C19.0235 35.1653 18.7771 35.8601 18.4769 36.5319C18.4037 36.6931 18.1458 36.8658 17.9649 36.8735C17.2297 36.9119 16.4906 36.885 15.7554 36.8889C15.0702 36.8927 14.8161 37.1537 14.8084 37.8447C14.8046 38.3207 14.8084 38.8005 14.8084 39.3456L14.8123 39.3571Z" fill="white"/>
<path d="M14.8123 39.3571C14.8123 38.812 14.8123 38.3322 14.8123 37.8562C14.82 37.1652 15.074 36.9042 15.7592 36.9004C16.4945 36.8965 17.2335 36.9234 17.9688 36.885C18.1497 36.8773 18.4076 36.7046 18.4807 36.5434C18.781 35.8716 19.0273 35.1769 19.3083 34.4437C19.112 34.4437 18.9311 34.4437 18.754 34.4437C13.5459 34.4437 8.33769 34.4475 3.12952 34.4437C1.40501 34.4437 0.00769869 32.8737 0.011548 31.3383C0.011548 21.9337 0.0192467 12.5407 0 3.14381C0 1.76575 1.28183 0.142028 2.70224 0.0998034C3.17186 0.084449 3.64533 0.00767718 4.11495 0.00767718C18.5077 0 32.8965 0 47.2892 0C49.1639 0 50.3148 0.829136 50.8152 2.33386C50.9538 2.75227 50.9923 3.22442 50.9923 3.66969C51.0038 12.7057 51 21.7418 50.9961 30.7778C50.9961 32.5589 50.1685 33.8717 48.3709 34.3362C48.1823 34.3861 47.9821 34.4283 47.7858 34.4283C42.6123 34.4322 37.4387 34.4322 32.2614 34.4322C32.0728 34.4322 31.888 34.4322 31.6301 34.4322C31.9688 35.2767 32.2845 36.0712 32.6117 36.8927C33.4547 36.8927 34.29 36.8927 35.1291 36.8927C35.8413 36.8927 36.1839 37.2382 36.1916 37.9445C36.1916 38.3898 36.1916 38.8312 36.1916 39.3264C36.3417 39.334 36.488 39.3494 36.6342 39.3494C38.5859 39.3494 40.5413 39.3494 42.4929 39.3532C42.6585 39.3532 42.8317 39.3686 42.9857 39.4262C43.3629 39.5682 43.6439 39.8446 43.5708 40.2592C43.5015 40.6622 43.1974 40.9232 42.7701 40.9846C42.67 41 42.5661 40.9846 42.4621 40.9846C31.1374 40.9846 19.8126 40.9846 8.48781 40.9846C7.77953 40.9846 7.46003 40.7697 7.41384 40.2592C7.3638 39.6987 7.69099 39.3494 8.29534 39.3456C10.2816 39.3417 12.2717 39.3456 14.258 39.3456C14.4274 39.3456 14.5929 39.3456 14.8084 39.3456L14.8123 39.3571ZM1.65522 28.6666H49.3563V28.133C49.3563 19.9684 49.3563 11.8037 49.3563 3.63898C49.3563 2.30699 48.6942 1.64292 47.3624 1.64292C32.7656 1.64292 18.1651 1.65059 3.56834 1.62372C2.53287 1.62372 1.62442 2.36073 1.63212 3.53918C1.67832 11.7538 1.65522 19.9722 1.65522 28.1868V28.6704V28.6666ZM1.65522 30.3556C1.65522 30.7049 1.65137 31.012 1.65522 31.3152C1.67062 32.0522 2.41354 32.7892 3.15646 32.7892C18.0034 32.7892 32.8503 32.7892 47.7011 32.7892C47.8936 32.7892 48.1014 32.7432 48.2785 32.6664C49.1177 32.2941 49.4795 31.5417 49.3101 30.3556H1.65907H1.65522ZM30.841 36.8812C30.5638 36.2248 30.2366 35.6106 30.0519 34.9542C29.9248 34.4936 29.7054 34.4245 29.3012 34.4283C27.6768 34.4437 26.0524 34.436 24.428 34.436H21.1021C20.7711 35.2613 20.4554 36.0559 20.1244 36.8812H30.841ZM16.4675 39.3264H34.5209V38.5625H16.4675V39.3264Z" fill="#7829FA"/>
<path d="M1.65498 28.6666V28.1829C1.65498 19.9683 1.67808 11.7499 1.63188 3.53533C1.62419 2.35688 2.53263 1.61987 3.56811 1.61987C18.1648 1.65058 32.7654 1.63907 47.3621 1.63907C48.6902 1.63907 49.3561 2.30314 49.3561 3.63513C49.3561 11.7998 49.3561 19.9645 49.3561 28.1292V28.6628H1.65498V28.6666ZM19.1387 5.22431C16.4865 5.07844 14.9814 7.06683 15.0161 9.42373C15.0392 11.0705 15.5781 12.5752 16.2864 14.0339C16.5404 14.5559 17.0177 15.0703 17.0177 15.5847C17.0177 16.1029 16.5289 16.6096 16.2825 17.1355C15.4318 18.9434 14.7312 20.7898 15.1315 22.8396C15.3163 23.7916 15.759 24.6207 16.5751 25.208C18.0224 26.2521 19.6045 26.1293 21.2174 25.7493C22.6339 25.4191 23.9081 24.7589 25.1745 24.0718C25.3208 23.9912 25.5748 23.9989 25.7288 24.0718C26.3755 24.3712 26.9875 24.7435 27.6419 25.0276C29.1894 25.7032 30.7676 26.2329 32.5036 25.9335C33.6238 25.7377 34.5438 25.2618 35.2136 24.3098C35.9642 23.2427 36.0027 22.022 35.8641 20.8282C35.6601 19.0816 34.9518 17.4809 34.0549 15.9724C33.8817 15.6806 33.8702 15.4925 34.0434 15.1893C35.1712 13.2124 36.0566 11.1549 35.8834 8.80956C35.7948 7.64262 35.3252 6.65227 34.3552 5.94597C33.1965 5.09764 31.8377 5.08996 30.5289 5.25886C28.8083 5.4815 27.2377 6.21467 25.7326 7.07067C25.5787 7.15896 25.2746 7.1129 25.1014 7.02077C23.2537 6.04577 21.379 5.17057 19.1426 5.22047L19.1387 5.22431ZM6.59754 5.74252C5.82767 5.74252 5.0578 5.74252 4.28793 5.74252C3.62585 5.74252 3.3025 6.01122 3.29865 6.55246C3.2948 7.10522 3.6066 7.37776 4.26869 7.3816C5.61981 7.3816 6.97478 7.37008 8.3259 7.39312C8.53376 7.39312 8.78782 7.49676 8.93795 7.64262C10.0042 8.67904 11.0474 9.73849 12.106 10.7826C12.5024 11.1741 12.9105 11.1703 13.2954 10.7941C13.6803 10.4141 13.6726 10.0955 13.2531 9.67324C12.0559 8.4756 10.8703 7.27028 9.65007 6.09951C9.44606 5.90374 9.09962 5.78091 8.80707 5.76171C8.07569 5.71565 7.33662 5.74636 6.60139 5.74636L6.59754 5.74252ZM43.1201 15.5808C41.9384 15.5808 40.7566 15.5693 39.5787 15.5885C39.3593 15.5885 39.086 15.6538 38.9359 15.792C38.3431 16.3332 37.7773 16.9051 37.2229 17.4848C36.915 17.8072 36.9458 18.3293 37.246 18.6287C37.5694 18.955 37.989 18.9473 38.3624 18.5941C38.7319 18.241 39.0706 17.8494 39.4633 17.5232C39.648 17.3658 39.9213 17.2353 40.1562 17.2353C42.331 17.2122 44.5021 17.2237 46.6769 17.2199C47.2351 17.2199 47.7086 16.8322 47.7047 16.3946C47.7009 15.9532 47.2313 15.5847 46.6654 15.5808C45.4837 15.5808 44.3019 15.5808 43.124 15.5808H43.1201ZM44.4174 18.0414C43.6321 18.0414 42.843 18.0414 42.0577 18.0414C41.4457 18.0414 41.13 18.3293 41.13 18.859C41.13 19.3926 41.4418 19.6766 42.0539 19.6804C43.5936 19.6843 45.1295 19.6804 46.6692 19.6804C47.2313 19.6804 47.7009 19.3004 47.7009 18.8628C47.7009 18.4252 47.2313 18.0452 46.6692 18.0414C45.9186 18.0414 45.1642 18.0414 44.4135 18.0414H44.4174ZM44.3134 22.141C45.118 22.141 45.9186 22.1448 46.7231 22.141C47.2428 22.1371 47.7047 21.7456 47.7047 21.3234C47.7047 20.9011 47.2428 20.5057 46.7231 20.5057C45.1488 20.5019 43.5782 20.5019 42.0038 20.5057C41.438 20.5057 41.13 20.809 41.13 21.3234C41.13 21.8377 41.4418 22.1371 42.0038 22.141C42.7737 22.1487 43.5436 22.141 44.3096 22.141H44.3134ZM5.61211 9.8383C6.14332 9.8383 6.67068 9.84597 7.20189 9.8383C7.68306 9.82678 8.12958 9.41989 8.12573 9.01684C8.12573 8.61379 7.67536 8.2069 7.19419 8.20306C6.17027 8.19538 5.14249 8.19538 4.11856 8.20306C3.5989 8.2069 3.29865 8.5255 3.29865 9.02068C3.29865 9.51586 3.60275 9.82294 4.12626 9.83446C4.62283 9.84598 5.11554 9.83446 5.61211 9.83446V9.8383Z" fill="white"/>
<path d="M1.65864 30.3556H49.3097C49.4791 31.5417 49.1211 32.2941 48.2781 32.6664C48.101 32.7432 47.8931 32.7893 47.7007 32.7893C32.8537 32.7931 18.0068 32.7931 3.15603 32.7893C2.41311 32.7893 1.67019 32.0484 1.65479 31.3152C1.64709 31.0082 1.65479 30.7049 1.65479 30.3556H1.65864Z" fill="white"/>
<path d="M30.8406 36.885H20.124C20.4551 36.0597 20.7707 35.2651 21.1018 34.4398H24.4276C26.052 34.4398 27.6764 34.4475 29.3009 34.4322C29.705 34.4283 29.9245 34.4974 30.0515 34.958C30.2324 35.6144 30.5635 36.2325 30.8406 36.885Z" fill="white"/>
<path d="M16.4678 39.3264V38.5625H34.5212V39.3264H16.4678Z" fill="white"/>
<path d="M19.1388 5.22431C21.3753 5.1744 23.2461 6.05344 25.0976 7.02461C25.2747 7.11673 25.5749 7.1628 25.7289 7.07451C27.234 6.2185 28.8045 5.48533 30.5252 5.26269C31.834 5.09379 33.1928 5.10147 34.3514 5.9498C35.3215 6.6561 35.7949 7.64646 35.8796 8.81339C36.0528 11.1626 35.1675 13.2163 34.0396 15.1931C33.8664 15.4964 33.878 15.6845 34.0512 15.9762C34.9442 17.4848 35.6564 19.0855 35.8604 20.832C35.9989 22.0258 35.9643 23.2427 35.2098 24.3136C34.54 25.2656 33.62 25.7416 32.4999 25.9373C30.7638 26.2406 29.1817 25.7109 27.6382 25.0314C26.9876 24.7474 26.3717 24.375 25.725 24.0756C25.5711 24.0027 25.317 23.995 25.1707 24.0756C23.9043 24.7627 22.6302 25.423 21.2136 25.7531C19.6007 26.1293 18.0186 26.256 16.5713 25.2119C15.7552 24.6245 15.3126 23.7954 15.1278 22.8434C14.7275 20.7936 15.428 18.9473 16.2787 17.1393C16.5251 16.6134 17.014 16.1067 17.014 15.5885C17.014 15.0703 16.5366 14.5559 16.2826 14.0377C15.5743 12.579 15.0354 11.0743 15.0123 9.42756C14.9777 7.07067 16.4866 5.08228 19.135 5.22815L19.1388 5.22431ZM25.4979 21.9951C26.314 21.3234 27.0723 20.6938 27.8345 20.072C29.3242 18.8551 30.556 17.4042 31.653 15.838C31.7339 15.719 31.7377 15.4388 31.653 15.3275C30.9563 14.4254 30.2942 13.4773 29.4935 12.6789C28.408 11.6002 27.2147 10.629 26.0484 9.62717C25.5403 9.18957 25.3747 9.20877 24.8397 9.63869C23.5655 10.6636 22.2491 11.6424 21.2136 12.936C20.5823 13.7229 19.9202 14.483 19.3005 15.2814C19.2042 15.4081 19.1811 15.719 19.2697 15.8419C19.747 16.5098 20.2243 17.193 20.7902 17.7803C21.7756 18.8052 22.8072 19.7802 23.8581 20.7437C24.3585 21.2005 24.9359 21.5729 25.4979 21.999V21.9951ZM23.9428 22.9394C23.146 22.2753 22.4107 21.761 21.7949 21.1314C20.6093 19.9261 19.4852 18.6594 18.3574 17.4003C18.2111 17.2353 18.138 17.074 17.9955 17.3581C17.2603 18.8321 16.579 20.3253 16.6675 22.0258C16.7407 23.4307 17.6068 24.3904 19.0464 24.3559C20.0088 24.3328 20.9788 24.0603 21.9142 23.7954C22.5994 23.6035 23.2345 23.2427 23.9428 22.9356V22.9394ZM26.926 22.9241C27.5689 23.2081 28.1039 23.4653 28.6544 23.6803C29.8669 24.1524 31.0833 24.5977 32.4267 24.2906C33.4391 24.0564 34.1667 23.3425 34.2436 22.2523C34.3707 20.4098 33.7163 18.7822 32.7886 17.1316C31.118 19.3426 29.2279 21.2466 26.926 22.9279V22.9241ZM23.9197 8.26447C22.3338 7.43917 20.7594 6.84419 18.9694 6.84419C17.5298 6.84419 16.7214 7.91132 16.6637 9.13967C16.6175 10.0878 16.8176 10.986 17.1718 11.8574C17.472 12.5867 17.7684 13.3199 18.0918 14.1106C19.7932 11.8305 21.6986 9.9381 23.9197 8.26063V8.26447ZM26.9876 8.27599C29.2433 9.93042 31.1488 11.8228 32.7847 14.0339C33.6624 12.4485 34.3399 10.8478 34.2475 9.00916C34.1859 7.80384 33.3737 6.95551 32.1727 6.86338C30.3019 6.72136 28.6505 7.38927 26.9915 8.27215L26.9876 8.27599Z" fill="#05F2A3"/>
<path d="M6.6016 5.73867C7.33683 5.73867 8.0759 5.70796 8.80728 5.75402C9.09598 5.77321 9.44627 5.89605 9.65029 6.09182C10.8705 7.26259 12.06 8.4679 13.2533 9.66554C13.6729 10.0878 13.6806 10.4064 13.2956 10.7864C12.9145 11.1626 12.5065 11.1703 12.1062 10.7749C11.0476 9.7308 10.0044 8.67135 8.93816 7.63493C8.79188 7.4929 8.53398 7.38926 8.32611 7.38542C6.97499 7.36239 5.62002 7.37774 4.2689 7.3739C3.60681 7.3739 3.29501 7.10136 3.29886 6.54477C3.30271 6.00353 3.62606 5.73483 4.28815 5.73483C5.05802 5.73483 5.82788 5.73483 6.59775 5.73483L6.6016 5.73867Z" fill="#7829FA"/>
<path d="M43.12 15.577C44.3017 15.577 45.4835 15.577 46.6614 15.577C47.2272 15.577 47.6968 15.9494 47.7007 16.3908C47.7045 16.8284 47.2349 17.2161 46.6729 17.2161C44.498 17.2161 42.327 17.2084 40.1521 17.2315C39.9173 17.2315 39.644 17.3658 39.4592 17.5194C39.0666 17.8495 38.7279 18.2372 38.3583 18.5903C37.9849 18.9435 37.5654 18.9512 37.242 18.6249C36.9418 18.3255 36.911 17.8034 37.2189 17.481C37.7732 16.9013 38.3391 16.3294 38.9319 15.7882C39.0859 15.65 39.3553 15.5885 39.5747 15.5847C40.7565 15.5655 41.9382 15.577 43.1161 15.577H43.12Z" fill="#7829FA"/>
<path d="M44.3134 22.1371C43.5435 22.1371 42.7736 22.1409 42.0076 22.1371C41.4417 22.1333 41.1338 21.8339 41.1338 21.3195C41.1338 20.8051 41.4456 20.5057 42.0076 20.5019C43.582 20.4942 45.1525 20.498 46.7269 20.5019C47.2466 20.5019 47.7085 20.8972 47.7085 21.3195C47.7085 21.7417 47.2466 22.1333 46.7269 22.1371C45.9224 22.1448 45.1217 22.1371 44.3172 22.1371H44.3134Z" fill="#05F2A3"/>
<path d="M5.61229 9.83828C5.11572 9.83828 4.623 9.84596 4.12644 9.83828C3.60293 9.82676 3.30268 9.52352 3.29883 9.0245C3.29883 8.52548 3.59523 8.21072 4.11874 8.20688C5.14267 8.19536 6.17044 8.19536 7.19437 8.20688C7.67554 8.21072 8.12206 8.61761 8.12591 9.02066C8.12591 9.42371 7.68323 9.8306 7.20207 9.84212C6.67471 9.85364 6.1435 9.84212 5.61229 9.84212V9.83828Z" fill="#05F2A3"/>
<path d="M25.4977 21.9952C24.9357 21.5691 24.3583 21.1967 23.8579 20.7399C22.8109 19.7803 21.7754 18.8015 20.79 17.7765C20.2241 17.1854 19.7468 16.506 19.2695 15.8381C19.1809 15.7152 19.2002 15.4043 19.3003 15.2776C19.92 14.483 20.5821 13.723 21.2134 12.9322C22.245 11.6386 23.5615 10.6598 24.8395 9.63489C25.3745 9.20497 25.54 9.18962 26.0482 9.62338C27.2145 10.6214 28.4078 11.5926 29.4933 12.6751C30.2978 13.4773 30.9561 14.4216 31.6528 15.3237C31.7375 15.435 31.7375 15.7152 31.6528 15.8342C30.5557 17.4004 29.324 18.8514 27.8343 20.0682C27.0721 20.6939 26.3099 21.3234 25.4977 21.9913V21.9952ZM23.038 15.5348C22.9263 16.8937 24.1504 17.9915 25.286 18.0414C26.7141 18.1067 27.9651 17.0472 27.9382 15.5463C27.9151 14.1644 27.0182 13.1702 25.4246 13.1434C24.0965 13.1203 23.0457 14.0992 23.0418 15.5348H23.038Z" fill="#FEFEFE"/>
<path d="M23.9432 22.9433C23.2349 23.2504 22.5998 23.6112 21.9146 23.8031C20.9792 24.068 20.0092 24.3405 19.0468 24.3635C17.6072 24.3981 16.7411 23.4384 16.6679 22.0335C16.5794 20.333 17.2607 18.8398 17.996 17.3658C18.1384 17.0779 18.2077 17.243 18.3578 17.408C19.4895 18.6671 20.6135 19.9338 21.7953 21.1391C22.4112 21.7687 23.1464 22.283 23.9432 22.9471V22.9433Z" fill="#FEFEFE"/>
<path d="M26.9258 22.9241C29.2315 21.2428 31.1216 19.3388 32.7883 17.1278C33.7122 18.7784 34.3666 20.406 34.2434 22.2485C34.1664 23.3425 33.4389 24.0565 32.4265 24.2868C31.0831 24.5977 29.8667 24.1524 28.6541 23.6764C28.1037 23.4615 27.5686 23.2043 26.9258 22.9202V22.9241Z" fill="white"/>
<path d="M23.9199 8.26837C21.7026 9.94583 19.7934 11.8383 18.092 14.1184C17.7686 13.3238 17.4684 12.5945 17.172 11.8651C16.814 10.9938 16.6138 10.0955 16.6639 9.14741C16.7254 7.91906 17.5338 6.85577 18.9696 6.85193C20.7596 6.85193 22.3339 7.44691 23.9199 8.27221V8.26837Z" fill="#FEFEFE"/>
<path d="M26.9882 8.27988C28.6511 7.39316 30.2987 6.72909 32.1694 6.87112C33.3704 6.96324 34.1865 7.81157 34.2442 9.01689C34.3366 10.8517 33.663 12.4563 32.7815 14.0416C31.1455 11.8306 29.2362 9.93815 26.9844 8.28372L26.9882 8.27988Z" fill="white"/>
<path d="M23.0383 15.5348C23.046 14.0992 24.093 13.1203 25.421 13.1433C27.0147 13.1741 27.9116 14.1644 27.9347 15.5463C27.9616 17.0472 26.7144 18.1066 25.2825 18.0414C24.1469 17.9876 22.9228 16.8936 23.0344 15.5348H23.0383ZM25.421 16.3946C25.8291 16.4061 26.3025 15.9877 26.3218 15.6039C26.341 15.2277 25.8907 14.7747 25.4749 14.7594C25.04 14.7402 24.6897 15.0857 24.6781 15.5501C24.6666 16.0223 24.9822 16.3831 25.4172 16.3946H25.421Z" fill="#7829FA"/>
<path d="M25.4249 16.3947C24.99 16.3832 24.6743 16.0223 24.6859 15.5502C24.6974 15.0857 25.0438 14.7402 25.4827 14.7594C25.8984 14.7786 26.3449 15.2277 26.3295 15.6039C26.3103 15.9878 25.8368 16.4023 25.4288 16.3947H25.4249Z" fill="#FDFDFD"/>
</g>
<defs>
<clipPath id="clip0_54_514">
<rect width="51" height="41" fill="white"/>
</clipPath>
</defs>
</svg>
