<svg width="75" height="49" viewBox="0 0 75 49" fill="none" xmlns="http://www.w3.org/2000/svg">
<g clip-path="url(#clip0_8_1145)">
<path d="M60.74 17.0101L60.08 17.5101L57.08 19.9301C56.8194 20.1316 56.5454 20.3153 56.26 20.48C55.9744 20.6561 55.6455 20.7494 55.31 20.7494C54.9745 20.7494 54.6456 20.6561 54.36 20.48C53.9227 20.2546 53.5046 19.9938 53.11 19.7001C51.4567 18.4134 49.8133 17.11 48.18 15.79C47.8201 15.4844 47.4856 15.15 47.18 14.79C46.8849 14.4212 46.7378 13.9556 46.7674 13.4841C46.797 13.0127 47.0011 12.5691 47.34 12.2401C47.4825 12.0481 47.6621 11.8868 47.8683 11.7658C48.0745 11.6448 48.3029 11.5666 48.5399 11.5358C48.777 11.505 49.0178 11.5223 49.2481 11.5866C49.4783 11.6509 49.6932 11.7609 49.88 11.91C50.6617 12.4022 51.4161 12.9363 52.14 13.5101C53.03 14.1801 53.9 14.89 54.77 15.59C54.8328 15.6477 54.9148 15.6796 55 15.6796C55.0852 15.6796 55.1673 15.6477 55.23 15.59C55.89 15.12 56.56 14.66 57.23 14.17C58.23 13.42 59.14 12.6501 60.08 11.8801C60.6111 11.4543 61.2694 11.2184 61.95 11.21C62.49 11.21 63.04 11.15 63.59 11.15C65.68 11.15 67.78 11.15 69.87 11.22C70.542 11.2587 71.2104 11.3456 71.87 11.48C72.5362 11.6134 73.1374 11.969 73.5752 12.4885C74.013 13.0081 74.2616 13.6609 74.28 14.34C74.28 15.2 74.37 16.06 74.37 16.92C74.37 18.92 74.37 20.92 74.37 22.97C74.37 23.57 74.37 24.1701 74.29 24.7701C74.2441 25.3195 74.0521 25.8465 73.7338 26.2966C73.4156 26.7468 72.9826 27.1036 72.48 27.3301C72.25 27.4501 72.01 27.54 71.78 27.67C71.7055 27.7337 71.6501 27.8168 71.62 27.91C71.6101 27.9864 71.6101 28.0637 71.62 28.1401C71.62 33.9267 71.62 39.7167 71.62 45.5101C71.6253 45.8213 71.5692 46.1305 71.4549 46.42C71.3407 46.7096 71.1705 46.9738 70.9541 47.1976C70.7378 47.4214 70.4795 47.6004 70.1939 47.7244C69.9084 47.8483 69.6012 47.9148 69.29 47.92C68.9788 47.9253 68.6696 47.8692 68.38 47.7549C68.0905 47.6407 67.8262 47.4705 67.6024 47.2542C67.3786 47.0378 67.1997 46.7795 67.0758 46.494C66.9518 46.2084 66.8853 45.9013 66.88 45.59V33.86C66.8897 33.7436 66.8897 33.6265 66.88 33.5101C66.8543 33.3581 66.7763 33.2198 66.6594 33.1194C66.5425 33.0189 66.3941 32.9625 66.24 32.96C66.082 32.9657 65.9312 33.027 65.8141 33.1332C65.697 33.2393 65.6211 33.3834 65.6 33.54C65.6 33.64 65.6 33.75 65.6 33.85C65.6 37.8 65.6 41.7501 65.6 45.7001C65.6163 46.1308 65.508 46.5571 65.2881 46.9278C65.0681 47.2985 64.7459 47.5979 64.36 47.79C63.9872 48.0056 63.5608 48.1107 63.1305 48.093C62.7002 48.0752 62.2838 47.9355 61.93 47.6901C61.5995 47.4888 61.3271 47.2051 61.1395 46.8667C60.9519 46.5283 60.8556 46.1469 60.86 45.7601C60.86 41.2601 60.86 36.7601 60.86 32.2701V26.36C60.86 24.65 60.86 22.93 60.86 21.22C60.86 19.92 60.86 18.6301 60.79 17.3301C60.7811 17.2223 60.7644 17.1154 60.74 17.0101Z" fill="#02F3A2"/>
<path d="M66.24 9.48999C65.5985 9.51944 64.9578 9.41853 64.3564 9.19335C63.7551 8.96818 63.2056 8.62344 62.7413 8.17993C62.2769 7.73641 61.9074 7.20336 61.6548 6.61297C61.4023 6.02258 61.2721 5.38711 61.2721 4.74499C61.2721 4.10287 61.4023 3.4674 61.6548 2.87701C61.9074 2.28662 62.2769 1.75357 62.7413 1.31005C63.2056 0.86654 63.7551 0.521798 64.3564 0.296626C64.9578 0.071454 65.5985 -0.0294598 66.24 -4.85638e-06C67.5159 0.0572011 68.7182 0.613338 69.588 1.54858C70.4578 2.48382 70.9254 3.72331 70.89 5C70.8586 6.20868 70.3536 7.3566 69.4838 8.19647C68.614 9.03633 67.449 9.50089 66.24 9.48999Z" fill="#02F3A2"/>
<path d="M41.1099 35.14L44.1099 36.01C44.1099 35.84 44.1099 35.71 44.1099 35.57C44.1099 34.49 44.1099 33.41 44.1099 32.33C44.1099 31.63 44.3299 31.41 45.0199 31.41H53.4699C54.2199 31.41 54.4699 31.62 54.4699 32.41V45.99C54.4699 46.74 54.2599 46.94 53.4699 46.94H51.1399C50.5999 46.94 50.3799 46.72 50.3799 46.17V43.75C50.3886 43.5398 50.3532 43.3301 50.2761 43.1343C50.199 42.9386 50.0819 42.7612 49.9322 42.6133C49.7825 42.4655 49.6035 42.3506 49.4068 42.276C49.2101 42.2014 49 42.1687 48.7899 42.18H44.9399C44.3599 42.18 44.1499 41.97 44.1499 41.4C44.1499 41.05 44.1499 40.71 44.1499 40.32L41.5099 40.09C40.9299 40.09 40.3499 40 39.7799 39.94C39.5499 39.94 39.4399 39.94 39.3699 40.19C39.2199 40.7 39.0499 41.19 38.8799 41.72L40.8799 42.8C40.9856 42.8207 41.0943 42.8207 41.1999 42.8H48.6299C49.4099 42.8 49.7199 43.11 49.7199 43.87V47.07C49.7199 47.77 49.3899 48.07 48.7199 48.07H5.71995C5.58783 48.0819 5.45472 48.0637 5.33061 48.0169C5.20649 47.9701 5.09457 47.8958 5.00321 47.7996C4.91185 47.7035 4.84342 47.5879 4.80302 47.4615C4.76262 47.3352 4.75132 47.2013 4.76994 47.07C4.76994 45.96 4.76994 44.86 4.76994 43.75C4.75182 43.6144 4.76521 43.4764 4.80906 43.3469C4.85291 43.2173 4.92601 43.0995 5.02274 43.0028C5.11948 42.9061 5.23722 42.833 5.3668 42.7891C5.49638 42.7453 5.63434 42.7319 5.76994 42.75H13.1699C13.4069 42.7482 13.64 42.69 13.8499 42.58C14.4299 42.3 14.9899 41.98 15.5899 41.65C15.3999 41.09 15.2299 40.55 15.0399 40.01C15.0148 39.9685 14.9797 39.9338 14.9378 39.9094C14.8959 39.8849 14.8484 39.8714 14.7999 39.87L10.3199 40.25V41.34C10.3199 41.89 10.0999 42.1 9.55991 42.1H5.75993C5.53733 42.0798 5.31303 42.109 5.10301 42.1855C4.89298 42.2619 4.7024 42.3837 4.54484 42.5422C4.38728 42.7008 4.26662 42.8921 4.19145 43.1025C4.11627 43.313 4.08841 43.5375 4.1099 43.76C4.1099 44.54 4.1099 45.32 4.1099 46.1C4.1099 46.65 3.88994 46.86 3.33994 46.86H0.789895C0.681694 46.8753 0.571419 46.8651 0.467874 46.8301C0.364328 46.7952 0.270429 46.7365 0.193643 46.6588C0.116856 46.581 0.0593109 46.4864 0.0256739 46.3824C-0.00796314 46.2784 -0.0167757 46.168 -8.29482e-05 46.06C-8.29482e-05 41.4267 -8.29482e-05 36.7933 -8.29482e-05 32.16C-8.29482e-05 31.64 0.249927 31.37 0.759927 31.37H9.52995C9.63869 31.3564 9.74909 31.3682 9.85252 31.4044C9.95594 31.4406 10.0496 31.5003 10.1261 31.5788C10.2026 31.6572 10.2599 31.7523 10.2936 31.8566C10.3272 31.9609 10.3362 32.0716 10.3199 32.18V35.98L13.4299 35.09C13.2199 34.44 13.0199 33.82 12.8099 33.19C12.4599 32.13 12.1199 31.07 11.8099 30.01C11.7017 29.6926 11.6798 29.3521 11.7466 29.0235C11.8134 28.6949 11.9664 28.39 12.1899 28.14C12.4923 27.676 12.9291 27.3153 13.442 27.1063C13.9549 26.8972 14.5193 26.8496 15.0599 26.97C16.1799 27.16 17.3399 27.18 18.4799 27.27H19.0599C19.2699 26.65 19.4699 26.04 19.6799 25.43C20.3513 23.4084 21.3367 21.5051 22.5999 19.79C23.5215 18.4424 24.8766 17.4508 26.4399 16.98C26.4885 16.9568 26.5305 16.9218 26.562 16.8781C26.5935 16.8344 26.6134 16.7834 26.6199 16.73C26.6199 16.22 26.6199 15.73 26.6199 15.16L23.9499 14.97C23.7299 14.97 23.5699 14.97 23.5599 14.64C23.5499 14.31 23.6399 14.13 24.0399 14.13C26.1499 14.13 28.2699 14.13 30.3899 14.13H30.8099V14.92L27.8099 15.15C27.8099 15.7 27.8099 16.22 27.8099 16.74C27.8226 16.7876 27.8465 16.8315 27.8796 16.868C27.9126 16.9045 27.9538 16.9326 27.9999 16.95C29.6779 17.4238 31.1274 18.4896 32.0799 19.95C33.3982 21.8216 34.4108 23.8907 35.0799 26.08C35.1733 26.3178 35.2501 26.5617 35.3099 26.81C35.3799 27.2 35.5599 27.29 35.9399 27.25C37.3799 27.11 38.8099 27 40.2499 26.88C40.5194 26.8501 40.7921 26.8843 41.0459 26.9799C41.2996 27.0755 41.5272 27.2297 41.7099 27.43C43.0399 28.81 43.0599 28.94 42.4699 30.74C41.9999 32.15 41.5499 33.56 41.0899 34.96C41.0799 35.05 41.0899 35.07 41.1099 35.14ZM33.7799 45.58H31.5899C31.4633 45.5528 31.3522 45.4775 31.2799 45.37C30.8398 44.7037 30.2412 44.1569 29.5379 43.7786C28.8346 43.4003 28.0485 43.2023 27.2499 43.2023C26.4513 43.2023 25.6653 43.4003 24.962 43.7786C24.2587 44.1569 23.6601 44.7037 23.2199 45.37C23.16 45.46 23.0499 45.58 22.9599 45.58C22.2199 45.58 21.4899 45.58 20.7099 45.58C20.9373 44.6596 21.391 43.8105 22.0299 43.11C22.1025 43.0384 22.1595 42.9526 22.1974 42.858C22.2352 42.7633 22.2531 42.6619 22.2499 42.56C21.9499 41.5 21.6099 40.45 21.2499 39.37L16.3499 39.78L16.8599 41.31C16.9334 41.4484 16.9759 41.6012 16.9844 41.7577C16.9929 41.9142 16.9672 42.0706 16.9092 42.2162C16.8511 42.3618 16.7621 42.493 16.6482 42.6007C16.5344 42.7084 16.3985 42.79 16.2499 42.84L14.4999 43.79C15.1199 44.55 15.6999 45.28 16.2999 45.98C16.4418 46.1301 16.6341 46.2227 16.8399 46.24C17.8399 46.24 18.8399 46.24 19.8399 46.24H37.5699C37.7399 46.24 37.9599 46.24 38.0499 46.12C38.6999 45.37 39.3099 44.59 39.9599 43.79L38.1599 42.79C38.0187 42.745 37.8892 42.6693 37.7809 42.5681C37.6725 42.467 37.588 42.343 37.5334 42.2051C37.4789 42.0673 37.4557 41.9191 37.4654 41.7712C37.4752 41.6233 37.5177 41.4794 37.5899 41.35C37.7599 40.84 37.9199 40.35 38.0999 39.81C38.0433 39.7809 37.9826 39.7606 37.9199 39.75C36.4299 39.62 34.9199 39.49 33.4499 39.39C33.3499 39.39 33.1799 39.53 33.1399 39.64C32.8399 40.53 32.5699 41.43 32.2699 42.33C32.2155 42.4651 32.2045 42.6138 32.2386 42.7554C32.2726 42.897 32.35 43.0244 32.4599 43.12C33.1193 43.8019 33.5763 44.6536 33.7799 45.58ZM21.8499 27.58C22.8465 27.6809 23.8484 27.721 24.8499 27.7C26.3642 27.58 27.8856 27.58 29.3999 27.7C30.4536 27.74 31.5086 27.72 32.5599 27.64C32.5911 26.92 32.4762 26.2011 32.2221 25.5266C31.9681 24.8522 31.5802 24.2361 31.0817 23.7156C30.5832 23.1951 29.9845 22.7809 29.3217 22.4979C28.6589 22.2149 27.9456 22.069 27.2249 22.069C26.5042 22.069 25.791 22.2149 25.1282 22.4979C24.4653 22.7809 23.8666 23.1951 23.3681 23.7156C22.8697 24.2361 22.4818 24.8522 22.2277 25.5266C21.9737 26.2011 21.8588 26.92 21.8899 27.64L21.8499 27.58ZM34.4499 28.74V28.8L34.9599 29.03C35.1399 29.11 35.3199 29.2 35.4999 29.3C35.7257 29.407 35.9033 29.5946 35.9977 29.8259C36.0921 30.0573 36.0964 30.3156 36.0099 30.55C35.8799 30.97 35.7399 31.39 35.6099 31.82C35.4799 32.25 35.2899 32.82 35.1299 33.37L39.7899 34.71C40.2999 33.17 40.7899 31.71 41.2999 30.19C41.4448 29.9202 41.4882 29.6073 41.4222 29.3082C41.3561 29.0091 41.185 28.7437 40.9399 28.56C40.8392 28.4567 40.7174 28.3764 40.5827 28.3246C40.4481 28.2728 40.3038 28.2508 40.1599 28.26C39.0099 28.37 37.8599 28.45 36.6999 28.54L34.4499 28.74ZM20.1299 28.74L19.6199 28.67C18.0199 28.54 16.3999 28.45 14.7999 28.26C14.5009 28.204 14.192 28.2366 13.9113 28.3538C13.6306 28.4711 13.3903 28.6679 13.2199 28.92C13.1255 29.0194 13.0605 29.1431 13.0322 29.2773C13.004 29.4115 13.0135 29.5509 13.0599 29.68C13.5699 31.17 14.0599 32.68 14.5499 34.16C14.5499 34.33 14.6699 34.51 14.7399 34.69L19.3799 33.35C19.0799 32.35 18.7899 31.47 18.5099 30.56C18.4515 30.441 18.419 30.3109 18.4144 30.1784C18.4098 30.0459 18.4334 29.9139 18.4834 29.7911C18.5335 29.6684 18.6089 29.5575 18.7048 29.466C18.8007 29.3745 18.9149 29.3043 19.0399 29.26C19.3699 29.15 19.7199 29 20.1299 28.8V28.74ZM34.7099 34.62L33.6399 38C35.2599 38.14 36.7899 38.27 38.3299 38.38C38.3843 38.3818 38.4381 38.3688 38.4857 38.3424C38.5333 38.316 38.5727 38.2771 38.5999 38.23C38.8599 37.49 39.0999 36.74 39.3599 35.96L34.7099 34.62ZM15.1399 35.96C15.3999 36.74 15.6399 37.5 15.8999 38.24C15.8999 38.32 16.1099 38.38 16.2099 38.38C17.0899 38.32 17.9799 38.25 18.8599 38.17L20.8599 38L19.7799 34.62L15.1399 35.96ZM9.13993 46.3H11.5999C11.9599 46.3 12.1299 46.13 12.1299 45.79C12.1299 45.45 12.1299 45.11 12.1299 44.79C12.1331 44.7283 12.1229 44.6668 12.1001 44.6094C12.0773 44.552 12.0424 44.5002 11.9978 44.4575C11.9532 44.4148 11.9 44.3822 11.8417 44.3619C11.7834 44.3417 11.7214 44.3341 11.6599 44.34H6.65989C6.59554 44.3348 6.53085 44.3442 6.47062 44.3675C6.41039 44.3907 6.35618 44.4272 6.31199 44.4743C6.2678 44.5214 6.23478 44.5778 6.21537 44.6393C6.19597 44.7009 6.19071 44.7661 6.19993 44.83V45.56C6.19993 46.23 6.26991 46.31 6.92991 46.31L9.13993 46.3ZM45.2599 46.3H47.6799C48.0499 46.3 48.2299 46.14 48.2299 45.77V44.84C48.2414 44.7722 48.2369 44.7026 48.2167 44.6369C48.1964 44.5712 48.161 44.5111 48.1134 44.4615C48.0657 44.412 48.0072 44.3742 47.9423 44.3514C47.8774 44.3285 47.8081 44.3212 47.7399 44.33H42.7399C42.6759 44.3222 42.6109 44.3288 42.5498 44.3495C42.4887 44.3702 42.433 44.4044 42.3869 44.4496C42.3408 44.4947 42.3055 44.5496 42.2835 44.6103C42.2615 44.6709 42.2534 44.7358 42.2599 44.8V45.8C42.2599 46.17 42.4299 46.33 42.8099 46.33L45.2599 46.3ZM13.8199 36.3L10.4899 37.3C10.4199 37.3 10.3099 37.41 10.3099 37.47C10.3099 37.93 10.3099 38.39 10.3099 38.89L14.5499 38.53L13.8199 36.3ZM40.5999 36.3L39.8799 38.5L44.1199 38.85C44.1199 38.36 44.1199 37.92 44.1199 37.48C44.1199 37.4 43.9899 37.28 43.8999 37.26C42.8499 37.02 41.7699 36.71 40.6399 36.39L40.5999 36.3Z" fill="#7829FA"/>
<path d="M21.4099 20.3301C21.2099 20.6601 21.0099 20.9401 20.8599 21.2501C20.2899 22.4501 19.7299 23.6601 19.1899 24.8701C19.0999 25.0701 19.04 25.2001 18.77 25.2001H8.42993H8.15991C8.19698 24.9473 8.27114 24.7012 8.37994 24.47C8.78994 23.81 9.26993 23.19 9.67993 22.53C9.82063 22.2927 9.90289 22.0254 9.91992 21.7501C9.91992 21.3001 9.91992 20.8501 9.91992 20.3701L21.4099 20.3301Z" fill="#7829FA"/>
<path d="M44.56 20.3301C44.56 20.8401 44.56 21.3301 44.56 21.8301C44.5704 22.0278 44.6287 22.22 44.73 22.3901C45.17 23.0701 45.65 23.7201 46.08 24.3901C46.2069 24.6333 46.301 24.8921 46.36 25.16H45.86H35.86C35.7316 25.1805 35.6003 25.1502 35.4939 25.0756C35.3875 25.0009 35.3143 24.8878 35.29 24.7601C34.7582 23.2766 34.0675 21.855 33.23 20.5201C33.23 20.4601 33.16 20.39 33.1 20.29L44.56 20.3301Z" fill="#7829FA"/>
</g>
<defs>
<clipPath id="clip0_8_1145">
<rect width="74.44" height="48.09" fill="white"/>
</clipPath>
</defs>
</svg>
