<svg width="42" height="45" viewBox="0 0 42 45" fill="none" xmlns="http://www.w3.org/2000/svg">
<g clip-path="url(#clip0_54_270)">
<path d="M36.406 0C36.4976 0.0194524 36.5892 0.0518732 36.6874 0.0583574C37.0472 0.0907781 37.3809 0.194524 37.7081 0.330692C38.1923 0.5317 38.6241 0.804035 39.0102 1.16066C39.6317 1.73127 40.0374 2.42507 40.2533 3.23559C40.3711 3.67651 40.3907 4.13689 40.3515 4.59078C40.2795 5.36239 40.0112 6.06268 39.5401 6.68516C39.4485 6.80187 39.3504 6.91859 39.2523 7.04179C39.4551 7.23631 39.6645 7.43084 39.8673 7.62536C39.9589 7.71614 40.0505 7.80692 40.1487 7.89769C40.3319 8.07925 40.5085 8.26081 40.6917 8.43588C41.0385 8.77954 41.3918 9.11671 41.7386 9.46037C41.8368 9.55764 41.9218 9.66787 42.0134 9.7781V9.9402C41.9349 10.0115 41.8629 10.1023 41.7713 10.1542C41.6601 10.2125 41.5423 10.1801 41.4507 10.0893C41.0189 9.66787 40.587 9.2464 40.1552 8.82493C39.7168 8.39697 39.2784 7.96902 38.8466 7.54107C38.8008 7.49568 38.7746 7.48919 38.7157 7.53458C38.3231 7.83285 37.8847 8.06628 37.4136 8.21542C37.08 8.31916 36.7463 8.39697 36.3929 8.40994C36.1705 8.40994 35.948 8.44236 35.7255 8.42291C35.3199 8.39049 34.9207 8.29971 34.5347 8.15706C34.1225 8.00144 33.7364 7.79395 33.3962 7.51513C33.1803 7.33357 32.9644 7.14553 32.7746 6.93804C32.4671 6.59438 32.2184 6.20533 32.0549 5.77738C31.9567 5.5245 31.8782 5.25865 31.8193 4.99928C31.7343 4.62968 31.7277 4.24712 31.7604 3.87104C31.7931 3.39769 31.9175 2.93084 32.1203 2.4964C32.2577 2.19164 32.4278 1.90634 32.6437 1.65346C32.7615 1.51081 32.8728 1.36167 33.0036 1.23847C33.3046 0.959654 33.6187 0.700288 33.9982 0.518732C34.273 0.389049 34.5543 0.26585 34.8422 0.175072C35.0647 0.103746 35.3068 0.0842939 35.5358 0.0389049C35.5816 0.0324207 35.6339 0.0129683 35.6797 0C35.9284 0 36.177 0 36.4191 0L36.406 0ZM36.0331 7.78746C36.2686 7.76153 36.5042 7.74207 36.7332 7.70317C37.2174 7.62536 37.6623 7.43732 38.0745 7.17147C38.4016 6.95749 38.6895 6.69813 38.9382 6.38689C39.1541 6.11455 39.3242 5.82925 39.4485 5.51153C39.5859 5.18084 39.671 4.83718 39.6906 4.48055C39.7037 4.22118 39.6776 3.95533 39.6579 3.69597C39.6317 3.37824 39.5336 3.07997 39.4027 2.79467C39.1868 2.30187 38.8662 1.88689 38.454 1.53026C38.0941 1.2255 37.695 0.998559 37.2566 0.849424C36.9491 0.745677 36.635 0.693804 36.3144 0.667867C36.02 0.641931 35.7255 0.654899 35.4376 0.700288C35.1825 0.745677 34.9338 0.823487 34.6852 0.914265C34.0898 1.12824 33.599 1.50432 33.1999 1.98415C32.9578 2.27594 32.7681 2.60014 32.6307 2.95677C32.4998 3.30043 32.4213 3.65706 32.4082 4.02017C32.4017 4.24712 32.4278 4.48055 32.4475 4.70749C32.4736 5.04467 32.5849 5.36239 32.7223 5.66715C33.0036 6.27666 33.4289 6.77594 33.9982 7.15202C34.6132 7.56052 35.2937 7.78098 36.0461 7.78746H36.0331Z" fill="#7929FB"/>
<path d="M17.3067 23.8811C11.4376 23.8811 6.66113 19.1477 6.66113 13.3314C6.66113 7.51515 11.4376 2.78821 17.3067 2.78821C23.1759 2.78821 27.9523 7.52164 27.9523 13.3379C27.9523 19.1542 23.1759 23.8876 17.3067 23.8876V23.8811ZM17.3067 4.07855C12.1573 4.07855 7.96975 8.22841 7.96975 13.3314C7.96975 18.4345 12.1573 22.5843 17.3067 22.5843C22.4561 22.5843 26.6437 18.4345 26.6437 13.3314C26.6437 8.22841 22.4561 4.07855 17.3067 4.07855Z" fill="#06F3A3"/>
<path d="M34.554 45L33.2519 44.9028C33.2846 44.5073 33.2977 44.0987 33.2977 43.6902C33.2977 34.9496 26.12 27.8365 17.2999 27.8365C8.47983 27.8365 1.30862 34.9496 1.30862 43.6902C1.30862 44.0793 1.3217 44.4683 1.34787 44.8509L0.0458015 44.9417C0.0130862 44.5267 0 44.1052 0 43.6902C0 34.2364 7.76009 26.5397 17.3064 26.5397C26.8528 26.5397 34.6129 34.2299 34.6129 43.6902C34.6129 44.1312 34.5932 44.5721 34.5605 45H34.554Z" fill="#7929FB"/>
</g>
<defs>
<clipPath id="clip0_54_270">
<rect width="42" height="45" fill="white"/>
</clipPath>
</defs>
</svg>
