<svg width="197" height="46" viewBox="0 0 197 46" fill="none" xmlns="http://www.w3.org/2000/svg">
<path d="M58.8415 15.9031C58.7573 15.0614 58.3996 14.4091 57.7683 13.9435C57.1344 13.4779 56.2769 13.2438 55.1931 13.2438C54.4566 13.2438 53.8332 13.3464 53.3256 13.5516C52.8179 13.7567 52.4312 14.0408 52.1629 14.4012C51.8947 14.7616 51.7605 15.1719 51.7605 15.6322C51.7474 16.0136 51.8289 16.3477 52.0051 16.6344C52.1814 16.9185 52.4286 17.1657 52.739 17.3682C53.052 17.5734 53.4124 17.7497 53.8227 17.8996C54.2331 18.0495 54.6697 18.1758 55.1353 18.281L57.0528 18.7387C57.984 18.9465 58.8388 19.2253 59.6174 19.5725C60.396 19.9197 61.0694 20.3485 61.6402 20.8561C62.211 21.3638 62.6529 21.9609 62.9685 22.65C63.2842 23.3392 63.4473 24.1283 63.4525 25.0174C63.4446 26.3247 63.1132 27.4557 62.4556 28.4106C61.798 29.3654 60.8537 30.1071 59.6201 30.6306C58.3864 31.1567 56.9003 31.4171 55.1616 31.4171C53.4229 31.4171 51.9367 31.154 50.661 30.6253C49.3853 30.0966 48.391 29.3128 47.6782 28.2738C46.9653 27.2348 46.5918 25.9459 46.5576 24.4098H50.9267C50.974 25.1252 51.1818 25.7223 51.5474 26.1984C51.9131 26.6745 52.4023 27.0323 53.0178 27.2716C53.6333 27.511 54.3304 27.632 55.109 27.632C55.8876 27.632 56.5399 27.5215 57.1054 27.2979C57.6709 27.0743 58.1129 26.7666 58.4232 26.3694C58.7363 25.9722 58.8914 25.5172 58.8914 25.0042C58.8914 24.5255 58.7494 24.1204 58.468 23.7943C58.1865 23.4681 57.7762 23.1893 57.2369 22.9604C56.6977 22.7316 56.0401 22.5212 55.2615 22.3344L52.9363 21.7505C51.1345 21.3138 49.7141 20.6273 48.6724 19.6961C47.6308 18.765 47.1126 17.5103 47.1179 15.9321C47.11 14.6379 47.4572 13.5095 48.1543 12.5441C48.8539 11.5788 49.814 10.8239 51.0371 10.282C52.2603 9.74016 53.6517 9.46924 55.2089 9.46924C56.7661 9.46924 58.1786 9.74016 59.3649 10.282C60.5512 10.8239 61.4718 11.5788 62.1321 12.5441C62.7923 13.5095 63.1342 14.63 63.1527 15.9031H58.8257H58.8415Z" fill="black"/>
<path d="M70.8441 21.8583V31.1172H66.4014V9.76123H70.7178V17.9259H70.9046C71.2649 16.9816 71.8489 16.2372 72.6564 15.7006C73.4639 15.1614 74.474 14.8931 75.6919 14.8931C76.8045 14.8931 77.7751 15.1351 78.6063 15.6191C79.4375 16.1031 80.0846 16.7948 80.5449 17.6944C81.0078 18.594 81.2341 19.6699 81.2288 20.9219V31.1199H76.7861V21.7137C76.794 20.7273 76.5441 19.9592 76.0417 19.4094C75.5367 18.8597 74.8344 18.5861 73.9295 18.5861C73.3245 18.5861 72.7906 18.715 72.3276 18.9728C71.8647 19.2306 71.5043 19.6041 71.2439 20.0933C70.9835 20.5826 70.8493 21.1718 70.8414 21.861L70.8441 21.8583Z" fill="black"/>
<path d="M89.2988 31.4199C88.2782 31.4199 87.3655 31.2411 86.5658 30.8834C85.7662 30.5256 85.1349 29.9943 84.672 29.2893C84.209 28.5844 83.9775 27.7032 83.9775 26.6458C83.9775 25.7568 84.1406 25.0097 84.4668 24.4047C84.793 23.7998 85.2375 23.3131 85.8004 22.9449C86.3633 22.5766 87.0051 22.2978 87.7232 22.1111C88.4439 21.9243 89.1988 21.7902 89.9906 21.7139C90.9217 21.6165 91.674 21.5245 92.2422 21.4377C92.813 21.3509 93.2259 21.2194 93.4837 21.0457C93.7415 20.8721 93.8704 20.6144 93.8704 20.275V20.2119C93.8704 19.5517 93.6626 19.0414 93.2496 18.6784C92.8366 18.318 92.2501 18.1366 91.4925 18.1366C90.6929 18.1366 90.0563 18.3128 89.5855 18.6626C89.112 19.0125 88.799 19.4544 88.6465 19.9804L84.5378 19.6464C84.7456 18.6732 85.1559 17.8314 85.7688 17.1186C86.3817 16.4058 87.1708 15.856 88.1414 15.472C89.112 15.0853 90.2352 14.8933 91.5136 14.8933C92.4026 14.8933 93.2575 14.9985 94.0729 15.2063C94.8883 15.4141 95.617 15.7377 96.2535 16.1769C96.8901 16.6136 97.3925 17.1765 97.7607 17.8604C98.129 18.5443 98.3131 19.3649 98.3131 20.3171V31.1201H94.0992V28.9001H93.973C93.7152 29.3998 93.3706 29.8391 92.9419 30.2179C92.5105 30.5967 91.9923 30.8913 91.3873 31.1043C90.7823 31.3174 90.0826 31.4226 89.2909 31.4226L89.2988 31.4199ZM90.5719 28.3556C91.2242 28.3556 91.8029 28.2241 92.3027 27.9636C92.8024 27.7032 93.197 27.3508 93.4811 26.9062C93.7652 26.4617 93.9072 25.9567 93.9072 25.3938V23.6945C93.7678 23.784 93.5784 23.8655 93.339 23.9392C93.0997 24.0128 92.8288 24.0786 92.5315 24.1364C92.2317 24.1943 91.9344 24.2469 91.6346 24.2916C91.3347 24.3364 91.0638 24.3758 90.8218 24.4126C90.301 24.4889 89.8459 24.6099 89.4566 24.7782C89.0673 24.944 88.7648 25.1702 88.5491 25.4516C88.3334 25.7331 88.2256 26.0829 88.2256 26.4985C88.2256 27.1035 88.4465 27.5638 88.8885 27.8795C89.3304 28.1951 89.8906 28.3529 90.5719 28.3529V28.3556Z" fill="black"/>
<path d="M101.771 31.1173V15.1009H106.077V17.8944H106.243C106.535 16.9001 107.024 16.1478 107.714 15.6375C108.403 15.1272 109.194 14.8721 110.091 14.8721C110.315 14.8721 110.554 14.8852 110.812 14.9141C111.07 14.9431 111.296 14.9799 111.491 15.0299V18.9702C111.283 18.9071 110.994 18.8518 110.625 18.8045C110.257 18.7571 109.92 18.7308 109.613 18.7308C108.96 18.7308 108.376 18.8729 107.866 19.1543C107.356 19.4358 106.951 19.8277 106.656 20.3275C106.361 20.8272 106.214 21.4059 106.214 22.0583V31.1199H101.771V31.1173Z" fill="black"/>
<path d="M120.321 31.4305C118.675 31.4305 117.257 31.0938 116.073 30.423C114.887 29.7523 113.974 28.8001 113.335 27.5665C112.696 26.3328 112.375 24.8703 112.375 23.1816C112.375 21.4929 112.696 20.0883 113.335 18.8441C113.974 17.6 114.876 16.6293 116.042 15.9349C117.207 15.2405 118.575 14.8933 120.145 14.8933C121.203 14.8933 122.186 15.0617 123.102 15.3983C124.014 15.735 124.814 16.2401 125.501 16.9161C126.184 17.5894 126.718 18.4364 127.1 19.4544C127.481 20.4723 127.673 21.6639 127.673 23.0264V24.2469H114.148V21.4929H123.491C123.491 20.8537 123.352 20.2882 123.073 19.7937C122.794 19.2992 122.41 18.9125 121.921 18.6311C121.431 18.3496 120.863 18.2076 120.216 18.2076C119.569 18.2076 118.946 18.3628 118.427 18.6705C117.909 18.9809 117.504 19.3939 117.212 19.9121C116.92 20.4302 116.77 21.0063 116.765 21.6376V24.2548C116.765 25.0465 116.912 25.7331 117.207 26.3091C117.502 26.8852 117.922 27.3323 118.464 27.6427C119.006 27.9557 119.651 28.1109 120.392 28.1109C120.887 28.1109 121.337 28.0425 121.747 27.9031C122.157 27.7637 122.507 27.5559 122.799 27.2771C123.091 26.9983 123.315 26.659 123.467 26.2539L127.576 26.5248C127.368 27.5112 126.942 28.3713 126.298 29.1052C125.653 29.8391 124.827 30.4099 123.814 30.815C122.802 31.2227 121.637 31.4252 120.316 31.4252L120.321 31.4305Z" fill="black"/>
<path d="M130.654 31.1172V9.76123H139.079C140.699 9.76123 142.077 10.069 143.219 10.6845C144.358 11.3 145.229 12.1522 145.831 13.2386C146.433 14.3276 146.733 15.5796 146.733 16.9974C146.733 18.4152 146.428 19.6672 145.815 20.7509C145.202 21.8346 144.318 22.679 143.161 23.284C142.004 23.889 140.604 24.1915 138.963 24.1915H133.592V20.5721H138.232C139.1 20.5721 139.818 20.4221 140.386 20.1196C140.952 19.8172 141.378 19.3963 141.659 18.8571C141.941 18.3178 142.083 17.6971 142.083 16.9948C142.083 16.2925 141.941 15.6664 141.659 15.1325C141.378 14.5985 140.952 14.1882 140.381 13.8909C139.81 13.5963 139.087 13.449 138.211 13.449H135.165V31.112H130.648L130.654 31.1172Z" fill="black"/>
<path d="M153.729 31.4199C152.709 31.4199 151.796 31.2411 150.996 30.8834C150.197 30.5256 149.566 29.9943 149.103 29.2893C148.64 28.5844 148.408 27.7032 148.408 26.6458C148.408 25.7568 148.571 25.0097 148.897 24.4047C149.224 23.7998 149.668 23.3131 150.231 22.9449C150.794 22.5766 151.436 22.2978 152.154 22.1111C152.875 21.9243 153.629 21.7902 154.421 21.7139C155.352 21.6165 156.105 21.5245 156.673 21.4377C157.244 21.3509 157.657 21.2194 157.914 21.0457C158.172 20.8721 158.301 20.6144 158.301 20.275V20.2119C158.301 19.5517 158.093 19.0414 157.68 18.6784C157.267 18.318 156.681 18.1366 155.923 18.1366C155.124 18.1366 154.487 18.3128 154.016 18.6626C153.543 19.0125 153.23 19.4544 153.077 19.9804L148.968 19.6464C149.176 18.6732 149.587 17.8314 150.199 17.1186C150.812 16.4058 151.601 15.856 152.572 15.472C153.543 15.0853 154.666 14.8933 155.944 14.8933C156.833 14.8933 157.688 14.9985 158.504 15.2063C159.319 15.4141 160.048 15.7377 160.684 16.1769C161.321 16.6136 161.823 17.1765 162.191 17.8604C162.56 18.5443 162.744 19.3649 162.744 20.3171V31.1201H158.53V28.9001H158.404C158.146 29.3998 157.801 29.8391 157.373 30.2179C156.941 30.5967 156.423 30.8913 155.818 31.1043C155.213 31.3174 154.513 31.4226 153.722 31.4226L153.729 31.4199ZM155.003 28.3556C155.655 28.3556 156.234 28.2241 156.733 27.9636C157.233 27.7032 157.628 27.3508 157.912 26.9062C158.196 26.4617 158.338 25.9567 158.338 25.3938V23.6945C158.198 23.784 158.009 23.8655 157.77 23.9392C157.53 24.0128 157.259 24.0786 156.962 24.1364C156.662 24.1943 156.365 24.2469 156.065 24.2916C155.765 24.3364 155.494 24.3758 155.252 24.4126C154.732 24.4889 154.277 24.6099 153.887 24.7782C153.498 24.944 153.195 25.1702 152.98 25.4516C152.764 25.7331 152.656 26.0829 152.656 26.4985C152.656 27.1035 152.877 27.5638 153.319 27.8795C153.761 28.1951 154.321 28.3529 155.003 28.3529V28.3556Z" fill="black"/>
<path d="M179.528 19.6674L175.462 19.9173C175.393 19.5701 175.243 19.2544 175.014 18.973C174.786 18.6915 174.483 18.4653 174.112 18.2943C173.741 18.1234 173.297 18.0392 172.784 18.0392C172.095 18.0392 171.516 18.1839 171.043 18.4706C170.569 18.7599 170.332 19.1439 170.332 19.6227C170.332 20.0041 170.485 20.3276 170.79 20.5933C171.095 20.8589 171.621 21.0694 172.366 21.2298L175.264 21.8138C176.821 22.1347 177.981 22.6476 178.747 23.3578C179.512 24.068 179.894 24.9992 179.894 26.1513C179.894 27.2008 179.586 28.1214 178.971 28.9132C178.355 29.7049 177.513 30.323 176.448 30.7649C175.383 31.2068 174.152 31.4278 172.763 31.4278C170.643 31.4278 168.954 30.9859 167.699 30.0995C166.445 29.213 165.708 28.0057 165.495 26.4748L169.864 26.2459C169.996 26.893 170.317 27.3849 170.824 27.7216C171.332 28.0583 171.982 28.2266 172.773 28.2266C173.565 28.2266 174.178 28.0767 174.657 27.7742C175.133 27.4717 175.375 27.0798 175.383 26.6011C175.375 26.1986 175.206 25.8672 174.872 25.6041C174.538 25.3437 174.025 25.1438 173.328 25.0044L170.556 24.452C168.991 24.139 167.828 23.5972 167.068 22.8265C166.308 22.0558 165.926 21.072 165.926 19.8752C165.926 18.8467 166.205 17.9603 166.766 17.2159C167.326 16.4715 168.115 15.8981 169.133 15.4956C170.151 15.0932 171.345 14.8906 172.715 14.8906C174.738 14.8906 176.332 15.3167 177.498 16.1742C178.663 17.0291 179.341 18.1944 179.536 19.6674H179.528Z" fill="black"/>
<path d="M196.023 19.6674L191.957 19.9173C191.888 19.5701 191.738 19.2544 191.51 18.973C191.281 18.6915 190.978 18.4653 190.607 18.2943C190.236 18.1234 189.792 18.0392 189.279 18.0392C188.59 18.0392 188.011 18.1839 187.538 18.4706C187.064 18.7599 186.827 19.1439 186.827 19.6227C186.827 20.0041 186.98 20.3276 187.285 20.5933C187.59 20.8589 188.116 21.0694 188.861 21.2298L191.759 21.8138C193.317 22.1347 194.477 22.6476 195.242 23.3578C196.008 24.068 196.389 24.9992 196.389 26.1513C196.389 27.2008 196.081 28.1214 195.466 28.9132C194.85 29.7049 194.008 30.323 192.943 30.7649C191.878 31.2068 190.647 31.4278 189.258 31.4278C187.138 31.4278 185.449 30.9859 184.194 30.0995C182.94 29.213 182.203 28.0057 181.99 26.4748L186.359 26.2459C186.491 26.893 186.812 27.3849 187.319 27.7216C187.827 28.0583 188.477 28.2266 189.268 28.2266C190.06 28.2266 190.673 28.0767 191.152 27.7742C191.628 27.4717 191.87 27.0798 191.878 26.6011C191.87 26.1986 191.702 25.8672 191.368 25.6041C191.033 25.3437 190.521 25.1438 189.823 25.0044L187.051 24.452C185.486 24.139 184.323 23.5972 183.563 22.8265C182.803 22.0558 182.422 21.072 182.422 19.8752C182.422 18.8467 182.7 17.9603 183.261 17.2159C183.821 16.4715 184.61 15.8981 185.628 15.4956C186.646 15.0932 187.84 14.8906 189.211 14.8906C191.233 14.8906 192.827 15.3167 193.993 16.1742C195.158 17.0291 195.837 18.1944 196.031 19.6674H196.023Z" fill="black"/>
<path d="M30.0547 8.21992H14.496C12.7442 8.21992 11.3238 9.64033 11.3238 11.3922V15.7796C9.95334 14.9695 9.03534 13.478 9.03534 11.7709V10.0586C9.03534 8.77231 9.55615 7.60968 10.3979 6.76796C11.2396 5.92624 12.4048 5.40543 13.6885 5.40543H36.9121L40.2105 0H13.7148C8.625 0 4.49794 4.12706 4.49794 9.21947V12.61C4.49794 16.8739 7.39135 20.4617 11.3238 21.5138V24.7518H2.6935C1.94911 24.7518 1.27573 25.0543 0.789113 25.5409C0.302493 26.0276 0 26.7036 0 27.4453C0 28.9341 1.20471 30.1388 2.6935 30.1388H11.3238V46L16.7134 37.6091V30.0415H30.0547C33.7398 30.0415 36.9226 27.8767 38.3956 24.7466C38.9585 23.5576 39.2715 22.2267 39.2715 20.8247V17.4315C39.2715 16.0663 38.9743 14.7696 38.4403 13.6043C36.9857 10.4242 33.7766 8.21466 30.052 8.21466L30.0547 8.21992ZM34.7341 19.9909C34.7341 22.5607 32.6508 24.644 30.081 24.644H16.716V21.8295H26.6168L29.9153 16.4241H16.716V13.6096L30.081 13.6253C31.3672 13.6253 32.5298 14.1462 33.3716 14.9879C34.2133 15.8296 34.7341 16.9922 34.7341 18.2785V19.9909Z" fill="black"/>
</svg>
