<svg width="41" height="46" viewBox="0 0 41 46" fill="none" xmlns="http://www.w3.org/2000/svg">
<g clip-path="url(#clip0_54_533)">
<path d="M16.8319 25.4989C11.1239 25.4989 6.47852 20.904 6.47852 15.2578C6.47852 9.61169 11.1239 5.01672 16.8319 5.01672C22.54 5.01672 27.1853 9.61169 27.1853 15.2578C27.1853 20.904 22.54 25.4989 16.8319 25.4989ZM16.8319 6.27562C11.8239 6.27562 7.75121 10.3041 7.75121 15.2578C7.75121 20.2116 11.8239 24.24 16.8319 24.24C21.84 24.24 25.9126 20.2116 25.9126 15.2578C25.9126 10.3041 21.84 6.27562 16.8319 6.27562Z" fill="#06F3A3"/>
<path d="M33.6056 46L32.3393 45.9055C32.3711 45.5216 32.3838 45.125 32.3838 44.7285C32.3838 36.2435 25.4031 29.3385 16.8251 29.3385C8.24709 29.3385 1.2727 36.2435 1.2727 44.7285C1.2727 45.1061 1.28543 45.4838 1.31088 45.8552L0.0445445 45.9433C0.012727 45.5405 0 45.1313 0 44.7285C0 35.5511 7.54711 28.0796 16.8314 28.0796C26.1158 28.0796 33.6629 35.5448 33.6629 44.7285C33.6629 45.1565 33.6438 45.5845 33.612 46H33.6056Z" fill="#7929FB"/>
<path d="M34.1275 13.552C30.3157 13.5394 27.274 10.4866 27.2931 6.69735C27.3121 3.00879 30.4366 -0.0251444 34.1784 3.35167e-05C37.9583 0.0252114 41.0064 3.07174 40.9937 6.80436C40.9809 10.537 37.8946 13.5646 34.1211 13.552H34.1275ZM34.1593 1.18339C31.0475 1.17081 28.4958 3.676 28.483 6.74771C28.4703 9.83829 30.9839 12.3498 34.0893 12.3687C37.2328 12.3876 39.7846 9.90124 39.8037 6.81065C39.8164 3.72007 37.2837 1.19598 34.1593 1.18339Z" fill="#7829FA"/>
<path d="M32.0275 8.46611C32.0211 8.00032 32.2184 7.74854 32.5493 7.71707C32.912 7.6856 33.1475 7.89332 33.2175 8.31505C33.332 8.99485 33.8156 9.34734 34.4074 9.17739C34.7638 9.07668 35.0183 8.77454 35.0692 8.40946C35.1202 8.0192 34.942 7.76743 34.6047 7.61006C34.3756 7.50306 34.1338 7.40864 33.8984 7.32052C33.5929 7.20722 33.2938 7.08762 33.0138 6.91138C32.3584 6.49594 31.9766 5.92944 32.0402 5.13004C32.0975 4.33694 32.5048 3.76414 33.2111 3.41165C33.4529 3.29206 33.5865 3.18505 33.5738 2.88292C33.5611 2.50525 33.7965 2.27235 34.1274 2.25976C34.4774 2.24717 34.7511 2.48007 34.7447 2.86403C34.7447 3.16617 34.8529 3.29206 35.1201 3.41795C35.7947 3.73896 36.1829 4.29917 36.2656 5.04192C36.3229 5.50771 36.1383 5.80355 35.7756 5.8602C35.4129 5.91056 35.1647 5.67766 35.0883 5.21187C35.012 4.73349 34.7383 4.43765 34.2993 4.36212C33.9365 4.29917 33.542 4.4943 33.3511 4.82161C33.122 5.21816 33.2047 5.60842 33.5865 5.87908C33.8475 6.06162 34.1465 6.15604 34.4393 6.27564C34.6747 6.37005 34.9165 6.45818 35.1456 6.57148C35.8647 6.94285 36.291 7.50306 36.2783 8.33393C36.2592 9.18368 35.852 9.80684 35.0883 10.1845C34.8529 10.2978 34.732 10.4048 34.7447 10.6881C34.7574 11.0783 34.5029 11.3301 34.1656 11.3364C33.8156 11.3427 33.5611 11.0846 33.5675 10.6755C33.5675 10.4174 33.4784 10.3041 33.2429 10.1971C32.492 9.83831 32.0848 9.22774 32.0339 8.49129L32.0275 8.46611Z" fill="#05F2A3"/>
</g>
<defs>
<clipPath id="clip0_54_533">
<rect width="41" height="46" fill="white"/>
</clipPath>
</defs>
</svg>
