<svg width="59" height="51" viewBox="0 0 59 51" fill="none" xmlns="http://www.w3.org/2000/svg">
<g clip-path="url(#clip0_54_509)">
<path d="M55.896 21.4686C54.1477 21.1133 52.4159 22.062 51.7231 23.8053C51.5879 24.1439 51.4164 24.221 51.0898 24.221C49.1502 24.2076 47.2106 24.2042 45.2709 24.221C44.8883 24.2243 44.7728 24.1338 44.8586 23.7315C45.2149 22.0922 45.4557 20.4328 45.6272 18.7633C45.6635 18.3979 45.8152 18.3241 46.1385 18.3274C47.5041 18.3409 48.8665 18.3342 50.2288 18.3274C51.2844 18.3274 51.5549 18.0526 51.5582 16.9731C51.5582 14.0431 51.5681 11.1164 51.5483 8.18981C51.545 7.73723 51.6638 7.51933 52.0926 7.33494C53.9926 6.52366 54.8635 4.34796 54.1048 2.41698C53.356 0.509466 51.2712 -0.462728 49.3646 0.211103C47.9066 0.72402 46.884 2.0918 46.7982 3.6406C46.7158 5.17935 47.6196 6.66782 49.0512 7.34835C49.3019 7.46569 49.5625 7.50592 49.5592 7.92497C49.5361 10.5599 49.5427 13.1949 49.5559 15.8299C49.5559 16.1618 49.4602 16.2691 49.1337 16.2624C48.1936 16.2456 47.2501 16.2456 46.31 16.2624C45.9604 16.2724 45.9076 16.145 45.9373 15.8165C46.0527 14.4755 46.1418 13.1346 46.2374 11.7903C46.3199 10.6639 45.8515 10.2415 44.7563 10.456C41.4313 11.1097 38.2316 10.8315 35.2034 9.16535C33.3594 8.15293 31.7662 6.82203 30.3049 5.3101C29.6583 4.63962 29.124 4.66308 28.4906 5.34697C28.3851 5.46096 28.2861 5.58164 28.1805 5.69562C24.3673 9.80231 19.7161 11.3746 14.2437 10.446C13.099 10.2515 12.6141 10.6974 12.7131 11.8707C12.8186 13.1145 12.8978 14.3616 13.0198 15.6053C13.066 16.0813 13.0034 16.316 12.4426 16.2724C11.6971 16.2154 10.945 16.2322 10.1962 16.2657C9.77726 16.2858 9.68819 16.1283 9.69149 15.7293C9.70469 13.1748 9.70469 10.6169 9.69149 8.05906C9.68819 7.70036 9.78715 7.51933 10.1269 7.36512C11.4563 6.76839 12.271 5.71909 12.4327 4.24404C12.6504 2.26947 11.3408 0.469238 9.48368 0.0870646C7.54736 -0.311871 5.65722 0.801125 5.07665 2.67847C4.48289 4.60609 5.39662 6.60747 7.26697 7.38523C7.62652 7.53274 7.70899 7.71376 7.70569 8.06912C7.6958 11.0561 7.69909 14.0431 7.70239 17.0301C7.70239 18.0056 8.01247 18.3241 8.97568 18.3274C10.2622 18.3308 11.5486 18.3375 12.8384 18.3207C13.1419 18.3207 13.2837 18.4046 13.3167 18.7264C13.5048 20.5501 13.8016 22.3537 14.148 24.1673C14.049 24.1841 13.9732 24.2076 13.8973 24.2076C11.862 24.2109 9.82674 24.2008 7.79146 24.221C7.45499 24.2243 7.38572 24.0366 7.28676 23.7986C6.63692 22.2162 5.22179 21.3111 3.55597 21.4016C2.00229 21.4854 0.649838 22.5749 0.158336 24.1304C0.112155 24.2746 0.145141 24.4489 0 24.5562V25.8469C0.0362854 25.934 0.0791681 26.0212 0.105557 26.1151C0.603657 27.8818 1.86705 28.9512 3.61534 29.0752C5.19211 29.1859 6.62043 28.2505 7.30325 26.6213C7.4253 26.3296 7.57704 26.2559 7.86073 26.2592C9.97188 26.2659 12.0863 26.2659 14.1975 26.2559C14.5108 26.2559 14.6758 26.3363 14.7648 26.6749C15.2234 28.3679 15.8501 30.0038 16.5725 31.5962C16.7902 32.0756 16.6913 32.1728 16.1965 32.1695C13.795 32.1494 11.3936 32.1594 8.99217 32.1628C7.98278 32.1628 7.70239 32.4511 7.70239 33.487C7.69909 36.6282 7.6958 39.7727 7.70569 42.9139C7.70899 43.2659 7.63642 43.4537 7.27357 43.6045C5.54176 44.3119 4.62144 46.0752 4.97769 47.9123C5.31746 49.669 6.91401 50.9965 8.68869 50.9965C10.4865 50.9932 12.0665 49.6623 12.4129 47.8554C12.756 46.0685 11.8224 44.3085 10.117 43.5978C9.79375 43.4637 9.68819 43.3095 9.69149 42.9642C9.70469 40.2119 9.70798 37.4596 9.68819 34.7073C9.68489 34.2782 9.83663 34.191 10.2226 34.191C12.6603 34.2044 15.1013 34.201 17.539 34.1943C17.8128 34.1943 17.9975 34.2614 18.1592 34.5061C20.7684 38.5323 24.4233 41.1908 28.7908 42.9206C29.2427 43.1017 29.6649 43.1385 30.1267 42.9508C34.448 41.2109 38.0436 38.5256 40.6891 34.6C40.8837 34.315 41.0882 34.1876 41.4412 34.191C43.9548 34.2044 46.4717 34.2111 48.9885 34.191C49.4471 34.191 49.5625 34.3251 49.5592 34.781C49.5394 37.4562 49.5394 40.1314 49.5592 42.8033C49.5625 43.2458 49.457 43.4738 49.0281 43.6682C47.3557 44.4258 46.4914 46.2831 46.9137 48.0766C47.3095 49.7629 48.9193 51.0234 50.6412 50.9999C52.3895 50.9731 53.9332 49.6858 54.273 47.9727C54.6425 46.1121 53.7584 44.3554 52.0431 43.638C51.6539 43.4738 51.5483 43.2726 51.5483 42.867C51.5648 39.7828 51.5582 36.6986 51.5582 33.6144C51.5582 32.374 51.3438 32.1628 50.1035 32.1628H42.19C42.2131 32.0421 42.2164 31.965 42.2461 31.898C42.9982 30.1681 43.7107 28.4249 44.1989 26.5945C44.2912 26.2458 44.5122 26.2659 44.7629 26.2659C46.8774 26.2659 48.9885 26.2726 51.103 26.2592C51.446 26.2592 51.5945 26.3766 51.7264 26.695C52.4521 28.4718 54.2037 29.3904 56.0345 28.9948C57.7432 28.6227 59.0033 27.0236 59 25.23C58.9934 23.3896 57.7168 21.8374 55.896 21.4686ZM48.8599 3.8451C48.8566 2.84609 49.6681 2.04486 50.6643 2.06163C51.6176 2.07839 52.4126 2.90978 52.3928 3.86857C52.3763 4.84411 51.5747 5.62857 50.6082 5.62187C49.6384 5.61852 48.8599 4.824 48.8599 3.8451ZM8.68869 5.62522C7.71889 5.63193 6.92721 4.85752 6.91071 3.87862C6.89422 2.89637 7.66281 2.08174 8.62272 2.06163C9.61562 2.04151 10.437 2.84273 10.4403 3.8384C10.4469 4.80724 9.65191 5.61517 8.68869 5.62522ZM3.79677 27.0236C2.82366 27.0303 2.03198 26.2391 2.02538 25.2535C2.02208 24.2645 2.80387 23.4633 3.77698 23.4566C4.75008 23.4566 5.53847 24.2411 5.54176 25.23C5.54836 26.219 4.76988 27.0202 3.79677 27.0236ZM10.4502 47.1547C10.4469 48.1437 9.61892 48.9516 8.62932 48.9315C7.66941 48.9114 6.89752 48.0934 6.91401 47.1178C6.9305 46.1389 7.72548 45.3612 8.69529 45.3712C9.6585 45.3813 10.4535 46.1859 10.4502 47.1547ZM50.6214 45.3712C51.5879 45.3712 52.3796 46.1657 52.3862 47.1413C52.3928 48.1101 51.6011 48.9214 50.6412 48.9315C49.6681 48.9415 48.8731 48.1671 48.8566 47.1882C48.8368 46.1825 49.6285 45.3679 50.6214 45.3712ZM44.1428 13.0005C43.6876 18.6191 43.1862 24.2277 41.0651 29.5278C38.9144 34.9118 35.1242 38.6162 29.8727 40.8321C29.5726 40.9595 29.3351 40.9125 29.058 40.7986C22.7179 38.2239 18.8486 33.4367 16.9453 26.8727C15.9359 23.3996 15.4411 19.8327 15.098 16.2423C15.0089 15.3304 14.9331 14.4152 14.8803 13.8118C14.8209 12.6418 14.8176 12.6585 15.6885 12.7122C20.9169 13.0307 25.5086 11.5791 29.18 7.63331C29.4769 7.31483 29.599 7.4791 29.8068 7.67354C31.8849 9.63134 34.2237 11.1567 36.9418 12.0417C39.1453 12.7625 41.3983 13.0005 43.6975 12.6753C43.9812 12.6351 44.1758 12.5848 44.1428 13.0005ZM55.1834 27.0236C54.2136 27.0102 53.445 26.2022 53.4582 25.2099C53.4714 24.2277 54.2697 23.4432 55.2428 23.4566C56.2159 23.4734 56.9911 24.288 56.9746 25.2736C56.9581 26.2592 56.1598 27.037 55.1834 27.0236Z" fill="#7829FA"/>
<path d="M33.3658 21.8442C32.9798 19.9132 31.4031 18.579 29.4997 18.5723C27.6195 18.5656 25.9932 19.8931 25.6073 21.7504C25.2115 23.6579 26.1978 25.5822 27.9922 26.3063C28.398 26.4705 28.4837 26.675 28.4804 27.0673C28.4639 28.2171 28.4771 29.367 28.487 30.5169C28.4969 31.3181 28.9027 31.7908 29.5393 31.7707C30.1595 31.7472 30.519 31.2946 30.519 30.5102C30.519 29.3603 30.5256 28.2104 30.4959 27.0606C30.486 26.6549 30.5949 26.4605 30.9907 26.2996C32.739 25.5855 33.7352 23.6746 33.3658 21.8442ZM29.4931 24.5664C28.4244 24.5731 27.5568 23.7082 27.5436 22.622C27.5271 21.519 28.4244 20.5938 29.4964 20.6038C30.5421 20.6105 31.4262 21.5224 31.4262 22.5918C31.4262 23.6612 30.552 24.563 29.4931 24.5664Z" fill="#7829FA"/>
<path d="M30.9907 26.2996C30.5949 26.4605 30.486 26.6549 30.4959 27.0606C30.5256 28.2104 30.519 29.3603 30.519 30.5102C30.519 31.2946 30.1595 31.7472 29.5393 31.7707C28.9027 31.7908 28.4969 31.3181 28.487 30.5169C28.4771 29.367 28.4639 28.2171 28.4804 27.0673C28.4837 26.675 28.398 26.4705 27.9922 26.3063C26.1978 25.5822 25.2115 23.6579 25.6073 21.7504C25.9932 19.8931 27.6195 18.5656 29.4997 18.5723C31.4031 18.579 32.9798 19.9132 33.3658 21.8442C33.7352 23.6746 32.739 25.5855 30.9907 26.2996Z" fill="#05F2A3"/>
</g>
<defs>
<clipPath id="clip0_54_509">
<rect width="59" height="51" fill="white"/>
</clipPath>
</defs>
</svg>
