<svg width="50" height="52" viewBox="0 0 50 52" fill="none" xmlns="http://www.w3.org/2000/svg">
<g clip-path="url(#clip0_54_495)">
<path d="M16.1028 52C15.9621 51.948 15.8255 51.892 15.6848 51.8481C14.0488 51.3525 12.9796 49.9855 12.9153 48.2868C12.8952 47.7832 12.9153 47.2796 12.9153 46.712C12.662 46.712 12.461 46.712 12.2641 46.712C8.53388 46.712 4.8077 46.712 1.07749 46.712C0.209256 46.712 -0.100254 46.3563 0.0323931 45.5169C0.635336 41.7998 2.70544 39.2378 6.18642 37.7829C6.24672 37.7589 6.30701 37.7269 6.43162 37.667C4.9323 36.372 4.18064 34.7772 4.40172 32.8187C4.5625 31.4158 5.20564 30.2447 6.30701 29.3414C8.45751 27.5747 11.6209 27.7426 13.5383 29.7251C14.6316 30.8602 15.1502 32.2272 15.0457 33.79C14.9452 35.3528 14.2216 36.6198 13.0358 37.607C13.9644 38.1186 14.8648 38.6182 15.8295 39.1498C17.2806 37.5231 19.1014 36.296 21.3484 35.5726C19.2622 34.0058 18.2453 31.9874 18.4824 29.4413C18.6472 27.6587 19.4954 26.1998 20.8862 25.0607C23.5873 22.8424 27.615 23.2181 29.9705 25.912C32.2496 28.514 32.2215 32.9466 28.6601 35.5726C30.8468 36.3 32.6878 37.4911 34.1549 39.1618C35.0995 38.6382 36.012 38.1346 36.9485 37.615C35.598 36.4639 34.8583 34.997 34.9387 33.1904C35.003 31.7395 35.5859 30.5045 36.6712 29.5212C38.8177 27.5787 42.0856 27.6747 44.0954 29.7171C46.0047 31.6516 46.4268 35.2009 43.5689 37.671C43.8904 37.8149 44.1999 37.9388 44.4974 38.0867C47.6689 39.6734 49.4857 42.2315 49.9882 45.7168C50.0726 46.2923 49.7148 46.696 49.1119 46.708C48.3442 46.724 47.5804 46.712 46.8127 46.712C43.7819 46.712 40.7511 46.712 37.7203 46.712H37.0772C37.0772 47.0717 37.0772 47.3995 37.0772 47.7312C37.0772 50.0455 36.1647 51.2685 33.9539 51.94C33.9258 51.948 33.9057 51.984 33.8816 52.004H16.1068L16.1028 52ZM24.9862 50.3732C27.7115 50.3732 30.4327 50.3772 33.158 50.3732C34.3197 50.3732 35.3126 49.6138 35.393 48.5546C35.4693 47.5314 35.5216 46.4762 35.3688 45.465C34.7016 41.0404 31.3372 37.667 26.8513 36.8036C22.6226 35.9923 18.197 38.0067 15.938 41.7518C14.7763 43.6784 14.4226 45.7687 14.5311 47.987C14.6075 49.4899 15.4476 50.3692 16.9711 50.3732C19.6441 50.3732 22.3171 50.3732 24.9902 50.3732H24.9862ZM29.9022 30.1168C29.8941 27.4189 27.7074 25.2525 24.9902 25.2525C22.2528 25.2525 20.0702 27.4389 20.0822 30.1688C20.0943 32.8427 22.3292 35.041 25.0183 35.021C27.7155 35.005 29.9102 32.8027 29.9022 30.1168ZM14.6437 40.4488C12.855 38.6982 9.12878 38.2026 6.36329 39.4696C3.93946 40.5807 2.42406 42.4473 1.76083 45.0613H12.8268C13.4418 43.4945 14.0327 41.9996 14.6397 40.4488H14.6437ZM48.2396 45.0653C47.4237 42.1116 45.6671 40.0931 42.7971 39.1658C40.0557 38.2825 37.5113 38.7861 35.3286 40.4169C35.9517 42.0076 36.5385 43.5065 37.1495 45.0613H48.2396V45.0653ZM43.9909 33.4462C43.9949 31.4158 42.3388 29.7571 40.3009 29.7491C38.2308 29.7411 36.5426 31.4078 36.5546 33.4462C36.5667 35.4647 38.2469 37.1314 40.2728 37.1314C42.3027 37.1314 43.9829 35.4687 43.9909 33.4502V33.4462ZM9.70761 29.7451C7.66564 29.7451 5.9975 31.3958 5.99348 33.4222C5.98946 35.4447 7.64153 37.1034 9.68349 37.1274C11.7214 37.1514 13.4378 35.4487 13.4258 33.4183C13.4177 31.3918 11.7456 29.7451 9.70359 29.7451H9.70761Z" fill="#7829FA"/>
<path d="M29.0701 21.7552C28.9495 21.6993 28.6762 21.6073 28.439 21.4594C27.4221 20.8119 26.4051 20.1644 25.4123 19.485C25.0907 19.2651 24.8656 19.2851 24.5561 19.497C23.5592 20.1724 22.5423 20.8199 21.5293 21.4754C20.9706 21.8352 20.4802 21.8551 20.0581 21.5514C19.62 21.2356 19.4873 20.792 19.6602 20.1485C19.9777 18.9574 20.2913 17.7623 20.6329 16.5792C20.7214 16.2714 20.6772 16.0916 20.4199 15.8917C19.4391 15.1323 18.4784 14.3489 17.5137 13.5735C16.9791 13.1418 16.8223 12.7302 16.9992 12.2106C17.1962 11.631 17.6423 11.4192 18.2171 11.3912C19.4592 11.3352 20.6973 11.2673 21.9393 11.2273C22.2569 11.2153 22.4176 11.0994 22.5262 10.7997C22.9523 9.64054 23.3984 8.49342 23.8406 7.34231C24.0818 6.71879 24.4556 6.41502 24.9902 6.43501C25.5931 6.45899 25.9348 6.80272 26.1358 7.3503C26.5378 8.44546 26.992 9.52063 27.3698 10.6238C27.5306 11.0874 27.7758 11.2353 28.2461 11.2473C29.4037 11.2713 30.5574 11.3352 31.715 11.3912C32.4225 11.4272 32.8043 11.687 32.9772 12.2226C33.142 12.7422 32.9852 13.1458 32.4506 13.5855C32.3702 13.6495 32.2898 13.7134 32.2134 13.7774C31.3251 14.4888 30.4448 15.2083 29.5444 15.9037C29.3073 16.0876 29.247 16.2515 29.3314 16.5432C29.6851 17.7783 30.0228 19.0173 30.3483 20.2564C30.5614 21.0677 30.0308 21.7632 29.0701 21.7552ZM28.4189 19.505C28.3586 19.2172 28.3385 19.0893 28.3064 18.9614C28.0773 18.114 27.8562 17.2627 27.615 16.4193C27.4422 15.8238 27.603 15.3601 28.0933 14.9884C28.4431 14.7206 28.7847 14.4408 29.1304 14.1651C29.5846 13.8013 30.0429 13.4336 30.6177 12.974C29.7615 12.938 29.0701 12.918 28.3747 12.8701C26.4935 12.7422 26.5096 12.97 25.7981 11.0115C25.561 10.356 25.2957 9.71249 25.0023 8.95707C24.8977 9.21287 24.8375 9.34877 24.7852 9.48466C24.4757 10.288 24.1622 11.0914 23.8647 11.8988C23.6476 12.4864 23.2497 12.7981 22.6025 12.8101C21.8871 12.8221 21.1756 12.8701 20.4601 12.91C20.1506 12.926 19.8411 12.962 19.419 12.998C20.2591 13.6694 20.9786 14.289 21.7424 14.8445C22.4056 15.3242 22.5744 15.8957 22.3252 16.6551C22.1122 17.2947 21.9554 17.9541 21.7785 18.6096C21.7102 18.8614 21.6539 19.1173 21.5574 19.5209C22.4779 18.9214 23.2859 18.4298 24.0576 17.8822C24.7008 17.4266 25.2796 17.4146 25.9268 17.8702C26.6985 18.4138 27.5065 18.9094 28.423 19.505H28.4189Z" fill="#05F2A3"/>
<path d="M29.6731 8.92918C29.4721 8.76531 29.1345 8.62542 29.0541 8.39759C28.9656 8.14179 29.0058 7.69413 29.1827 7.52626C30.3001 6.46308 31.4578 5.43987 32.6235 4.42865C32.9692 4.12888 33.4475 4.20881 33.7128 4.55255C33.9861 4.90428 34.0103 5.30797 33.6847 5.61174C32.5511 6.65893 31.3975 7.68214 30.2399 8.70136C30.1233 8.80528 29.9344 8.82926 29.6731 8.92918Z" fill="#05F2A3"/>
<path d="M16.8064 4.16476C17.0837 4.30466 17.3048 4.36861 17.4576 4.5045C18.5549 5.46776 19.6442 6.43901 20.7215 7.41826C21.1034 7.76599 21.1275 8.25762 20.826 8.59336C20.5205 8.9331 20.0261 8.96107 19.6402 8.62533C18.5469 7.66207 17.4656 6.68283 16.3763 5.70758C16.0748 5.43978 15.9623 5.08805 16.1512 4.74831C16.2838 4.5125 16.5692 4.36461 16.8024 4.16077L16.8064 4.16476Z" fill="#05F2A3"/>
<path d="M25.8059 2.28228C25.8059 2.7699 25.818 3.26153 25.8059 3.74915C25.7899 4.26875 25.4602 4.5925 24.9819 4.58851C24.5076 4.58451 24.186 4.25676 24.178 3.73316C24.1659 2.7699 24.1659 1.81064 24.178 0.847383C24.186 0.33178 24.5357 -0.00396163 24.998 3.52996e-05C25.4602 0.00403222 25.7858 0.347768 25.8019 0.863371C25.814 1.33501 25.8019 1.80665 25.8019 2.27828L25.8059 2.28228Z" fill="#05F2A3"/>
</g>
<defs>
<clipPath id="clip0_54_495">
<rect width="50" height="52" fill="white"/>
</clipPath>
</defs>
</svg>
