<svg width="49" height="44" viewBox="0 0 49 44" fill="none" xmlns="http://www.w3.org/2000/svg">
<g clip-path="url(#clip0_12_17)">
<path d="M0 26.7062C1.11488 27.5763 2.42775 28.1664 3.82556 28.4257C4.42235 28.5187 5.02536 28.5676 5.62956 28.572C9.58776 28.572 13.5407 28.572 17.4936 28.572H18.1462C18.1462 28.7811 18.1462 28.9588 18.1462 29.1417C18.1462 31.1172 18.0878 31.1486 19.9661 32.105C21.1706 32.7217 22.3644 33.3436 23.5476 33.9917C23.8333 34.1645 24.162 34.256 24.4973 34.256C24.8326 34.256 25.1614 34.1645 25.4471 33.9917C26.8939 33.2077 28.3547 32.4394 29.8298 31.6869C30.1546 31.5519 30.4274 31.3185 30.6086 31.0207C30.7898 30.7229 30.8701 30.3759 30.8379 30.0301C30.8379 29.5598 30.8379 29.0946 30.8379 28.5772H31.4534C35.0561 28.5772 38.6641 28.5354 42.2668 28.5772C44.6863 28.619 46.9678 28.3055 48.9841 26.6331V27.2236C48.9841 32.1015 48.9841 36.9793 48.9841 41.8572C48.9841 43.3258 48.3155 43.9947 46.8299 43.9947H19.8016C13.997 43.9947 8.19231 43.9947 2.38766 43.9947C1.2628 43.9947 0.44039 43.6864 0 42.6255V26.7062Z" fill="#7829FA"/>
<path d="M0 11.6075C0.408554 10.5257 1.23627 10.1964 2.36112 10.2016C17.1257 10.2016 31.8902 10.2016 46.6548 10.2016C46.91 10.1954 47.1654 10.2077 47.4188 10.2382C47.8526 10.2886 48.252 10.4953 48.54 10.8187C48.8281 11.142 48.9844 11.5589 48.9788 11.989C48.9788 14.8739 49.0265 17.7693 48.9788 20.6542C48.9208 22.0137 48.3236 23.2965 47.3155 24.2269C46.3075 25.1573 44.969 25.6609 43.588 25.6296C40.2559 25.6296 36.9185 25.6296 33.5864 25.6296H30.8379V23.4868C30.8379 22.0862 30.3338 21.6001 28.9066 21.6001C25.9246 21.6001 22.9427 21.6001 19.9608 21.6001C18.6927 21.6001 18.1515 22.1228 18.1515 23.3718C18.1515 24.1035 18.1515 24.8404 18.1515 25.6296H5.68262C2.6954 25.6296 0.732214 24.0617 0.0742823 21.1925C0.0545043 21.1338 0.0314831 21.0762 0.00531108 21.02L0 11.6075Z" fill="#7829FA"/>
<path d="M17.2972 7.28539H14.3153C14.3949 6.73141 14.4586 6.20878 14.5435 5.68615C14.6973 4.67748 14.8194 3.66358 15.0316 2.67059C15.2131 1.95918 15.6192 1.32287 16.1913 0.853277C16.7634 0.383682 17.472 0.105032 18.2151 0.0574538C19.0269 0.0104173 19.8387 0.0261003 20.6505 0.020874C23.8341 0.020874 27.0176 0.020874 30.2012 0.020874C32.2068 0.020874 33.6182 1.06613 34.0002 2.92146C34.2867 4.34823 34.4512 5.7959 34.6794 7.28539H31.6762C31.5117 6.14606 31.3419 5.01719 31.1828 3.88831C31.0713 3.08347 30.9122 2.93714 30.0791 2.93714H18.8943C18.0666 2.93714 17.9074 3.08347 17.796 3.89354C17.6368 5.00674 17.467 6.13561 17.2972 7.28539Z" fill="#7829FA"/>
<path d="M21.1599 24.574H27.8294C27.8525 24.6932 27.8685 24.8136 27.8772 24.9346C27.8772 26.3039 27.8772 27.6679 27.8772 29.0372C27.8851 29.148 27.857 29.2584 27.7968 29.3524C27.7367 29.4463 27.6478 29.519 27.5429 29.5598C26.625 30.025 25.723 30.5267 24.7945 30.9814C24.6998 31.0215 24.5978 31.0422 24.4947 31.0422C24.3916 31.0422 24.2896 31.0215 24.1949 30.9814C23.2558 30.5163 22.3325 30.025 21.4146 29.5233C21.3381 29.4799 21.2716 29.4212 21.2195 29.351C21.1674 29.2808 21.1309 29.2006 21.1122 29.1156C21.1122 27.6575 21.1122 26.1993 21.1122 24.736C21.1226 24.6806 21.1386 24.6263 21.1599 24.574Z" fill="#01F3A2"/>
</g>
<defs>
<clipPath id="clip0_12_17">
<rect width="49" height="44" fill="white"/>
</clipPath>
</defs>
</svg>
